<?xml version="1.0" standalone="no"?>
<!DOCTYPE svg PUBLIC "-//W3C//DTD SVG 20010904//EN"
 "http://www.w3.org/TR/2001/REC-SVG-20010904/DTD/svg10.dtd">
<svg version="1.0" xmlns="http://www.w3.org/2000/svg"
 width="1024.000000pt" height="1024.000000pt" viewBox="0 0 1024.000000 1024.000000"
 preserveAspectRatio="xMidYMid meet">
<metadata>
Created by potrace 1.11, written by Peter Selinger 2001-2013
</metadata>
<g transform="translate(0.000000,1024.000000) scale(0.100000,-0.100000)"
fill="#000000" stroke="none">
<path d="M1640 10233 c0 -7 2303 -7 5640 0 685 1 -304 3 -2197 5 -1894 1
-3443 -1 -3443 -5z"/>
<path d="M8532 10235 c9 -9 68 -12 68 -4 0 5 -16 9 -37 9 -20 0 -34 -2 -31 -5z"/>
<path d="M4381 9020 c-357 -358 -660 -656 -673 -663 -19 -9 -226 -12 -938 -11
-503 1 -922 -2 -930 -6 -13 -7 -15 -120 -14 -937 1 -601 -2 -935 -8 -947 -14
-25 -171 -181 -180 -178 -5 1 -7 -1 -6 -6 3 -9 -875 -887 -884 -884 -5 1 -8
-2 -8 -8 0 -5 -54 -64 -120 -130 -66 -66 -120 -122 -120 -125 0 -2 94 -98 210
-213 115 -115 206 -212 203 -216 -4 -3 -1 -6 6 -6 15 0 171 -156 171 -171 0
-7 3 -10 6 -6 4 3 54 -43 113 -103 164 -168 171 -177 165 -193 -7 -19 24 -50
44 -42 10 4 77 -57 208 -189 l194 -195 0 -353 c0 -1237 1 -1514 8 -1523 5 -7
319 -10 943 -10 l935 0 33 -27 c18 -16 31 -28 28 -28 -2 0 282 -286 630 -635
349 -349 638 -635 642 -635 5 0 305 297 668 660 364 363 665 661 669 661 5 1
426 2 936 3 510 1 930 5 934 9 4 4 7 428 7 943 l0 937 659 658 c362 363 658
666 658 674 0 8 -297 311 -659 674 l-659 659 2 937 c1 615 -2 939 -9 943 -5 4
-419 8 -920 9 -500 1 -921 2 -934 2 -18 1 -189 166 -684 661 -362 363 -663
660 -668 660 -5 0 -301 -293 -658 -650z"/>
<path d="M10232 1650 c0 -14 2 -19 5 -12 2 6 2 18 0 25 -3 6 -5 1 -5 -13z"/>
<path d="M1 1644 c0 -11 3 -14 6 -6 3 7 2 16 -1 19 -3 4 -6 -2 -5 -13z"/>
<path d="M1638 3 c7 -3 16 -2 19 1 4 3 -2 6 -13 5 -11 0 -14 -3 -6 -6z"/>
</g>
</svg>
