<?xml version="1.0" encoding="UTF-8" standalone="no"?>
<svg
   xmlns:dc="http://purl.org/dc/elements/1.1/"
   xmlns:cc="http://creativecommons.org/ns#"
   xmlns:rdf="http://www.w3.org/1999/02/22-rdf-syntax-ns#"
   xmlns:svg="http://www.w3.org/2000/svg"
   xmlns="http://www.w3.org/2000/svg"
   xmlns:sodipodi="http://sodipodi.sourceforge.net/DTD/sodipodi-0.dtd"
   xmlns:inkscape="http://www.inkscape.org/namespaces/inkscape"
   id="svgRepublic"
   preserveAspectRatio="xMidYMid meet"
   viewBox="0 0 950 650"
   version="1.1"
   sodipodi:docname="obl_karaganda.svg"
   inkscape:version="1.0.1 (0767f8302a, 2020-10-17)">
  <sodipodi:namedview
     pagecolor="#ffffff"
     bordercolor="#666666"
     borderopacity="1"
     objecttolerance="10"
     gridtolerance="10"
     guidetolerance="10"
     inkscape:pageopacity="0"
     inkscape:pageshadow="2"
     inkscape:window-width="1848"
     inkscape:window-height="1016"
     id="namedview25"
     showgrid="false"
     inkscape:zoom="1.3384616"
     inkscape:cx="501.53628"
     inkscape:cy="370.57796"
     inkscape:window-x="72"
     inkscape:window-y="27"
     inkscape:window-maximized="1"
     inkscape:current-layer="svgRepublic"
     inkscape:document-rotation="0" />
  <metadata
     id="metadata24">
    <rdf:RDF>
      <cc:Work
         rdf:about="">
        <dc:format>image/svg+xml</dc:format>
        <dc:type
           rdf:resource="http://purl.org/dc/dcmitype/StillImage" />
        <dc:title>{{ $t('region.1935') }}</dc:title>
      </cc:Work>
    </rdf:RDF>
  </metadata>
  <defs
     id="defs22" />
  <title
     id="title">{{ titleName }}</title>
  <path
     id="region193560"
     class="region"
     style="fill:#00aad4"
     d="M295.2 205.99L280.67 215.82L270.86 228.22L264.43 229.07L260.15 240.61L252.03 243.17L235.37 261.55L217.85 261.55L211.86 273.52L202.89 273.52L196.91 275.23L156.74 268.39L150.75 291.46L140.07 291.46L141.78 305.99L122.97 308.99L124.26 319.67L111.01 334.2L122.97 358.13L116.56 368.39L28.96 426.93L26.82 431.21L49.47 428.22L62.29 441.89L73.4 441.89L87.93 453.86L96.05 450.44L120.84 465.4L131.09 466.68L161.01 484.63L174.27 486.76L182.82 500.01L270.86 529.5L298.21 528.22L300.34 536.34L410.17 538.47L383.68 462.41L416.15 418.39L407.18 383.77L420.86 363.69L429.4 363.69L456.33 352.15L460.6 344.88L429.4 305.99L414.45 282.49L401.2 282.49L366.58 254.29L343.93 253L343.93 229.07L334.1 214.54L325.13 200.44L314.45 182.06L295.2 205.99Z" />
  <path
     id="region193544"
     class="region"
     style="fill:#00aad4"
     d="M429.55 307.15L460.6 343.96L456.8 351.7L429.55 363.63L420.2 363.63L406.97 383.63L416 417.83L383.75 462.02L410.2 538.47L554.71 531.05L550.52 514.92L546.65 430.73L549.55 384.6L569.88 391.05L575.36 386.21L577.62 377.18L588.01 365.25L585.36 345.57L588.01 334.42L579.65 324.27L579.35 317.01L590.2 303.58L591.69 261.29L581.64 250.34L581.14 241.88L564.83 240.89L561.25 236.41L528.41 243.38L525.92 239.89L513.49 236.41L511 227.46L497.57 227.46L501.55 254.32L493.09 274.72L456.8 280.05L453.41 290.35L435.87 296.51L414.49 282.05L429.55 307.15Z" />
  <path
     id="region193564"
     class="region"
     style="fill:#00aad4"
     d="M581.75 250.23L591.69 261.35L590.23 303.49L579.5 317.1L579.81 324.02L588.13 334.13L585.48 345.56L588.13 365.23L577.63 377L575.21 386.08L569.5 390.73L549.17 384.73L546.17 432.73L550.83 515.4L554.5 531.4L695.22 521.07L696.17 487.57L685.22 445.83L680.14 421.54L666.65 408.84L679.35 409.32L687.44 404.08L700.14 403.29L703.95 410.11L711.88 410.11L721.25 397.42L742.68 397.42L746.65 394.72L747.12 373.92L732.84 353.76L729.98 341.23L729.98 319.64L731.57 304.4L724.11 296.78L722.2 291.86L713.47 290.91L713.47 286.3L702.04 276.3L703.95 273.45L720.3 273.45L727.6 246.3L722.2 242.49L722.2 238.21L716.81 236.62L716.81 232.34L709.19 225.11L705.22 227.01L697.92 219.32L699.66 215.83L694.58 211.07L686.33 211.07L673.79 225.11L670.5 225.11L645.8 221.59L623.01 225.11L606.59 227.01L593.29 229.18L587.59 241.12L581.35 241.53L581.75 250.23Z" />
  <path
     id="region193552"
     class="region"
     style="fill:#00aad4"
     d="M343.87 228.94L343.87 252.82L366.75 254.26L401.14 282.32L414.6 282.32L436.04 296.42L453.45 290.23L456.76 280.02L493.31 274.41L501.51 254.26L497.33 227.07L511.15 227.46L513.59 235.99L525.82 239.87L528.7 243.18L561.67 236.71L564.09 222.89L564.09 214.12L558.2 210.66L555.03 191.38L562.54 191.38L565.48 197.28L573.16 198.15L580.36 196.56L583.23 189.37L578.2 185.48L579.26 173.04L573.59 169.59L571.49 156.52L556.82 139.01L559.04 128.77L564.09 122.85L562.54 110.39L565.48 107.93L566.05 105.28L561.67 99.01L548.75 97.3L534.3 103.38L534.3 110.98L530.11 116.5L526.88 113.84L521.18 117.64L519.66 122.58L505.4 129.81L506.35 139.5L506.35 145.77L500.84 141.4L489.5 149.2L491.22 156.04L490.27 160.79L484.56 160.22L473.35 167.07L469.73 167.07L469.73 162.89L473.35 158.32L472.97 151.67L467.45 146.73L441.41 152.43L441.98 146.73L429.81 136.65L403.95 142.35L398.06 120.3L398.06 101.86L375.63 104.71L359.47 116.5L351.29 112.89L338.93 116.5L345.02 121.82L344.45 125.81L354.33 134.37L353 140.64L345.02 147.68L323.73 156.04L326.61 167.91L314.35 182.06L343.87 228.94Z" />
  <path
     id="region193556"
     class="region"
     style="fill:#00aad4"
     d="M558.88 128.25L556.76 138.82L571.26 156.65L573.38 169.34L579.12 172.96L586.67 172.06L596.34 167.53L594.52 158.76L594.52 154.84L608.72 143.96L623.23 137.01L632.89 140.94L636.22 138.82L645.58 140.94L651.62 133.08L654.95 137.01L654.95 153.02L660.69 152.12L663.71 134.9L668.54 130.67L668.54 112.54L688.48 109.22L683.65 97.3L686.97 93.51L689.69 63.3L686.07 58.46L683.65 50.61L651.62 42.15L641.35 43.05L635.3 47.59L641.35 60.27L644.67 62.39L650.71 56.65L655.85 62.39L650.71 66.62L634.1 74.47L627.75 83.54L616.88 82.03L608.72 96.53L599.92 97.3L595.21 104.68L595.21 107.54L588.83 110.23L583.23 115.94L582.44 124.68L563.78 123.17L558.88 128.25Z" />
  <path
     id="region193540"
     class="region"
     style="fill:#00aad4"
     d="M688.14 109.22L668.96 112.36L668.37 130.75L663.68 134.86L660.55 152.08L654.87 153.06L654.87 136.62L651.35 133.1L645.48 140.93L636.28 138.58L632.95 140.93L623.23 136.62L608.88 143.86L594.4 154.63L594.4 158.74L596.36 167.15L586.38 171.85L579.14 172.96L577.96 185.55L583.23 189.07L589.7 180.26L593.42 179.67L597.53 176.15L601.45 183L604.97 184.92L623.85 184.92L638.32 202.44L643.11 203.31L649.86 194.17L659.1 206.47L664.87 197L676.84 195.8L679.23 205.92L686.67 211.07L692.11 210.12L692.11 205.59L698.15 198.64L699.96 174.47L704.49 168.73L707.52 172.96L712.35 175.08L719.3 181.12L729.27 176.59L724.13 170.85L726.25 166.01L733.2 165.11L740.45 158.16L748.6 158.16L749.81 150.61L741.35 146.38L740.45 141.54L750.72 135.8L752.83 129.16L746.49 118.28L728.06 104.69L724.13 103.78L721.11 97.3L712.35 97.3L707.52 95.32L702.08 101.06L685.16 101.06L688.14 109.22Z" />
  <path
     id="region193548"
     class="region"
     style="fill:#00aad4"
     d="M748.63 158.08L740.58 158.08L732.86 165.16L726.36 166.11L724.06 170.7L729.03 176.53L719.38 180.93L712.4 175L707.14 172.61L704.56 168.88L699.97 174.33L698.34 198.43L692.13 205.4L692.13 210.85L694.9 210.85L699.68 215.63L698.06 219.08L705.32 226.72L709.24 225.1L716.8 231.98L716.8 236.95L722.25 237.72L721.77 242.1L727.79 246.13L723.37 261.36L740.58 268.33L744.27 250.3L752.83 256.45L762.3 257.67L765.99 252.35L769.68 256.45L775.42 266.69L781.47 260.13L796.73 265.46L808.21 268.33L812.71 263.41L821.09 270.79L838.53 263.41L849.6 275.71L856.16 278.99L863.12 274.07L870.09 278.99L888.94 273.25L897.14 260.13L892.63 238.82L870.09 242.1L866.4 227.46L875.42 222.43L858.21 203.99L850.83 203.99L844.68 190.46L873.78 172.96L876.65 142.92L888.94 135.95L901.65 113L895.5 107.56L897.14 103.17L895.5 92.1L883.21 86.36L870.09 86.36L859.44 76.94L847.55 82.26L841.81 92.1L840.46 103.99L840.46 114.02L821.09 116.68L817.67 122.5L809.7 120.47L794.13 129.08L784.63 127.69L781.47 133.26L764.13 133.64L748.94 149.97L748.63 158.08Z" />
  <path
     id="region193536"
     class="region"
     style="fill:#00aad4"
     d="M870.14 278.73L863.19 273.92L856.25 278.99L849.41 275.52L838.19 263.24L821.31 270.82L812.55 263.24L808.17 268.47L781.44 260.07L775.51 266.65L769.46 256.09L766.19 252.29L762.28 257.69L752.84 256.27L744.23 250.25L740.6 268.24L723.77 261.14L720.31 273.19L703.81 273.19L702.15 275.92L713.71 286.23L713.71 290.85L722.29 292.33L723.77 296.12L731.53 304.54L730.04 319.72L730.04 341.18L732.52 353.06L747.12 373.85L746.54 394.48L742.25 397.28L721.13 397.61L712.06 409.99L703.81 409.99L700.17 403.22L687.8 404.21L679.38 409.16L666.51 408.01L680.21 421.54L696.05 487.38L695.39 520.71L709.75 505.04L721.63 503.22L717.67 495.63L725.92 477.98L733.18 479.96L752.48 461.62L750.19 453.37L753.22 448.23L780.69 448.23L798.95 448.23L826.21 438.78L837.49 439.42L847.67 435.02L855.66 436.85L860.89 442.45L871.9 441.9L873.37 438.5L881.62 438.78L886.49 441.44L888.23 436.3L894.47 436.3L896.62 438.78L906.49 438.78L912.18 443.73L915.49 443.73L918.58 438.23L934.75 432.27L927.01 388.61L922.99 388.22L921.34 390.33L918.58 390.33L913.86 388.22L907.53 390.33L906.92 397.96L898.76 397.96L884.28 386.93L887.65 382.81L889.34 370.69L899.05 370.69L891.05 350.21L893.23 329.12L897.47 329.12L896.62 320.27L900.5 320.27L898.76 314.64L907.85 308.91L904.15 305.88L894.05 305.88L889.34 298.14L894.05 296.12C894.87 293.34 895.38 291.61 895.58 290.91C895.66 290.65 895.46 290.4 895.19 290.4C893.74 290.4 890.1 290.4 884.28 290.4L876.2 282.65L880.24 278.99L878.22 275.92L870.14 278.73Z" />
  <path
     id="region193532"
     class="region"
     style="fill:#00aad4"
     d="M558.84 210.27L563.82 213.6L563.82 223.55L562.16 236.83L565.48 241.4L580.84 241.4L587.89 240.15L593.7 229.78L646.64 221.06L674.2 224.8L687.06 210.27L678.94 204.05L677.52 195.34L665.4 196.86L659.26 206.36L650.13 193.68L643.49 202.39L638.51 202.39L623.23 185.38L604.49 185.38L601.17 182.06L597.68 175.84L593.7 180.4L589.55 180.4L583.23 188.7L580.84 196.86L573.78 198.24L565.48 196.86L563.82 191.19L555.52 191.19L558.84 210.27Z" />
  <path
     id="region193510"
     class="city"
     d="m 656.45825,181.42036 c 0,5.14 -4.59,9.32 -10.25,9.32 -5.65,0 -10.25,-4.18 -10.25,-9.32 0,-5.14 4.6,-9.32 10.25,-9.32 5.66,0 10.25,4.18 10.25,9.32 z" />
  <path
     id="region193516"
     class="city"
     d="M794.39 434.64C794.39 439.78 789.79 443.95 784.14 443.95C778.48 443.95 773.89 439.78 773.89 434.64C773.89 429.5 778.48 425.32 784.14 425.32C789.79 425.32 794.39 429.5 794.39 434.64Z" />
  <path
     id="region193518"
     class="city"
     d="M328.08 425.14C328.08 430.28 323.49 434.45 317.84 434.45C312.18 434.45 307.59 430.28 307.59 425.14C307.59 420 312.18 415.82 317.84 415.82C323.49 415.82 328.08 420 328.08 425.14Z" />
  <path
     id="region193520"
     class="city"
     d="M532.67 355.37C532.67 360.51 528.08 364.68 522.42 364.68C516.77 364.68 512.18 360.51 512.18 355.37C512.18 350.22 516.77 346.05 522.42 346.05C528.08 346.05 532.67 350.22 532.67 355.37Z" />
  <path
     id="region193523"
     class="city"
     d="M295.92 380.55C295.92 385.69 291.33 389.87 285.67 389.87C280.02 389.87 275.42 385.69 275.42 380.55C275.42 375.41 280.02 371.23 285.67 371.23C291.33 371.23 295.92 375.41 295.92 380.55Z" />
  <path
     id="region193524"
     class="city"
     d="m 626.87,166.01 c 0,5.14 -4.59,9.32 -10.25,9.32 -5.65,0 -10.25,-4.18 -10.25,-9.32 0,-5.14 4.6,-9.32 10.25,-9.32 5.66,0 10.25,4.18 10.25,9.32 z" />
  <path
     id="region193528"
     class="city"
     d="m 625.94,198.65 c 0,5.14 -4.59,9.32 -10.25,9.32 -5.66,0 -10.25,-4.18 -10.25,-9.32 0,-5.14 4.59,-9.31 10.25,-9.31 5.66,0 10.25,4.17 10.25,9.31 z" />
  <path
     id="republic"
     class="region"
     style="fill:#00aad4"
     v-on:click="onRepublicClick()"
     d="m 122.17233,32.860886 c -0.15828,-0.0031 -0.32616,0.02614 -0.4901,0.04454 0.15994,0.26477 0.31417,0.527616 0.19731,0.700132 -0.29879,-0.399397 -0.6073,-0.687639 -0.99929,-0.24823 l -0.1973,0.700132 c -0.56361,0.06012 -1.5007,-0.388713 -1.60395,0.299156 -10e-6,0 0.84788,-0.04977 0.54738,0.400986 -0.30049,0.450742 -0.80197,0.700133 -0.80197,0.700133 -0.0387,-0.08709 -1.27351,-0.555897 -1.29844,0.305512 -0.004,0.160796 -0.91119,-0.419397 -1.50847,0.146389 -0.35392,0.335268 -1.71842,0.450491 -1.84581,0.553743 -0.95772,0.235423 -1.82522,0.189119 -2.90875,0.801974 -0.23211,-1.045029 -0.74757,-0.339272 -1.20296,0 -0.61387,-0.244969 -1.12487,-0.06754 -1.59758,0.299156 -0.25012,0.400662 -0.12328,0.802286 0.0445,1.202959 l -0.59829,0.101831 c -0.33079,-0.586216 -0.73449,-0.749113 -1.25388,-0.203672 -0.75815,0.05541 -1.56638,0.103504 -2.10041,0.203672 -0.22199,0.09106 -0.89554,-0.148836 -0.35006,0.49646 l -0.8529,0.203682 c -0.0456,-0.690555 -0.88224,-0.310666 -1.55302,-0.152756 -0.42699,0.09169 -0.79927,0.230781 -0.8529,0.649217 l -1.247509,-0.09545 c -0.355017,-0.263725 -1.497516,0.559326 -0.751058,1.298434 0.33763,0.334305 -0.865623,-0.751058 -0.865623,-0.751058 -0.465378,0.05363 -1.056853,-0.534391 -1.393908,0.203671 l -0.795606,-0.05092 c -0.512718,-0.436303 -0.766416,-0.07862 -1.107485,0 -0.243359,-0.124946 -0.342544,-0.279783 -0.350072,-0.451902 l -0.598301,0.451902 c -0.278947,0.12456 -1.137711,0.04057 -0.203672,0.598302 l 0.426444,0.140022 c -0.110999,0.0094 -0.367123,0.576513 -0.572833,0.814707 -0.294619,0.341143 -0.751058,-0.10183 -0.751058,-0.10183 0.209411,0.272903 0.316448,0.750315 0.789239,0.49646 0.02018,-0.114533 0.134084,0.60401 0.464636,0.356428 0.381185,-0.285481 1.470228,-0.272412 1.400275,-0.05092 -0.06712,0.120774 -0.124622,0.396397 -0.350072,0.547376 -0.445388,0.285418 -0.661177,-0.0073 -0.929271,-0.16548 -0.195402,0.149024 -0.395237,0.289359 -0.222763,0.668307 0,0 -0.241413,0.659755 0.400987,0.553743 0.296595,-0.04893 0.774163,0.09911 1.183859,0.362795 0.365189,0.235057 0.770148,0.184581 0.770148,0.184581 0.350584,0.05457 0.69962,0.115453 1.050204,0.400986 -0.05583,0.239187 0.0162,0.539765 -0.299146,0.649217 l -1.406631,-0.09545 c -0.08186,-0.143326 -1.225731,-0.331671 -1.20296,0.1464 0.01192,0.250133 -0.668318,-0.413721 -0.668318,-0.413721 -0.500831,0.500831 -1.174878,1.290624 -1.502105,1.502106 -0.144466,0.122886 -0.267729,0.253415 -0.133666,0.515561 0.221016,0.215956 0.635197,0.115861 0.604669,0.751058 0.528536,0.269945 0.627596,0.755919 0.903803,1.152034 -0.956935,0.123755 -1.335454,0.50519 -1.903091,0.801973 -0.59297,0.139531 -1.211544,0.259543 -1.253875,0.903814 -0.409529,-0.09723 -0.908342,-0.304174 -1.005656,0 l 0.356439,0.700133 c 1.385721,0.0042 1.98327,0.235966 1.247508,0.852898 l 0.502827,0.350061 h 1.502106 c -0.04234,0.328158 -0.239125,0.664868 0.299156,0.948373 l 1.30479,-0.10183 c 0.275716,0.29443 0.409476,0.48359 0.852899,0.903814 l 0.197304,0.350061 -0.400976,0.299156 -0.700142,2.004933 c -0.167948,-0.152684 -2.447624,0.986888 -2.507761,1.13931 0.03178,0.01725 0.03408,0.02049 0,0.01275 -0.0094,-0.0021 -0.0031,-0.0042 0,-0.01275 -0.222375,-0.120806 -1.848381,-0.760781 -1.998566,-0.585568 0.0063,-0.610669 0.02488,-1.249714 -0.751058,-0.203682 -0.05039,0.317202 -0.07235,0.637539 -0.35006,0.95473 l -0.751058,0.400986 c 0,0 -0.986617,0.207059 -0.7065,0.05092 1.361582,-0.758952 -0.664135,-0.89452 -0.948362,-0.801973 l -1.20296,-0.400987 c -0.322073,-1.1e-5 -1.333112,-1.243922 -0.751058,-1.355716 0.692281,-0.132976 -0.288837,-0.776317 -0.801973,-0.801973 0.04861,-0.255486 -0.653639,-0.395853 -0.611025,0 0.01537,0.142782 0.102981,0.369099 -0.03816,0.350061 -0.314734,-0.04245 -1.924221,-0.563717 -1.852177,-0.09545 0.270907,0.924358 0.0828,1.103993 -0.400986,0.801973 -0.349193,0.683561 -0.931865,-0.316376 -1.406632,-0.553743 -1.405366,-0.4838 -2.190507,-0.481876 -1.852176,0.400986 0,1.1e-5 -0.561229,-1.391628 -0.751058,-0.700132 -0.221895,0.808299 -0.637466,1.124632 -0.700132,0.999288 h -0.400987 l -0.197315,1.050204 c -0.529801,0.232861 -1.107067,0.43462 -1.457557,0.801973 0.102249,-0.322627 -1.43787,-0.724994 -1.546664,-0.591935 0.05029,0.07172 0.07381,0.119395 0.04454,0.09545 -0.05217,-0.04266 -0.06012,-0.07643 -0.04454,-0.09545 -0.285962,-0.407604 -1.651171,-2.080417 -1.858533,-2.011299 -0.31258,0.0666 -0.738261,0.02635 -0.840165,0.324603 l 0.64285,0.528285 c -0.276772,0.588871 -0.137545,1.052807 0.05092,1.502116 -0.03649,0.0804 -1.088238,0.941295 -1.005645,-0.101831 0.02854,-0.360035 -0.245637,-0.527752 -0.04454,-0.751058 0.514411,-0.571234 0.122071,-0.699755 -0.356428,-0.751047 -0.268178,-0.02875 -0.649217,-0.751058 -0.649217,-0.751058 L 68.04553,55.946323 c 0.05363,-0.536377 -0.549393,-0.241884 -1.005644,-0.553742 -0.732731,-0.500821 -0.41646,-0.837416 -0.407354,-0.846522 -0.210133,-0.524166 -0.793076,-0.424332 -0.961096,-0.400986 -0.490763,-0.09221 -1.013873,-0.207269 -1.139311,-0.02551 -0.100158,0.05687 -0.820928,0.139938 -0.999288,-0.114565 -0.16618,-0.237127 -0.250426,1.061808 -0.859255,0.22914 -0.05604,-0.07664 -0.464877,-1.457516 -0.54102,-1.444834 -0.02415,-0.88694 -0.794142,0.04851 -1.202959,0.101831 -0.290353,-0.154847 -1.384206,0.700393 -0.700133,1.152044 0.304279,0.200891 -1.201611,0.05092 -1.502105,0.05092 -0.300505,0 -1.175641,-0.20132 -0.751058,-0.254598 1.215035,-0.152422 0.45392,-0.879715 -0.203671,-0.999277 l -0.795617,0.152756 c -0.894677,-1.058212 -0.602923,-0.338487 -0.400987,0.24823 -0.135265,0.138548 0.06189,0.388608 -0.451901,0.400987 -0.200337,-1.050151 -0.404333,-0.244456 -0.604659,0.598301 -0.50841,-0.0084 -0.712667,0.397139 -0.846531,0.903804 -0.105344,-0.123179 -1.39693,0.384091 -1.654862,0.948373 -0.177921,0.389214 -0.942006,-0.339617 -0.942006,-0.1464 -0.962048,0.21213 -0.857917,0.893694 -0.572833,1.559398 -0.82213,0.235298 -1.528201,0.527637 -1.788528,1.043837 -0.911446,0.274461 -0.971697,0.0528 -0.954729,0.420077 -0.19904,-0.04977 0.577894,2.571681 0.903804,2.851465 0.361331,0.310196 -1.783812,1.306442 -2.119498,1.13931 -0.385524,-0.191941 -0.591548,-1.364833 -0.986554,-1.508472 0,0 -0.700456,-1.39808 -1.101119,-1.648505 -0.400673,-0.250416 -0.502827,-0.305513 -0.502827,-0.305513 -0.313939,0.32245 -0.266014,1.042634 -0.999288,0.903814 -0.350814,0.519022 -0.150917,1.090225 0,1.654862 l -1.406632,0.999288 -0.350071,2.552309 c 1.151564,0.667837 1.225908,1.514755 -0.451902,2.654149 l -0.897447,2.40592 2.304078,0.649217 c 0.07266,0.918189 -0.108929,1.837801 0.299146,2.755991 l 0.553753,0.451901 c 0.351797,-0.06367 0.190122,-0.417683 0.248231,-0.649206 l 0.700132,0.101831 c 0.173018,0.379114 1.153759,0.106127 1.750335,0.146389 l 1.457557,1.954017 c 0.484009,0.584439 0.797875,1.335214 1.196593,2.004933 l 0.655584,1.591223 c 0.0052,0.244027 -0.190164,0.26064 -0.515551,0.127299 l -0.534652,0.133655 c -0.309183,-0.310552 -0.66445,-0.827797 -0.655584,0.451912 0.241727,0.381739 0.447845,0.407835 0.642849,0.369162 l 2.0113,1.005645 c -0.03826,-0.155077 -0.08908,-0.273688 -0.08908,-0.273688 0,-1.1e-5 0.171627,0.17145 0.515551,0.09545 0.228816,-0.0506 -0.244927,-0.89245 -0.369162,-1.05657 -0.07318,-0.0966 0.720216,0.632123 1.253886,0.0827 0.279929,-0.288168 0.547375,0.260964 0.547375,0.260964 0.578835,-0.476283 1.158778,-0.915492 1.737612,-1.502105 0.01108,-0.0052 0.531171,-0.399534 0.871979,-0.432812 0.415561,-0.04056 1.092149,-0.794215 1.4321,-0.502827 0.03597,-0.251931 0.79548,-0.499294 1.062937,-0.56011 0.494286,-0.1124 1.48038,0.221884 1.304791,0.375529 0,0 0.811738,0.872878 1.247518,0.935639 0.354086,0.05102 1.119854,0.747304 0.992921,-0.05092 -0.01046,-0.06607 0.126002,-0.01275 0.184581,-0.01275 0.311326,0 0.687409,-0.751057 0.687409,-0.751057 0.519942,0.444175 1.721448,0.38866 1.508472,0.171847 -0.45116,-0.459273 0.93014,0.524437 0.852888,0.623759 l 0.375529,0.846532 -0.661951,0.770148 0.216406,0.381896 c 0.431933,1.745652 -0.0063,1.439292 0.07643,2.144955 l -0.681041,1.508473 -0.585568,0.884713 c 0,1e-5 -0.306945,0.149473 0.203672,0.604668 0.510627,0.455195 1.85984,1.021568 1.705787,0.999288 -0.311315,-0.04506 -0.148888,0.359586 -0.833798,0.197305 -0.78995,-0.187163 -2.09404,-0.566477 -2.09404,-0.566477 -0.05478,-0.03649 -1.637862,0.192433 -1.909458,0.260964 0.01997,0.01045 0.04663,0.02666 0.05092,0.03178 -0.01276,-1.25e-4 -0.04088,-5.2e-5 -0.08908,-0.01275 -0.01119,-0.0031 0.0052,-0.01077 0.03816,-0.01913 -0.132568,-0.06963 -0.54102,-0.235496 -0.54102,-0.235496 l -0.80834,0.502827 -0.617392,-0.356438 -0.470993,0.852899 -0.01913,0.674674 -1.139321,0.668308 0.07643,0.617392 c 0.41049,0.302376 0.964766,0.512028 1.050204,1.031113 0.155067,0.110079 0.185271,0.633921 0.49646,0.305512 l 0.611025,0.458269 -0.757414,0.09545 c 0,-1e-5 -0.38107,0.16548 -0.630126,0.16548 -0.249056,1.1e-5 -0.903814,-0.668307 -0.903814,-0.668307 -0.804619,-0.415038 -1.485493,-0.26683 -2.17678,-0.171847 -0.143128,0.258727 -0.529927,0.305188 -0.24823,0.935628 -0.0021,0.500172 0.206421,0.784848 0.49646,0.992921 0.507104,-0.307216 1.051019,-0.147173 1.61667,0.248231 0.07538,0.682745 0.206421,1.38454 0.687409,2.183157 0.290572,1.037292 0.581417,1.568347 0.871989,1.432089 0.334274,0.705663 0.374996,1.407478 0.06367,2.113141 l 1.311158,-0.07643 0.929271,1.82035 1.12022,-0.43281 c 0.01955,0.52906 0.223003,0.46891 0.445546,0.49009 0.130717,0.0125 0.672803,-0.33736 1.107485,0.50283 0.192956,0.0381 0.465671,-0.0926 0.439168,0.43918 -0.304519,0.8717 -0.647105,1.74426 -1.183859,2.61595 -0.04924,0.51367 -0.249119,0.62558 0.0063,0.92291 0.137137,0.1596 0.130854,0.63574 0.08908,1.07566 0.680121,-0.67594 2.410018,-2.13051 2.698698,-2.17042 0.221539,-0.0306 2.649832,-0.70341 3.405208,-0.60466 0.650021,0.085 3.007838,1.99495 2.953295,2.04949 -0.163253,0.68447 0.433585,1.37138 1.005655,2.05585 0.295047,0.72946 0.497297,1.09061 0.700132,1.45119 0.841305,0.17654 1.267111,0.0631 1.960374,-0.31825 l 0.04454,-19.762902 9.260883,-3.055136 9.197234,7.402339 c 0,0 2.875563,3.812551 3.176068,3.812551 0.300504,1.1e-5 3.901671,-0.757414 3.901671,-0.757414 0.008,-0.0115 4.86755,0.251157 4.79274,0.400986 -0.20627,0.413104 1.65487,-0.992921 1.65487,-0.992921 0.78999,0.837656 1.50079,1.699985 2.41865,2.495027 l 0.95473,2.2659 1.0502,-0.846535 -0.40098,5.448325 h 1.90309 c 0,-1e-5 0.20641,2.00214 0.20367,2.40592 -0.003,0.52566 0.401,2.20224 0.401,2.20224 0,0 1.94123,0.28291 2.50138,0 0.5804,-0.29312 2.19932,-0.0596 2.05586,-0.0954 l 0.75105,0.84653 c -0.20202,0.32815 -0.50841,0.6025 -0.40098,1.10748 0.0357,0.2138 1.63374,1.73116 1.95401,0.99929 0.19674,-0.44958 -0.18103,-1.20296 -0.20367,-1.20296 -0.13966,-0.43692 0.70999,-0.75294 0.65558,-0.8529 -0.0733,-0.13454 0.27603,-1.09664 0.99928,-1.10111 0.39116,-0.002 -4.8e-4,-1.20296 0.35007,-1.20296 0.35058,-1e-5 0.90381,-0.54738 0.90381,-0.54738 l 1.20296,-0.8529 c 0.46364,-0.0691 0.90609,-0.15122 0.99928,-0.4519 0,1e-5 0.68208,-0.22228 0.8529,-0.59829 0.80631,-1.77488 0.98215,-0.90403 1.59758,-0.8529 -0.42509,-0.31322 0.73138,-1.24827 1.20296,-1.10112 0.19124,0.0597 -0.54738,-0.40099 -0.54738,-0.40099 0.0527,0.079 0.79567,-0.51187 0.64922,-0.85289 -0.19261,-0.44849 0.25584,-0.85396 0.50282,-0.75105 l 0.29915,-0.70014 0.64922,-0.24822 0.65557,0.0445 c 0.10089,-0.24671 1.09802,0.14101 1.64851,0.0509 0.28419,-0.0465 2.2843,0.30991 2.15769,0.60467 0.1012,-0.19107 0.55027,0.0792 0.64921,0.64922 0.0343,0.19738 0.9583,-0.13253 1.413,-0.0191 0.45471,0.11341 0.43918,0.6683 0.43918,0.6683 l 0.50283,0.0509 c 0.15438,-0.0464 -0.21208,-0.76982 -0.19732,-1.12021 0.0147,-0.35039 0.19578,-0.68336 0.3628,-1.20932 0.20202,-0.63615 0.0225,-1.04384 0.0954,-1.04384 l 0.92927,-0.381896 c 1.34714,-0.660352 2.32349,-0.599755 2.91512,0.203671 0.97189,0.797845 1.50341,0.798625 2.25316,1.196605 l 1.50211,0.15275 0.53465,-0.75742 2.62232,0.30551 1.60395,-0.40098 0.70013,0.35007 c 0,-0.22313 2.6528,0.0673 2.95331,0.30551 0.24822,0.19677 1.85217,-0.1273 1.85217,-0.1273 l 1.71852,0.66832 0.6874,-0.1464 c -0.0125,0.37871 -0.0122,0.7443 0.29915,0.7065 -1e-5,0 0.30249,0.49813 0.50283,0.5983 0.20033,0.10016 0.0177,0.48973 0.1973,0.40099 0.39598,-0.19565 1.97908,0.0258 1.9031,0.10183 -0.113,0.113 0.83257,1.82543 1.00565,1.5021 0.0974,-0.18206 -0.4519,-2.40373 -0.4519,-2.65415 0,-0.25041 0.40735,-0.91018 0.40735,-0.91018 0.64217,0.0308 0.86554,-0.2558 1.14567,-0.49645 1e-5,0 -0.98321,-0.29613 -0.78287,-0.496459 0.20033,-0.200347 1.13294,-0.700143 1.13294,-0.700143 l 0.50283,0.299156 c -0.0938,-1.886479 -1.08705,-3.810083 -1.64851,-5.696562 l 0.0445,-1.667596 c -1e-5,0 0.003,-0.404938 0,-0.852888 -0.003,-0.386549 0.62743,-0.357254 0.471,-0.668318 -0.2392,-0.475624 -1.15841,-0.490094 -1.15841,-0.490094 0,1.1e-5 -0.5189,0.410375 -0.71923,0.210039 -0.20034,-0.200326 -0.4901,-0.649217 -0.4901,-0.649217 0.4307,-0.343297 0.64834,-0.80673 1.74398,-0.751048 0.40237,-0.356981 1.1467,-0.602054 2.31045,-0.738323 0.83265,-0.09754 1.60596,-0.490293 2.29772,-0.814708 0.41969,-0.587554 1.23519,1.277786 1.30479,1.050204 0.1168,-0.381917 1.42496,-0.602797 1.9031,0.10183 -1e-5,0 0.89796,-0.951195 0.54738,-1.502115 -0.35059,-0.55092 -1.15372,-0.205658 -1.25388,-0.706499 -0.10015,-0.500821 0.50366,-1.252527 0.55375,-1.553021 0.0501,-0.300505 0.50281,-2.501393 0.50281,-2.501393 10e-6,0 0.69629,-1.700581 0.84654,-2.151333 0.15025,-0.450741 0.55374,-1.457547 0.55374,-1.457547 0.15189,-0.560768 -0.2167,-1.73045 0.64922,-1.45119 l 2.95966,1.406632 c 0.4663,-0.277055 1.42524,-0.194252 2.39955,-0.101831 1e-5,1e-5 0.38708,1.393876 0.60467,0.948373 0.35058,-0.717832 2.15132,-1.526329 2.15132,-1.400275 0.19393,0.08312 1.65878,-1.622681 1.0502,-1.654861 -0.3555,-0.01882 -0.81511,-1.94304 -0.75105,-2.450479 0.0502,-0.397515 0.71878,-2.614964 0.65558,-2.908747 -0.0809,-0.375999 0.93266,-0.595823 1.83945,-0.477359 0.52791,0.069 1.14973,-0.654978 1.56576,-0.821074 0.60157,-0.24017 0.583,-1.544667 0.44553,-1.801251 -0.47457,-0.885853 1.29761,-1.425618 2.10678,-0.757425 0.54065,0.446465 -0.45191,-1.050204 -0.45191,-1.050204 -1e-5,0 -0.60414,-0.403401 -0.85288,-0.299145 -0.28513,0.119499 -0.7278,-0.994887 -0.70015,-1.050204 -0.12742,-0.239845 -0.38449,-0.349349 -0.70013,-0.400986 0.0458,-0.127362 -0.0104,-0.303558 0.29915,-0.299146 0.27803,-0.100157 0.35614,-0.205355 0.40098,-0.305512 0.0453,-0.329047 -0.11334,-0.449383 -0.35006,-0.496461 -0.16695,-0.104026 -0.33588,-0.115976 -0.50282,0.24822 -0.0788,0.417767 -0.2764,0.693462 -0.73197,0.687409 -0.2668,-0.296438 -0.33098,1.02255 -0.46463,0.916548 -0.20327,-0.161246 -1.76338,-0.630189 -1.85854,-0.649217 -0.52662,-0.387124 -1.13043,-0.221445 -1.75035,0.04454 0.0924,-0.864096 -0.45354,-1.543204 -0.91017,-2.081306 0.0697,-0.167916 0.44618,-0.36659 0.15913,-0.668318 -0.73115,-0.261613 -1.11787,-0.815627 -2.35501,-0.655584 -0.0187,0.06566 -0.79865,-0.858785 -0.64922,-1.69941 0.13902,-0.782035 -0.46184,-0.819872 -0.70013,-0.935639 -0.33033,-0.160482 0.0509,-0.719233 0.0509,-0.719233 -0.75126,-0.371368 -1.50191,-0.840447 -2.25317,-0.948362 -0.52973,-0.140315 -0.62719,0.0552 -0.74469,0.235496 -0.18191,0.164633 -0.0788,0.453648 -0.96109,0.31188 -1.11491,-0.357369 -0.84204,0.599995 -1.20296,0.954729 0,-0.221633 -2.09413,-0.233938 -1.45119,0.146389 0.40568,0.239982 -1.26022,-0.519534 -1.85218,-0.445535 -0.0172,0.231817 -0.36818,0.19237 -0.9038,0 0.46122,-1.42246 -0.435,-1.073099 -1.15205,-0.954729 -0.0583,-0.486873 0.68237,-1.659765 -0.29914,-1.349359 l -0.71287,-0.451902 c -0.33259,-0.367291 -0.54485,0.09995 -0.78925,0.350071 -0.31931,0.04286 -0.83657,-0.0713 -0.35006,0.598291 l -0.15276,0.852899 c -0.63293,0.259124 -1.46805,0.471097 -1.20296,0.954729 -1e-5,0 -4.7532,-8.316179 -5.05371,-8.917178 -0.30049,-0.600999 -2.15769,-3.354293 -2.15769,-3.354293 l -1.40027,-2.004932 -4.41085,-3.004211 c 0.23082,0 -0.38091,-0.893589 -0.22278,-1.043847 0.24357,-0.231419 0.86921,0.37808 1.12659,0.140033 0.24604,-0.227561 0.52356,-0.988917 0.40099,-1.050204 0.0484,-0.353521 -0.0591,-0.588432 -0.19732,-0.801973 -0.30489,0.294525 -0.5319,0.639306 -1.05656,0.801973 h -0.99929 v 0.502828 c -0.99738,0.144727 -1.45432,0.525849 -2.05585,0.846521 l -0.54738,-0.197304 c -0.3655,0.03115 -0.60711,0.138914 -0.50282,0.451902 0.12687,0.139677 0.4073,0.267707 0,0.451902 -0.19931,-0.10732 -1.1511,0.983543 -1.15204,0.948372 -0.0127,-0.47232 -1.25388,-0.24823 -1.25388,-0.24823 -0.0843,0.256563 0.0254,0.537235 -0.40098,0.751048 -0.33107,-0.139897 -0.53322,-0.120587 -0.39463,0.350071 -0.16423,-0.09734 0.0207,0.485232 0,0.801973 -0.0323,0.494328 -0.99928,-0.636493 -0.99928,-0.636493 -0.25245,-0.265858 -0.50498,-0.161988 -0.75743,-0.16548 -0.64053,-0.284676 -0.86782,0.04935 -1.25387,0.146389 0,-0.07653 -0.65176,0.984787 -0.70013,0.751058 -0.0916,-0.442252 -0.56693,-0.472393 -0.64922,-0.598302 -0.24289,-0.371577 0.0223,-0.269035 0.14002,-0.649216 0.059,-0.190269 0.30939,-1.366861 1.01201,-0.95473 l 0.35007,0.101831 c 0.009,-0.520016 0.20892,-0.810892 0.45191,-1.050204 -0.2624,0.07747 -0.7829,-0.694225 -0.75105,0.350071 -0.61428,0.14041 -1.19495,-0.02269 -1.89674,-0.05729 l -0.15912,-0.547387 c -0.31633,-0.296364 -0.85654,-0.212045 -1.29843,-0.299145 l -0.40099,0.350071 c 0.75984,0.193949 0.71913,0.463528 0.49646,0.751048 -0.45175,-0.178737 -0.34153,0.01903 -0.40099,0.10183 -0.25427,-0.0021 -0.72032,0.110498 -0.49646,-0.152756 -0.13883,-0.293646 -0.0399,-0.442482 0.0509,-0.598302 0.33116,0.0436 0.008,-0.329172 -0.30552,-0.700132 l 0.15276,-0.350071 c -0.47371,-0.249161 -0.65044,-0.55966 -0.90381,-0.852889 l -0.24823,0.152757 c 0.095,0.333887 -0.14966,0.66539 0.4519,0.999277 -0.0105,0.190154 -0.022,0.376 -0.40099,0.197315 -1.43309,-0.965184 -1.15775,-0.276301 -1.25387,0.05092 -0.0628,0.334127 -0.46958,0.287342 -0.90382,0.203671 -0.27446,-0.679745 -0.68344,-0.552645 -1.14567,-0.152756 -0.2271,0.106462 -0.36217,-0.50426 -0.67468,-0.910181 0,0 0.97072,0.04569 0.77015,-0.241863 -0.35048,-0.502473 0.005,-1.397055 0.19731,-1.654862 -0.29833,-0.154387 -1.10021,-1.110643 -0.94837,-2.202248 0.0504,-0.362053 -0.96192,-1.049179 -0.59829,-1.101119 -0.14639,-0.284153 -0.41623,-0.286233 -0.75106,-0.146399 -0.33616,-0.310301 -1.0803,0.590951 -1.413,0.738334 -0.79646,0.35281 -1.68482,-0.957364 -1.61031,-0.80834 -0.40735,-0.117931 -0.8982,-0.561156 -1.13294,-0.03178 -0.37462,-0.743217 -0.61701,-0.4176 -0.8529,-0.05091 -0.15953,-0.395592 -0.39816,-0.491798 -0.66194,-0.496461 z m 7.96881,4.098973 c 0.0763,0.03952 0.11533,0.03231 0.10183,-0.04454 -0.009,-0.05133 -0.0481,-0.0276 -0.10183,0.04454 z" />
  <text
     id="textTitle"
     class="text title"
     x="157.95792"
     y="578.61676">{{ titleName }}
  </text>
  <text
     id="textValue1975"
     class="text titleValue"
     x="157.95792"
     y="603.18011">{{ titleValue }}
  </text>
  <text
     id="textValue197517"
     class="text value"
     x="283.88013"
     y="363.72943">{{ value('193523') }}</text>
  <text
     id="textValue197517-3"
     class="text value"
     x="317.3541"
     y="408.56873">{{ value('193518') }}</text>
  <text
     id="textValue197517-3-6"
     class="text value"
     x="521.33081"
     y="339.96979">{{ value('193520') }}</text>
  <text
     id="textValue197517-3-6-7"
     class="text value"
     x="145.77667"
     y="421.97089">{{ value('193560') }}</text>
  <text
     id="textValue197517-3-6-5"
     class="text value"
     x="467.51172"
     y="458.84314">{{ value('193544') }}</text>
  <text
     id="textValue197517-3-6-56"
     class="text value"
     x="435.47214"
     y="208.60075">{{ value('193552') }}</text>
  <text
     id="textValue197517-3-6-56-2"
     class="text value"
     x="659.03125"
     y="185.01358">{{ value('193510') }}</text>
  <text
     id="textValue197517-3-6-56-2-9"
     class="text value"
     x="628.81842"
     y="168.01039">{{ value('193524') }}</text>
  <text
     id="textValue197517-3-6-56-2-9-1"
     class="text value"
     x="626.68347"
     y="202.38956">{{ value('193528') }}</text>
  <text
     id="textValue197517-3-6-56-2-9-1-2"
     class="text value"
     x="629.34412"
     y="110.30862">{{ value('193556') }}</text>
  <text
     id="textValue197517-3-6-56-2-9-1-2-7"
     class="text value"
     x="697.44427"
     y="133.83611">{{ value('193540') }}</text>
  <text
     id="textValue197517-3-6-56-2-9-1-2-7-0"
     class="text value"
     x="588.67102"
     y="220.06071">{{ value('193532') }}</text>
  <text
     id="textValue197517-3-6-56-2-9-1-2-7-0-9"
     class="text value"
     x="649.25128"
     y="375.94913">{{ value('193564') }}</text>
  <text
     id="textValue197517-3-6-56-2-9-1-2-7-0-9-3"
     class="text value"
     x="783.27185"
     y="418.43918">{{ value('193516') }}</text>
  <text
     id="textValue197517-3-6-56-2-9-1-2-7-0-9-3-6"
     class="text value"
     x="805.66138"
     y="331.35248">{{ value('193536') }}</text>
  <text
     id="textValue197517-3-6-56-2-9-1-2-7-0-9-3-6-0"
     class="text value"
     x="797.1369"
     y="223.99037">{{ value('193548') }}</text>
</svg>
