<?xml version="1.0" encoding="UTF-8" standalone="no"?>
<svg
   xmlns:dc="http://purl.org/dc/elements/1.1/"
   xmlns:cc="http://creativecommons.org/ns#"
   xmlns:rdf="http://www.w3.org/1999/02/22-rdf-syntax-ns#"
   xmlns:svg="http://www.w3.org/2000/svg"
   xmlns="http://www.w3.org/2000/svg"
   id="svgRepublic"
   preserveAspectRatio="xMidYMid meet"
   viewBox="0 0 950 650"
   version="1.1">
  <metadata
     id="metadata47">
    <rdf:RDF>
      <cc:Work
         rdf:about="">
        <dc:format>image/svg+xml</dc:format>
        <dc:type
           rdf:resource="http://purl.org/dc/dcmitype/StillImage" />
        <dc:title></dc:title>
      </cc:Work>
    </rdf:RDF>
  </metadata>
  <defs
     id="defs45" />
  <!--        <title id="title">{{ $t('republic') }}</title>-->
  <path
     id="region1927"
     class="region"
     v-on:click="onAreaClick('1927')"
     d="m 109.03,193.35 -2.87,1.21 -2.72,-3.76 -2.57,3.76 0.46,5.13 -3.48,1.21 -5.44,4.08 -4.08,0.46 -4.07,5.13 -7.1,-1.51 -3.18,4.83 2.42,1.82 v 4.53 h -5.29 l -8,8.31 -3.93,-2.12 h -2.11 l 4.22,17.83 2.42,1.51 -1.06,4.98 -8.3,4.99 -4.84,-1.36 -13.44,-22.06 -3.17,0.46 -4.69,4.83 -0.45,4.83 1.36,1.06 v 3.02 l -4.53,5.14 -5.14,1.51 -1.06,1.96 v 7.56 h -1.96 v 9.36 l 5.74,4.99 -1.21,5.74 -4.83,3.32 -2.87,8.46 -3.32,9.21 13.89,5.89 6.2,1.97 h 12.23 l 2.27,1.81 8.31,1.66 h 8.45 l 7.86,3.93 6.95,1.96 2.42,-4.38 h 11.17 l 2.72,-6.19 23.27,-15.86 8.3,-1.96 7.56,3.32 -1.36,3.02 9.51,0.45 3.33,2.72 4.83,-0.75 0.45,-6.2 3.48,-1.96 -0.61,-8.01 3.78,-3.02 11.33,1.06 6.19,-6.19 1.36,-9.82 3.63,-4.53 9.06,0.9 6.04,-5.74 -1.66,-12.08 -1.81,-7.56 4.53,-7.85 -3.32,-2.42 2.26,-9.06 -7.7,-3.17 v -3.93 l -5.74,-4.08 -5.29,-1.21 -1.36,-6.8 -7.25,-3.62 -15.91,1.62 -5.92,-9.7 -12.49,4.94 -0.23,4.39 -2.01,0.93 -2.24,-3.12 -1.86,1.86 -4.62,0.33 -1.67,-2.19 3.11,-2.89 -3.23,-2.88 -3.6,1.44 -6.12,-3.95 z"
     style="fill:#00aad4" />
  <path
     id="region1923"
     class="region"
     v-on:click="onAreaClick('1923')"
     d="m 29.09,312.06 13.34,-1.01 2.67,2.04 7.62,1.44 8.56,0.5 14.9,5.96 2.68,-4.4 h 10.9 l 2.89,-6.64 23.04,-15.59 8.64,-2.05 7.2,3.29 -1.44,2.88 10.09,1.03 3.08,2.88 5.15,-1.24 v -6.17 l 3.49,-1.85 -0.61,-8.23 3.9,-3.09 10.91,1.44 6.59,-6.38 8.43,1.65 v 13.79 l 11.73,4.52 3.7,-6.58 5.77,4.11 -0.62,4.12 0.62,10.7 -0.62,7.41 4.73,3.49 -1.44,10.7 -1.65,9.67 v 7.97 l 6.59,10.55 5.35,5.56 18.52,7.2 -0.62,4.53 3.29,4.11 v 4.53 h -5.55 l -8.23,-10.29 h -4.12 l -4.11,-3.91 -4.53,4.94 -11.32,0.62 -5.76,2.45 -13.17,1.66 -4.73,9.26 -4.94,4.53 -7.61,1.23 -1.65,2.88 -4.73,-8.64 2.26,-7.61 3.09,-10.29 -10.08,-16.25 -6.18,-2.89 -4.11,-1.02 -2.47,2.67 -5.97,-0.62 -3.29,3.5 h -11.52 l -4.53,-2.88 -24.9,16.46 -1.85,7 -13.27,1.01 -17,-9.84 -1.4,-3.87 3.24,-3.69 3.24,3.94 3.43,0.51 2.6,-2.54 -8.32,-14.8 -12.19,-20.69 -16.63,-1.66 -1.08,4.26 -4.89,-3.94 0.13,-7.3 -0.13,-4.06 -1.9,-5.08 z"
     style="fill:#00aad4" />
  <path
     id="region1947"
     class="region"
     v-on:click="onAreaClick('1947')"
     d="m 162.06,395.32 7.91,-1.44 5.28,-4.31 4.56,-9.84 12.95,-1.43 5.99,-2.16 11.27,-0.96 4.56,-4.56 4.31,3.84 h 3.6 l 8.87,10.31 h 5.11 l 4.73,17.27 1.44,15.58 -16.07,7.2 v 128.54 l -10.07,2.15 -8.16,-6.47 -6.47,-12.23 0.72,-3.84 -3.12,-4.08 -15.11,-12.47 -23.98,6.72 -5.51,5.04 -8.16,5.75 -2.16,-10.79 2.88,-2.88 4.56,-11.99 -2.88,-8.87 -13.19,-1.68 -2.16,1.68 -6.23,-12.23 -4.08,1.44 h -3.84 l -0.72,-11.99 -9.11,-17.75 -3.84,-9.83 h -5.75 l -4.68,-1.68 -1.32,-7.43 4.32,-2.4 h 10.79 l 3.6,5.03 h 5.03 l 8.88,-1.2 -4.08,-4.55 h -3.84 l -5.99,-11.51 5.03,-2.4 v -6.48 l 3.36,-3.59 h 3.84 l 4.25,-3.84 7.5,2.16 h 11.51 l 7.43,2.88 h 21.11 v 4.31 l -3.12,4.56 -3.84,1.2 -12.23,24.94 1.2,3.6 3.12,-2.64 5.04,-7.44 3.59,-10.79 3.9,-6.47 h 5.22 l 3.35,-4.32 9.6,-1.92 -2.64,-7.91 -6.96,-12.88 -4.79,1.13 -3.12,-1.13 -3.84,2.33 2.4,6.95 -1.44,3.6 -7.91,-2.16 -5.52,-2.64 1.44,-8.08 z"
     style="fill:#00aad4" />
  <path
     id="region1915"
     class="region"
     v-on:click="onAreaClick('1915')"
     d="m 242.64,417.55 -1.47,-15.54 -4.7,-17.18 v -4.6 l -3.27,-4.14 0.5,-4.47 -18.44,-7.13 -5.4,-5.66 -6.63,-10.6 0.13,-8.18 2.99,-20.01 -4.64,-3.55 0.55,-7.64 -0.55,-10.81 0.55,-3.67 -5.71,-4 -3.79,6.37 -11.65,-4.44 v -13.76 l -8.57,-1.67 1.48,-9.64 3.5,-4.6 9.12,0.84 5.77,-5.74 -1.6,-11.82 -1.73,-7.85 4.43,-7.51 3.04,-2.83 0.17,-9.25 -4.08,-4.32 3.91,-1.96 7.31,4.24 15.49,12.7 8.79,-6.84 0.98,-4.56 13.52,-6.51 10.91,-1.31 3.91,6.52 h 8.79 v -7.82 l 9.45,3.58 5.21,-2.28 3.59,2.28 1.62,7.82 6.84,4.56 10.75,1.31 9.45,3.25 3.26,-7.81 4.88,-1.31 3.59,5.87 h 11.72 l 13.68,-5.87 4.89,-18.24 h 5.21 l 0.98,5.21 2.6,1.63 h 4.89 v 5.54 l 5.86,3.58 -5.86,2.28 v 5.87 h 5.86 v 6.18 l 9.78,14.79 v 5.74 h -6.84 l -5.54,10.42 v 12.7 l 9.77,12.38 5.54,-1.3 1.3,3.58 v 4.56 l 14.66,7.17 11.4,21.17 -30.29,24.76 -6.84,-3.26 -8.8,-10.75 -6.51,-10.75 -14.01,2.28 -9.77,25.08 -9.77,-1.3 v 7.82 h -5.87 l -11.4,9.44 -11.73,18.89 -5.86,2.94 1.96,23.77 -11.4,-8.79 -40.72,13.68 z"
     style="fill:#00aad4" />
  <path
     id="region1943"
     class="region"
     v-on:click="onAreaClick('1943')"
     d="M 377.56,344.02 362.04,323 l -13.54,2.71 -10.19,24.68 -9.23,-1.27 v 7.64 l -6.06,0.48 -11.94,10.03 -11.46,18.31 -5.42,3.03 1.28,23.89 20.54,11.46 10.03,7.33 13.53,14.01 23.01,30.89 h 9.24 l 6.84,-1.91 6.37,-1.59 4.46,-1.28 10.99,1.28 10.83,1.59 10.19,-0.64 7.16,-4.62 h 4.3 l 2.07,7.17 9.56,6.53 5.89,16.08 3.18,-1.75 h 2.55 v 20.38 l 2.87,0.64 37.9,-30.1 -4.78,-6.05 5.89,-11.62 3.03,-12.26 -13.06,-11.15 0.79,-27.55 -6.84,-3.98 -0.64,-3.5 3.5,-13.86 -2.86,-6.84 -1.23,-7.33 -33.49,-1.43 -13.85,-9.87 -29.78,-13.7 -15.6,-7.96 -2.23,1.43 -8.28,0.8 7.01,-4.78 z"
     style="fill:#00aad4" />
  <path
     id="region1951"
     class="region"
     v-on:click="onAreaClick('1951')"
     d="m 481.69,389.94 3.18,7.99 -3.49,14.03 0.86,3.41 6.66,4.26 -0.62,27.37 12.85,11.16 -2.77,11.71 -6.2,11.86 4.73,6.12 -37.76,30.22 -3.02,-1.07 -2.32,-0.54 v 14.49 l 11.47,2.79 5.89,25.43 25.04,-1.55 6.51,4.65 v 3.72 l -3.02,4.96 15.35,8.22 -2.02,-11.4 3.64,-2.94 6.98,-11.63 19.3,-14.11 16.75,-10.54 6.66,-10.48 -15.11,-15.34 -5.04,-15.89 -10.08,-2.71 -3.87,-6.59 3.87,-3.1 5.43,-21.32 -2.33,-22.48 -13.95,-40.7 h -42.25 z"
     style="fill:#00aad4" />
  <path
     id="region1931"
     class="region"
     v-on:click="onAreaClick('1931')"
     d="m 525.17,389.94 14.12,40.74 2.26,22.41 -5.59,21.44 -3.73,3.02 3.94,6.48 10.03,2.62 5.06,16.06 15.08,15.27 v -0.67 l 3.44,-8.9 6.85,-7.88 11.64,-1.03 9.93,3.43 13.7,6.85 13.36,3.42 2.05,-20.21 15.41,-6.5 12.33,7.53 4.45,1.03 15.07,5.48 4.11,-4.45 -13.36,-13.7 2.74,-5.14 -8.56,-6.16 5.82,-6.85 1.03,-10.28 -5.82,-6.16 h -5.48 l -5.82,-4.8 v -7.53 l -9.25,-6.85 -2.4,-8.9 h -7.19 l -1.02,-6.51 h 8.21 l -3.08,-10.62 3.08,-13.81 -111.64,1.17 z"
     style="fill:#00aad4" />
  <path
     id="region1919"
     class="region"
     v-on:click="onAreaClick('1919')"
     d="m 634.78,402.45 2.83,10.79 h -8.08 l 1.33,6.27 6.75,0.24 2.35,8.8 9.13,6.93 0.36,7.66 5.61,4.52 5.54,0.18 5.79,6.21 -1.05,10.3 -5.58,6.64 8.2,6.26 -2.62,5.13 13.34,13.64 13.97,1.81 5.94,-0.78 3.88,-2.58 8.01,2.58 13.43,0.78 h 14.47 l 4.91,3.1 11.37,2.07 7.75,9.56 h 5.69 l 9.04,8.53 h 3.36 l -3.36,-13.96 2.59,-7.23 6.2,-1.3 -2.07,-3.1 -0.77,-2.84 2.84,-1.81 5.68,-1.55 v -4.74 l -3.1,-0.68 2.33,-5.43 -8.53,-18.61 0.78,-11.11 -0.78,-11.62 -5.17,-4.97 h -3.61 l -2.07,-5.89 3.87,-3.61 h 7.76 l 6.2,-4.14 17.83,-4.13 5.42,-3.1 6.98,7.23 6.2,-2.58 4.91,2.58 0.78,-8.01 -9.05,-6.98 v -4.13 l -13.69,-23.77 1.29,-3.88 -5.17,1.29 -26.61,-10.85 v -3.62 l -7.5,-1.03 -9.04,3.62 -8.27,-9.31 h -8.79 l -2.06,-2.32 -10.34,-4.91 -2.58,3.62 -3.1,-2.85 -3.62,2.85 -4.91,-1.04 -3.1,2.33 2.32,18.09 -8.26,2.32 -3.88,-3.87 -10.85,1.55 -9.56,-4.14 -14.99,0.78 -10.34,6.46 h -4.65 l -16.54,18.07 z"
     style="fill:#00aad4" />
  <path
     id="region1963"
     class="region"
     v-on:click="onAreaClick('1963')"
     d="m 822.22,403.23 v -3.83 l -13.7,-24.04 1.15,-3.54 -4.59,1.34 -26.92,-11.4 v -3.11 l -7.66,-1.11 -8.72,3.55 -8.71,-9.48 h -8.21 l -2.4,-2.3 -10.34,-4.41 -2.4,3.16 -3.25,-2.58 -3.26,2.58 -5.37,-0.76 -2.77,2.49 -4.7,-1.25 -2.49,3.47 -7.95,-6.25 2.21,-5.94 3.73,-0.76 -0.29,-14.75 2.59,-0.58 4.98,-6.75 -7.85,-4.55 -1.82,-3.16 -2.59,-3.16 0.86,-4.06 7.67,-0.33 2.2,-11.8 -10.73,-0.67 0.29,-5.94 5.46,-0.67 -2.68,-2.58 -7.86,-6.52 -0.77,-5.65 9.97,-2.87 4.12,-4.41 -0.87,-3.07 -0.38,-4.31 2.2,-2.68 11.59,-9.86 16.93,7.47 7.47,-9.39 v -3.74 l -2.1,-1.53 v -9.58 l -10.64,-6.8 -2.1,-4.02 -0.39,-4.98 15.23,-5.37 -1.82,-4.78 8.24,-1.25 0.29,-3.54 5.55,-3.93 16.38,31.99 9.1,-5.36 v -9.01 l 9.77,-3.44 7.09,3.44 -3.45,7.95 7.95,0.77 1.54,6.61 7.66,-1.34 19.35,0.38 2.58,-4.31 4.41,0.96 3.93,-3.35 6.62,0.55 10.17,4.27 8.7,11.32 2.54,10.91 6.73,0.98 8.86,5.01 1.64,8.94 3.36,7.06 14.93,2.46 7.38,-2.46 7.8,-8.78 h 2.46 l 1.48,1.47 0.24,3.86 -3.69,4.27 5,0.32 1.07,4.6 4.18,6.89 h 5.66 l -0.24,4.1 -10.26,-0.25 -2.37,3.78 0.65,9.43 -5.17,8.45 -4.67,0.33 -3.61,2.38 -9.6,0.49 -5.74,12.06 v 2.79 l 1.72,0.82 -0.82,7.63 1.89,1.39 -0.33,8.12 1.56,0.99 -0.74,8.04 -1.97,5.25 -8.2,0.24 -4.19,4.93 -6.48,3.2 -0.57,-5.91 h -11.49 l -3.03,1.31 -8.78,-2.95 -11.15,-6.73 h -4.02 l -2.63,12.55 -3.45,12.14 -5.74,13.05 -4.92,21.74 z"
     style="fill:#00aad4" />
  <path
     id="region1955"
     class="region"
     v-on:click="onAreaClick('1955')"
     d="m 692.82,98.43 -5.01,-2.13 -0.32,3.36 -12.64,6.07 -4.02,-0.65 -1.88,1.64 0.74,3.44 -8.04,5.5 -6.16,-0.58 -3.93,6.32 -3.78,-1.48 -1.8,2.88 2.46,1.23 -3.04,4.43 -2.46,-4.68 h -2.05 l -2.21,1.23 -1.3,-3.44 -2.36,-0.5 -2.7,2.71 -2.62,-1.31 -3,4.57 -1.39,4.02 2.73,2.2 -1.81,1.52 -2.84,-1.66 -0.71,5.67 h 3.55 l 3.47,-2.13 2.62,1.42 -4.67,5.5 v 6.74 h 3.01 l 6.72,-3.58 -0.42,4.13 -2.7,2.54 v 4.72 l 2.7,2.7 1.18,20.17 v 2.36 l -5.82,2.96 v 5.4 l 9.03,1.43 1.18,2.45 -9.28,2.87 -3.55,4.56 7.51,3.88 0.42,10.38 -2.61,3.63 v 6.41 l 12.4,-1.52 3.72,1.52 -1.02,2.62 4.14,1.01 3.63,2.7 0.34,3.63 4.05,3.29 -8.02,5.32 3.97,3.46 10.21,-7.09 5.99,-0.93 9.87,-1.77 3.88,1.77 2.7,-4.05 h 3.38 l 2.62,2.28 3.28,-11.73 7.17,-1.78 3.55,3.89 h 4.39 l 2.02,2.11 2.79,1.6 -1.52,5.91 3.54,1.26 16.8,7.18 7.51,-9.79 v -3.29 l -1.94,-2.03 -0.43,-9.11 -10.71,-7.01 -1.78,-3.96 -0.33,-4.65 15.19,-5.65 -1.69,-4.81 7.93,-1.1 0.42,-3.46 5.49,-4.13 -18.22,-32.24 -14.69,-22.61 -31.81,-25.07 -0.84,-4.64 5.82,0.34 4.22,-10.3 z"
     style="fill:#00aad4" />
  <path
     id="region1935"
     class="region"
     v-on:click="onAreaClick('1935')"
     d="m 416.31,307.12 -1.19,-2.29 v -2.19 l 5.97,-1.29 -1.79,-5.68 6.27,-0.39 v -9.16 l 17.31,4.38 5.97,-2.29 0.9,-3.98 h 7.46 l 16.79,-20.84 18.08,-17.48 -1.96,-1.45 0.34,-3.49 12.1,-6.74 -4.77,-4.86 0.34,-3.41 4.43,1.28 8.61,-6.14 h 5.71 l 0.94,8.27 -2.81,11.09 8.68,3.15 9.21,-7.84 3.24,6.48 5.71,-1.28 h 6.82 l -0.51,7.33 9.55,-3.58 -0.86,-4.26 3.41,-1.45 2.31,1.7 1.79,-8.52 h 4.6 l 0.43,-2.82 12.85,-8.27 4.1,4.52 -0.26,6.14 8.7,2.47 0.85,-4.52 2.39,-1.19 1.19,1.45 2.05,0.34 v -6.48 h 3.92 l 4.26,-6.14 1.96,1.2 6.14,-1.2 0.34,-3.49 h 4.8 l 4.24,-3.16 -1.45,-3.07 -3.75,0.94 -3.84,-2.64 v -2.81 l 11.93,-0.34 7.34,3.49 0.85,10.23 -2.9,3.75 0.6,6.4 12.19,-1.37 3.07,1.62 -0.69,2.73 4.19,1.11 3.41,2.47 0.34,3.92 4.01,3.24 -7.76,5.46 4.01,3.19 9.97,-6.94 16.2,-2.9 3.5,1.87 2.81,-3.92 h 3.67 l 2.38,1.79 3.33,-11.42 7.24,-1.88 3.33,4.01 h 4.43 l 2.05,1.96 2.81,1.88 -1.53,5.71 3.15,0.94 -13.47,12.87 0.17,4.6 0.94,2.39 -4.35,4.6 -9.77,2.9 0.65,5.46 10.66,9.29 -5.12,0.68 -0.51,6.14 10.74,0.34 -2.3,11.85 -7.67,0.6 -0.77,3.75 2.22,3.41 2.21,3.07 8.02,4.52 -5.12,6.73 -2.9,0.51 0.43,15.01 -3.75,0.68 -2.39,5.71 8.19,6.31 2.55,-3.33 4.44,1.2 2.13,17.73 -8.53,2.3 -3.41,-3.92 -10.91,1.62 -9.55,-4.35 -15.07,0.94 -10.25,6.57 -4.55,-0.08 -17.05,18.21 -155.74,0.79 -1.69,-5.85 -32.73,-1.12 -14.07,-10.02 -45.89,-21.48 -1.69,1.24 -7.87,0.56 6.52,-4.61 30.23,-25.28 -5.06,-9.99 z"
     style="fill:#00aad4" />
  <path
     id="region1939"
     class="region"
     v-on:click="onAreaClick('1939')"
     d="m 355.39,201.58 h 4.99 l 1.32,5.43 2.62,1.57 h 4.56 v 5.26 l 6.13,4.03 -6.13,1.75 v 6.3 h 5.86 v 6.04 l 9.81,14.72 -0.26,5.86 h -6.84 l -5.42,10.6 v 12.35 l 9.98,12.34 5.52,-1.05 1.14,3.5 v 4.82 l 14.72,7.09 6.14,10.86 6.65,-5.69 -0.87,-2.72 v -2.1 l 5.95,-1.49 -1.75,-5.6 6.04,-0.35 0.35,-9.02 17.17,4.2 5.69,-2.19 1.4,-3.76 h 6.82 l 34.86,-38.62 -1.66,-1.84 0.26,-3.15 11.82,-6.74 -4.38,-4.29 -17.77,6.48 -4.29,-4.47 3.15,-2.54 -1.31,-2.97 -4.38,-0.44 -0.62,1.57 -4.99,-0.43 -2.01,-1.84 -4.2,-0.88 -0.71,-4.55 h -1.67 l -1.22,2.19 h -1.49 l -1.31,-6.04 -2.54,-0.71 -2.97,5.43 h -4.73 l -0.35,-9.89 -3.68,-7.79 2.28,-1.49 -0.79,-2.63 1.93,-7.97 h -4.73 v -3.76 l 4.2,-0.27 6.48,-5.34 4.02,-9.02 v -15.41 l 2.46,-9.19 4.11,0.7 v -2.72 l -5.16,-1.84 v -2.01 l 7.88,-1.05 v -2.01 l -3.5,-1.93 V 126.1 l -3.6,-0.26 v -4.47 l 1.14,-1.05 0.35,-3.94 h -2.45 l -0.35,-4.38 -2.28,-1.14 0.35,-1.92 5.08,-2.02 1.22,-3.5 -3.41,-2.72 3.06,-2.62 -2.1,-2.45 -1.92,-8.76 -0.88,-1.84 -3.5,-0.44 -1.32,3.24 -6.48,-1.22 v 2.62 l -6.48,0.53 0.53,6.48 -2.45,1.57 -3.94,-3.76 -11.56,4.03 -9.9,-0.27 v 3.94 l -1.83,0.71 -3.86,-2.02 -25.94,5.96 -4.46,1.22 h -9.55 l -3.06,1.58 h -6.74 l -1.76,-2.8 h -4.2 l -4.03,3.15 -2.93,2.45 4.86,3.68 -7.97,5.69 9.63,2.1 -2.54,6.57 1.23,4.46 10.77,1.06 9.2,3.76 v 5.08 l -2.46,1.05 -2.01,-1.05 -5.78,1.05 -2.8,-1.84 h -7.8 l -7.44,7.71 h -3.94 l 0.44,5.16 2.28,3.42 3.76,2.1 1.66,5.08 -8.14,6.39 h -5.43 l -1.84,3.68 -7.26,2.63 -0.53,2.36 4.47,0.96 6.65,4.12 -3.33,3.85 12.22,0.79 2.1,6.13 5.69,1.14 5.17,0.44 2.8,3.94 z"
     style="fill:#00aad4" />
  <path
     id="region1959"
     class="region"
     v-on:click="onAreaClick('1959')"
     d="m 456.95,95.28 2.39,2.86 -3.09,2.55 3.09,2.77 -1.08,3.47 -5.09,1.85 -0.31,1.93 2.08,1.31 0.47,4.01 2.31,0.31 -0.23,3.7 -1.08,1.46 v 4.32 l 3.31,0.39 v 10.02 l 3.63,2.39 v 2.23 l -7.64,0.85 0.17,2.01 4.92,1.85 v 2.54 l -4.16,-0.31 -2.39,8.64 -0.31,7.02 5.78,4.24 1.39,-1.62 h 5.71 l 0.23,2.77 h 3.31 l 12.88,2.93 0.93,-7.78 h 5.47 l 3.32,2.46 3.39,2.39 3.86,-2.39 0.54,-4.01 v -2.23 l 3.93,-1.62 7.48,-7.1 3.77,-0.38 -2.54,-5.55 5.24,-2.7 -2.23,-5.71 -0.47,-2.23 -3.16,-0.93 -1.46,-3.16 0.23,-3.47 3.08,-2.54 h 2.55 v -3.93 l 2.77,0.23 3.01,1.08 1.7,-2.47 5.29,6.09 3.08,-4.09 8.4,-0.23 0.54,4.32 4.63,-0.39 0.93,2.7 -2.39,1.7 -0.24,2.16 5.94,0.31 1.77,3.7 3.78,0.23 2.7,-6.4 9.65,-0.23 0.68,2.7 5.86,0.84 4.25,-3.54 4.67,7.55 -1.31,6.79 3.16,2.93 10.56,0.23 2.49,-3.16 11.93,-0.62 0.62,9.64 5.55,0.31 5.24,1.15 4.01,3.32 h 7.86 l 0.23,-4.47 2.55,-2.47 0.23,-3.93 -6.55,3.47 -3.09,-0.23 0.23,-6.79 4.24,-5.24 -2.54,-1.31 -3.39,2.16 -3.09,-0.31 v -5.48 l 3.09,1.55 1.69,-1.78 -2.31,-2.08 -6.78,-6.01 0.23,-3.09 5.09,-8.01 h 5.86 l 1.46,-5.79 -3.55,-1.46 -8.4,3.93 -3.78,-0.62 -3.54,-4.35 -6.69,-0.97 -2.77,9.26 -3.63,-1.7 1.7,-8.56 -1.7,-3.17 -7.15,-5.01 -2.48,5.01 -3.94,1.03 -0.43,4.11 -4.45,0.13 -1.12,-2.79 -3.94,0.35 -2.18,2.74 -3.68,-3.3 1.11,-3.9 2.1,-4.62 V 88.6 l 2.65,-1.07 -0.64,-2.94 h -4.28 l -2.57,-7.13 0.64,-6.85 -4.92,-7.49 -7.71,1.28 -6.17,4.5 -6.68,-2.79 v -2.99 l -3.64,-2.14 -7.92,-1.07 -2.79,1.71 -7.06,-3.64 -4.93,3.64 -2.78,5.14 -10.71,0.85 3.86,4.5 -5.57,4.07 -2.57,-1.71 h -2.79 l -0.85,3.85 h -11.78 l -5.99,3.64 h -6.21 l -15.64,5.57 z"
     style="fill:#00aad4" />
  <path
     id="region1911"
     class="region"
     v-on:click="onAreaClick('1911')"
     d="m 454.23,172.42 -4.23,8.97 -6.46,5.47 h -4.22 v 3.77 h 4.49 l -1.71,8.19 0.9,2.57 -2.06,1.35 3.41,8.07 0.36,9.68 h 4.84 l 3.31,-5.56 2.16,1.08 1.25,5.56 h 1.53 l 1.17,-2.06 1.79,0.54 0.47,4.12 4.46,0.81 2.06,2.06 h 4.77 l 0.9,-1.34 4.31,0.53 1.25,3.14 -3.23,2.25 4.49,4.39 17.58,-6.64 0.35,-3.49 4.58,1.16 8.61,-5.92 h 5.56 l 0.81,8.25 -2.69,10.95 8.87,3.13 9.16,-7.44 3.22,6.37 5.66,-1.26 h 6.82 l -0.44,7 9.32,-3.59 -0.8,-3.86 3.4,-1.88 2.52,1.88 1.52,-8.52 h 4.75 l 0.45,-2.78 12.92,-8.25 3.94,4.76 v 5.91 l 8.61,2.34 0.9,-4.76 2.24,-0.89 0.99,1.43 2.42,0.27 v -6.28 l 3.86,-0.36 4.03,-6.09 2.16,1.34 6,-1.08 0.27,-3.49 h 5.2 l 3.95,-3.23 -1.52,-2.96 -3.86,0.72 -3.5,-2.69 v -2.7 l 12.02,-0.24 3.41,-4.69 8.88,-3.14 -1.17,-2.06 -8.61,-1.7 0.27,-5.3 5.29,-2.96 -1.52,-22.87 -2.87,-2.78 h -7.36 l -4.21,-3.31 -5.2,-1.08 -5.47,-0.45 -0.63,-9.59 -11.84,0.62 -2.69,2.87 h -10.67 l -2.87,-2.87 1.16,-6.72 -4.57,-7.36 -4.4,3.23 -5.56,-0.9 -0.72,-2.33 h -9.59 l -2.96,6.46 -3.68,-0.54 -1.97,-3.59 -5.48,-0.35 v -1.98 l 2.33,-1.97 -0.99,-2.24 h -4.48 l -0.72,-3.77 h -8.16 l -3.14,3.77 -5.38,-5.92 -1.8,2.51 -2.78,-0.9 -2.78,-0.54 -0.27,4.13 h -2.42 l -3.14,2.69 v 3.41 l 1.44,3.14 2.96,0.98 2.78,7.81 -5.2,2.42 2.42,5.56 -3.5,0.72 -7.53,7.35 -4.04,1.26 -0.54,6.54 -3.67,1.98 -7,-4.85 h -5.29 l -0.99,7.63 -13.27,-2.78 h -2.78 l -0.63,-2.52 h -5.29 l -1.7,1.44 -5.3,-3.77 z"
     style="fill:#00aad4" />
  <path
     id="region1971"
     class="city"
     v-on:click="onAreaClick('1971')"
     d="m 589.57564,209.85577 c 0,5.78 -4.96,10.48 -11.05,10.48 -6.1,0 -11.05,-4.7 -11.05,-10.48 0,-5.78 4.95,-10.48 11.05,-10.48 6.09,0 11.05,4.7 11.05,10.48 z"
     style="fill:#ffffff" />
  <path
     id="region1975"
     class="city"
     v-on:click="onAreaClick('1975')"
     d="m 720.41,482.02 c 0,5.78 -4.95,10.48 -11.04,10.48 -6.1,0 -11.05,-4.7 -11.05,-10.48 0,-5.79 4.95,-10.48 11.05,-10.48 6.09,0 11.04,4.69 11.04,10.48 z"
     style="fill:#ffffff" />
  <path
     id="region1979"
     class="city"
     v-on:click="onAreaClick('1979')"
     d="m 545.99231,523.63717 c 0,5.78 -4.96,10.48 -11.05,10.48 -6.1,0 -11.05,-4.7 -11.05,-10.48 0,-5.78 4.95,-10.48 11.05,-10.48 6.09,0 11.05,4.7 11.05,10.48 z"
     style="fill:#ffffff" />
  <path
     id="region1970"
     class="region"
     v-on:click="onAreaClick('1970')"
     d="m 780.6981,17.286017 c -1.98645,0.01032 -3.97519,0.06288 -5.95624,0.0225 -2.65989,-0.01609 -5.68225,1.045988 -6.6485,3.769278 -1.53051,4.039448 -2.64124,8.254109 -3.31361,12.525872 0.15376,3.273253 -0.38915,6.616877 0.32172,9.839427 0.49506,2.257006 1.93395,4.64579 4.48909,4.793283 0.43826,1.027811 0.87616,2.055456 1.31443,3.083274 -5.13726,1.686595 -9.62344,4.899858 -13.31829,8.799149 v 3.219724 h 3.47134 c 1.59007,-2.742883 3.9365,-4.975361 6.46824,-6.848795 4.84088,-3.843762 11.17296,-4.86335 17.17519,-5.141287 1.82724,-0.228688 0.86121,0.189551 -0.22283,0.712296 -4.60212,2.313325 -7.85851,6.590297 -9.79061,11.277786 h 4.43902 c 1.87495,0.06057 1.51969,-3.197605 2.89924,-4.261251 2.60305,-4.474503 7.49517,-7.195922 12.57845,-7.669999 5.44491,-0.197224 10.90235,-0.08021 16.35273,-0.147711 0.88687,-0.02346 2.13763,0.314727 1.72379,-1.003975 -1.11357,0.0026 -2.22758,0.0051 -3.34115,0.0075 -1.23061,0.536524 -1.58996,-0.949579 -0.66598,-1.452133 0.22117,-1.116498 0.056,-2.295585 0.12017,-3.440041 -0.1427,-1.122805 0.59569,-3.093266 -1.14542,-3.142112 -4.08069,-0.636383 -8.55905,-1.729384 -11.12883,-5.261464 -2.9299,-4.267094 -3.81942,-9.479129 -5.16758,-14.386095 -0.32049,-2.482841 -2.12928,-4.751596 -4.71316,-5.061177 -1.9704,-0.211619 -3.95477,-0.244441 -5.94121,-0.23409 z m -1.94285,1.291891 c 1.01549,0.01314 2.03963,0.771186 1.99418,1.945356 0.005,3.352623 -5.46202,1.69603 -3.58026,-1.094104 0.3708,-0.59892 0.97678,-0.859148 1.58608,-0.851252 z m -9.79186,5.222662 h 8.99444 c -0.18483,2.026774 -0.36848,4.053394 -0.55331,6.080168 h -10.11233 z m 10.43405,0 h 8.96064 l 0.49823,6.080168 h -10.06476 z m 14.27343,10.646866 c 1.39541,3.545139 4.26858,6.608615 8.04931,7.548566 1.57606,0.997418 4.7417,0.393614 5.4555,1.7363 0.67662,2.312961 -1.84056,1.390943 -3.32613,1.343218 -3.64583,-0.318047 -7.34477,-1.393564 -10.17868,-3.799326 z m -24.05277,3.719199 c 1.18478,0.01532 2.37924,0.898861 2.32591,2.269582 0.006,3.910625 -6.37393,1.978287 -4.17737,-1.275625 0.43285,-0.699355 1.14059,-1.003135 1.85146,-0.993957 z m 17.03624,0.01878 c 1.18477,0.01532 2.37923,0.898861 2.3259,2.269575 0.006,3.910632 -6.37393,1.978293 -4.17737,-1.275618 0.43285,-0.699355 1.1406,-1.003135 1.85147,-0.993957 z"
     style="fill:#00aad4" />
  <path
     id="region1972"
     class="region"
     v-on:click="onAreaClick('1972')"
     d="m 890.03904,8.733063 c -0.46359,0.0026 -0.88176,0.356509 -1.3076,1.088174 -0.29576,0.508181 -1.22264,1.596127 -2.22559,2.610712 -0.94577,0.956743 -2.0235,2.075699 -2.39129,2.489804 -1.64113,1.847826 -3.1128,3.338976 -3.82427,3.869058 -1.12263,0.836397 -1.90086,1.629203 -2.1853,2.230069 -0.13736,0.290191 -0.37394,0.6828 -0.52393,0.868743 l -0.27316,0.335856 -0.30003,-0.506026 c -0.16533,-0.280212 -0.56176,-0.675423 -0.88219,-0.877693 -0.32041,-0.20227 -0.58364,-0.416559 -0.58662,-0.474683 -0.003,-0.05812 -0.29316,-0.333527 -0.64484,-0.609008 l -0.64036,-0.497068 v -1.09265 c 0,-0.883619 0.0542,-1.151486 0.28659,-1.419539 0.18826,-0.217058 0.2866,-0.533246 0.2866,-0.926963 0,-0.831333 -0.72673,-1.721036 -2.21664,-2.722662 -1.40042,-0.941462 -1.97738,-1.016818 -3.41228,-0.425421 -0.98786,0.407142 -1.37927,0.7903 -1.88528,1.853919 -0.41735,0.87728 -0.62889,2.937689 -0.38063,3.689928 0.16941,0.513342 1.00106,1.110559 1.54493,1.110559 0.24417,0 1.05634,0.99083 1.03891,1.267296 -0.0214,0.33838 -1.05352,1.212107 -1.70614,1.441932 -0.41019,0.144453 -0.88659,0.398236 -1.05682,0.564239 -0.17023,0.166002 -0.5508,0.505604 -0.84636,0.752318 -0.29555,0.246696 -0.53737,0.527497 -0.53737,0.626926 0,0.09943 -0.12132,0.335971 -0.26868,0.523927 -0.14736,0.187966 -0.31798,0.566033 -0.37615,0.841883 -0.0582,0.275851 -0.21983,0.695003 -0.36273,0.931439 -0.15311,0.253317 -0.32205,0.959627 -0.4075,1.719577 -0.0797,0.709325 -0.24372,1.529553 -0.3672,1.822575 -0.72601,1.722671 0.3167,3.756677 2.14051,4.169068 0.79168,0.179015 0.86096,0.224435 0.90009,0.613501 0.0356,0.353783 -0.0246,0.446074 -0.38511,0.582148 -0.49279,0.186005 -1.01574,0.953296 -1.01652,1.491194 -3e-4,0.201672 -0.0985,0.491854 -0.21495,0.644844 -0.17037,0.223837 -0.18991,0.571466 -0.11643,1.782273 0.0502,0.827543 0.17527,1.713808 0.28212,1.970352 0.23911,0.574086 1.24538,1.325498 1.77331,1.325498 0.21497,0 0.44867,0.08062 0.52394,0.179121 0.55335,0.724333 0.87778,7.424555 0.42093,8.705364 -0.1498,0.419979 -0.2315,1.129339 -0.23285,2.028564 v 1.379244 l 0.64484,0.783663 c 0.55379,0.672697 0.64484,0.87626 0.64484,1.432981 0,1.196229 -0.13666,1.510273 -0.9001,2.118129 -0.44902,0.357511 -0.8648,0.568705 -1.11503,0.568705 -0.62773,0 -0.84352,0.140743 -1.14639,0.7344 -0.29534,0.578913 -0.4248,0.638075 -1.61658,0.747844 -0.92396,0.08511 -1.52702,0.634874 -1.52702,1.392678 0,0.571334 0.18578,0.798987 0.81501,0.998611 0.22178,0.07034 0.85441,0.101565 1.40611,0.06717 0.97192,-0.06058 3.58088,-0.08537 10.74736,-0.09852 6.49149,-0.01187 11.65427,-0.203694 11.94299,-0.443322 0.25414,-0.210912 0.13645,-1.33684 -0.17016,-1.643454 -0.14463,-0.144629 -0.59585,-0.245395 -1.3076,-0.29107 -0.59832,-0.03833 -1.13093,-0.140356 -1.18668,-0.228382 -0.0557,-0.08804 -0.11227,-0.451393 -0.1209,-0.806056 -0.009,-0.354662 -0.12182,-0.853277 -0.25526,-1.110559 -0.25564,-0.492883 -0.51239,-1.701931 -0.88666,-4.191471 -0.20399,-1.356965 -0.4706,-2.156981 -1.14637,-3.439152 -0.78919,-1.497349 -1.06884,-2.209786 -1.20013,-3.03165 -0.0831,-0.520015 -0.25516,-1.19091 -0.38063,-1.491202 -0.14268,-0.341466 -0.25418,-1.166882 -0.30003,-2.203201 -0.0518,-1.169431 -0.1517,-1.825547 -0.33587,-2.230078 -0.70364,-1.545608 -0.7273,-1.643543 -0.51497,-2.274856 0.21583,-0.641688 0.0991,-1.760916 -0.27316,-2.597278 -0.32304,-0.725819 -0.38491,-1.073563 -0.42542,-2.350986 -0.0214,-0.677604 -0.0746,-2.005274 -0.11643,-2.951044 -0.0418,-0.94577 -0.0415,-1.864663 0,-2.041999 0.0763,-0.325833 0.52383,-0.444614 0.68515,-0.183595 0.15834,0.2562 1.29224,0.945075 1.98826,1.209074 0.58167,0.220628 0.78613,0.2391 1.24043,0.102999 0.73244,-0.219458 1.37751,-0.978002 1.49566,-1.759888 0.0516,-0.341325 0.19691,-1.080051 0.32243,-1.638962 0.21907,-0.975496 0.21742,-1.054457 -0.0717,-2.006179 -0.21013,-0.69182 -0.31086,-1.433755 -0.32689,-2.453977 -0.0211,-1.340542 0.01,-1.513648 0.35377,-2.100219 0.2062,-0.351858 0.37615,-0.860083 0.37615,-1.128469 0,-0.268386 0.0449,-0.537502 0.103,-0.595582 0.0581,-0.05812 0.17885,-0.541591 0.26868,-1.074741 0.20015,-1.18778 0.61502,-1.83222 2.73162,-4.258642 0.35328,-0.40498 0.74704,-0.888604 0.87323,-1.074732 0.12619,-0.186128 0.41816,-0.559517 0.64932,-0.82844 0.36079,-0.419741 0.40889,-0.577216 0.34928,-1.106084 -0.0615,-0.545433 -0.0113,-0.674667 0.41646,-1.155346 0.57435,-0.645302 0.6082,-0.993563 0.1254,-1.213549 -0.16638,-0.07579 -0.32463,-0.112943 -0.47916,-0.111958 z M 874.3882,42.51112 c 0.0832,-0.01055 0.18302,0.323988 0.29108,1.003086 0.0969,0.608955 0.29773,1.308143 0.4478,1.553881 0.15007,0.245747 0.27315,0.562612 0.27315,0.703056 0,0.140454 0.15393,0.58323 0.34482,0.985176 0.4058,0.85443 1.23148,3.413348 1.23148,3.819787 0,0.154028 0.12896,0.520912 0.28659,0.815015 0.15762,0.294103 0.2866,0.637652 0.2866,0.765752 0,0.128092 0.16121,0.47092 0.35824,0.761269 0.19703,0.290349 0.35825,0.580364 0.35825,0.640361 0,0.05996 0.1612,0.32404 0.35825,0.591107 0.19702,0.267067 0.35824,0.60062 0.35824,0.738884 0,0.138255 0.15692,0.419363 0.34929,0.626926 0.19236,0.207572 0.65584,1.002391 1.02995,1.764363 0.63415,1.291641 0.68126,1.461292 0.68962,2.530107 l 0.009,1.146378 -4.03922,0.04036 c -2.95238,0.02778 -4.06686,-0.0079 -4.14221,-0.129868 -0.0567,-0.09172 -0.13177,-1.090205 -0.17016,-2.221119 -0.0693,-2.04053 -0.0706,-2.06047 0.30451,-2.601753 0.4605,-0.664512 0.47951,-1.172499 0.094,-2.825669 -0.30322,-1.300415 -0.35646,-2.825915 -0.13882,-4.012342 0.0723,-0.394068 0.20419,-1.232364 0.29108,-1.862877 0.0869,-0.630505 0.32208,-1.688532 0.52392,-2.350987 0.20185,-0.662446 0.39558,-1.482806 0.43438,-1.82705 0.0481,-0.426626 0.10547,-0.645565 0.17017,-0.653795 z"
     style="fill:#00aad4" />
  <text
     class="text title"
     x="172.37131"
     y="76.436592"
     id="textTitle">{{ $t('republic') }}
    </text>
  <text
     class="text title"
     x="774.17017"
     y="77.988319"
     id="textTitleTransport">{{ $t('republic') }}
    </text>
  <text
     class="text title"
     x="870.17017"
     y="77.988319"
     id="textTitleArmy">{{ $t('republic') }}</text>
  <text
     class="text titleValue"
     x="172.37131"
     y="101"
     id="textValue19">{{ value('19') }}
    </text>
  <text
     class="text value"
     x="514.14215"
     y="470.23099"
     id="textValue1951">{{ value('1951') }}
    </text>
  <text
     class="text value"
     x="533.35986"
     y="505.57434"
     id="textValue1979">{{ value('1979') }}
    </text>
  <text
     class="text value"
     x="578.29663"
     y="437.22375"
     id="textValue1931">{{ value('1931') }}
    </text>
  <text
     class="text value"
     x="708.44604"
     y="463.32721"
     id="textValue1975">{{ value('1975') }}
    </text>
  <text
     class="text value"
     x="718.62421"
     y="409.01685"
     id="textValue1919">{{ value('1919') }}
    </text>
  <text
     class="text value"
     x="809.2851"
     y="297.00537"
     id="textValue1963">{{ value('1963') }}
    </text>
  <text
     class="text value"
     x="681.56097"
     y="183.82147"
     id="textValue1955">{{ value('1955') }}
    </text>
  <text
     class="text value"
     x="577.50354"
     y="193.3387"
     id="textValue1971">{{ value('1971') }}
    </text>
  <text
     class="text value"
     x="543.15869"
     y="172.45364"
     id="textValue1911">{{ value('1911') }}
    </text>
  <text
     class="text value"
     x="510.80084"
     y="103.56235"
     id="textValue1959">{{ value('1959') }}
    </text>
  <text
     class="text value"
     x="398.56674"
     y="184.94789"
     id="textValue1939">{{ value('1939') }}
    </text>
  <text
     class="text value"
     x="556.45752"
     y="315.98813"
     id="textValue1935">{{ value('1935') }}
    </text>
  <text
     class="text value"
     x="389.52075"
     y="415.88467"
     id="textValue1943">{{ value('1943') }}
    </text>
  <text
     class="text value"
     x="283.34259"
     y="298.18927"
     id="textValue1915">{{ value('1915') }}
    </text>
  <text
     class="text value"
     x="115.17018"
     y="253.27548"
     id="textValue1927">{{ value('1927') }}
    </text>
  <text
     class="text value"
     x="129.27362"
     y="334.33295"
     id="textValue1923">{{ value('1923') }}
    </text>
  <text
     class="text value"
     x="166.82535"
     y="480.37894"
     id="textValue1947">{{ value('1947') }}
    </text>
  <text
     class="text virtualValue"
     x="868.55798"
     y="97.226059"
     id="textValue1972">{{ value('1972') }}
    </text>
  <text
     class="text virtualValue"
     x="774.17017"
     y="98.5336"
     id="textValue1970">{{ value('1970') }}
    </text>
</svg>
