<?xml version="1.0" encoding="UTF-8" standalone="no"?>
<svg
   xmlns:dc="http://purl.org/dc/elements/1.1/"
   xmlns:cc="http://creativecommons.org/ns#"
   xmlns:rdf="http://www.w3.org/1999/02/22-rdf-syntax-ns#"
   xmlns:svg="http://www.w3.org/2000/svg"
   xmlns="http://www.w3.org/2000/svg"
   id="svgRepublic"
   preserveAspectRatio="xMidYMid meet"
   viewBox="0 0 950 650"
   version="1.1">
  <metadata
     id="metadata47">
    <rdf:RDF>
      <cc:Work
         rdf:about="">
        <dc:format>image/svg+xml</dc:format>
        <dc:type
           rdf:resource="http://purl.org/dc/dcmitype/StillImage" />
        <dc:title></dc:title>
      </cc:Work>
    </rdf:RDF>
  </metadata>
  <defs
     id="defs45" />
  <!--        <title id="title">{{ $t('republic') }}</title>-->
  <!-- РЕСПУБЛИКА -->
  <path
     id="republic"
     class="region"
     d="m 122.17233,32.860886 c -0.15828,-0.0031 -0.32616,0.02614 -0.4901,0.04454 0.15994,0.26477 0.31417,0.527616 0.19731,0.700132 -0.29879,-0.399397 -0.6073,-0.687639 -0.99929,-0.24823 l -0.1973,0.700132 c -0.56361,0.06012 -1.5007,-0.388713 -1.60395,0.299156 -10e-6,0 0.84788,-0.04977 0.54738,0.400986 -0.30049,0.450742 -0.80197,0.700133 -0.80197,0.700133 -0.0387,-0.08709 -1.27351,-0.555897 -1.29844,0.305512 -0.004,0.160796 -0.91119,-0.419397 -1.50847,0.146389 -0.35392,0.335268 -1.71842,0.450491 -1.84581,0.553743 -0.95772,0.235423 -1.82522,0.189119 -2.90875,0.801974 -0.23211,-1.045029 -0.74757,-0.339272 -1.20296,0 -0.61387,-0.244969 -1.12487,-0.06754 -1.59758,0.299156 -0.25012,0.400662 -0.12328,0.802286 0.0445,1.202959 l -0.59829,0.101831 c -0.33079,-0.586216 -0.73449,-0.749113 -1.25388,-0.203672 -0.75815,0.05541 -1.56638,0.103504 -2.10041,0.203672 -0.22199,0.09106 -0.89554,-0.148836 -0.35006,0.49646 l -0.8529,0.203682 c -0.0456,-0.690555 -0.88224,-0.310666 -1.55302,-0.152756 -0.42699,0.09169 -0.79927,0.230781 -0.8529,0.649217 l -1.247509,-0.09545 c -0.355017,-0.263725 -1.497516,0.559326 -0.751058,1.298434 0.33763,0.334305 -0.865623,-0.751058 -0.865623,-0.751058 -0.465378,0.05363 -1.056853,-0.534391 -1.393908,0.203671 l -0.795606,-0.05092 c -0.512718,-0.436303 -0.766416,-0.07862 -1.107485,0 -0.243359,-0.124946 -0.342544,-0.279783 -0.350072,-0.451902 l -0.598301,0.451902 c -0.278947,0.12456 -1.137711,0.04057 -0.203672,0.598302 l 0.426444,0.140022 c -0.110999,0.0094 -0.367123,0.576513 -0.572833,0.814707 -0.294619,0.341143 -0.751058,-0.10183 -0.751058,-0.10183 0.209411,0.272903 0.316448,0.750315 0.789239,0.49646 0.02018,-0.114533 0.134084,0.60401 0.464636,0.356428 0.381185,-0.285481 1.470228,-0.272412 1.400275,-0.05092 -0.06712,0.120774 -0.124622,0.396397 -0.350072,0.547376 -0.445388,0.285418 -0.661177,-0.0073 -0.929271,-0.16548 -0.195402,0.149024 -0.395237,0.289359 -0.222763,0.668307 0,0 -0.241413,0.659755 0.400987,0.553743 0.296595,-0.04893 0.774163,0.09911 1.183859,0.362795 0.365189,0.235057 0.770148,0.184581 0.770148,0.184581 0.350584,0.05457 0.69962,0.115453 1.050204,0.400986 -0.05583,0.239187 0.0162,0.539765 -0.299146,0.649217 l -1.406631,-0.09545 c -0.08186,-0.143326 -1.225731,-0.331671 -1.20296,0.1464 0.01192,0.250133 -0.668318,-0.413721 -0.668318,-0.413721 -0.500831,0.500831 -1.174878,1.290624 -1.502105,1.502106 -0.144466,0.122886 -0.267729,0.253415 -0.133666,0.515561 0.221016,0.215956 0.635197,0.115861 0.604669,0.751058 0.528536,0.269945 0.627596,0.755919 0.903803,1.152034 -0.956935,0.123755 -1.335454,0.50519 -1.903091,0.801973 -0.59297,0.139531 -1.211544,0.259543 -1.253875,0.903814 -0.409529,-0.09723 -0.908342,-0.304174 -1.005656,0 l 0.356439,0.700133 c 1.385721,0.0042 1.98327,0.235966 1.247508,0.852898 l 0.502827,0.350061 h 1.502106 c -0.04234,0.328158 -0.239125,0.664868 0.299156,0.948373 l 1.30479,-0.10183 c 0.275716,0.29443 0.409476,0.48359 0.852899,0.903814 l 0.197304,0.350061 -0.400976,0.299156 -0.700142,2.004933 c -0.167948,-0.152684 -2.447624,0.986888 -2.507761,1.13931 0.03178,0.01725 0.03408,0.02049 0,0.01275 -0.0094,-0.0021 -0.0031,-0.0042 0,-0.01275 -0.222375,-0.120806 -1.848381,-0.760781 -1.998566,-0.585568 0.0063,-0.610669 0.02488,-1.249714 -0.751058,-0.203682 -0.05039,0.317202 -0.07235,0.637539 -0.35006,0.95473 l -0.751058,0.400986 c 0,0 -0.986617,0.207059 -0.7065,0.05092 1.361582,-0.758952 -0.664135,-0.89452 -0.948362,-0.801973 l -1.20296,-0.400987 c -0.322073,-1.1e-5 -1.333112,-1.243922 -0.751058,-1.355716 0.692281,-0.132976 -0.288837,-0.776317 -0.801973,-0.801973 0.04861,-0.255486 -0.653639,-0.395853 -0.611025,0 0.01537,0.142782 0.102981,0.369099 -0.03816,0.350061 -0.314734,-0.04245 -1.924221,-0.563717 -1.852177,-0.09545 0.270907,0.924358 0.0828,1.103993 -0.400986,0.801973 -0.349193,0.683561 -0.931865,-0.316376 -1.406632,-0.553743 -1.405366,-0.4838 -2.190507,-0.481876 -1.852176,0.400986 0,1.1e-5 -0.561229,-1.391628 -0.751058,-0.700132 -0.221895,0.808299 -0.637466,1.124632 -0.700132,0.999288 h -0.400987 l -0.197315,1.050204 c -0.529801,0.232861 -1.107067,0.43462 -1.457557,0.801973 0.102249,-0.322627 -1.43787,-0.724994 -1.546664,-0.591935 0.05029,0.07172 0.07381,0.119395 0.04454,0.09545 -0.05217,-0.04266 -0.06012,-0.07643 -0.04454,-0.09545 -0.285962,-0.407604 -1.651171,-2.080417 -1.858533,-2.011299 -0.31258,0.0666 -0.738261,0.02635 -0.840165,0.324603 l 0.64285,0.528285 c -0.276772,0.588871 -0.137545,1.052807 0.05092,1.502116 -0.03649,0.0804 -1.088238,0.941295 -1.005645,-0.101831 0.02854,-0.360035 -0.245637,-0.527752 -0.04454,-0.751058 0.514411,-0.571234 0.122071,-0.699755 -0.356428,-0.751047 -0.268178,-0.02875 -0.649217,-0.751058 -0.649217,-0.751058 L 68.04553,55.946323 c 0.05363,-0.536377 -0.549393,-0.241884 -1.005644,-0.553742 -0.732731,-0.500821 -0.41646,-0.837416 -0.407354,-0.846522 -0.210133,-0.524166 -0.793076,-0.424332 -0.961096,-0.400986 -0.490763,-0.09221 -1.013873,-0.207269 -1.139311,-0.02551 -0.100158,0.05687 -0.820928,0.139938 -0.999288,-0.114565 -0.16618,-0.237127 -0.250426,1.061808 -0.859255,0.22914 -0.05604,-0.07664 -0.464877,-1.457516 -0.54102,-1.444834 -0.02415,-0.88694 -0.794142,0.04851 -1.202959,0.101831 -0.290353,-0.154847 -1.384206,0.700393 -0.700133,1.152044 0.304279,0.200891 -1.201611,0.05092 -1.502105,0.05092 -0.300505,0 -1.175641,-0.20132 -0.751058,-0.254598 1.215035,-0.152422 0.45392,-0.879715 -0.203671,-0.999277 l -0.795617,0.152756 c -0.894677,-1.058212 -0.602923,-0.338487 -0.400987,0.24823 -0.135265,0.138548 0.06189,0.388608 -0.451901,0.400987 -0.200337,-1.050151 -0.404333,-0.244456 -0.604659,0.598301 -0.50841,-0.0084 -0.712667,0.397139 -0.846531,0.903804 -0.105344,-0.123179 -1.39693,0.384091 -1.654862,0.948373 -0.177921,0.389214 -0.942006,-0.339617 -0.942006,-0.1464 -0.962048,0.21213 -0.857917,0.893694 -0.572833,1.559398 -0.82213,0.235298 -1.528201,0.527637 -1.788528,1.043837 -0.911446,0.274461 -0.971697,0.0528 -0.954729,0.420077 -0.19904,-0.04977 0.577894,2.571681 0.903804,2.851465 0.361331,0.310196 -1.783812,1.306442 -2.119498,1.13931 -0.385524,-0.191941 -0.591548,-1.364833 -0.986554,-1.508472 0,0 -0.700456,-1.39808 -1.101119,-1.648505 -0.400673,-0.250416 -0.502827,-0.305513 -0.502827,-0.305513 -0.313939,0.32245 -0.266014,1.042634 -0.999288,0.903814 -0.350814,0.519022 -0.150917,1.090225 0,1.654862 l -1.406632,0.999288 -0.350071,2.552309 c 1.151564,0.667837 1.225908,1.514755 -0.451902,2.654149 l -0.897447,2.40592 2.304078,0.649217 c 0.07266,0.918189 -0.108929,1.837801 0.299146,2.755991 l 0.553753,0.451901 c 0.351797,-0.06367 0.190122,-0.417683 0.248231,-0.649206 l 0.700132,0.101831 c 0.173018,0.379114 1.153759,0.106127 1.750335,0.146389 l 1.457557,1.954017 c 0.484009,0.584439 0.797875,1.335214 1.196593,2.004933 l 0.655584,1.591223 c 0.0052,0.244027 -0.190164,0.26064 -0.515551,0.127299 l -0.534652,0.133655 c -0.309183,-0.310552 -0.66445,-0.827797 -0.655584,0.451912 0.241727,0.381739 0.447845,0.407835 0.642849,0.369162 l 2.0113,1.005645 c -0.03826,-0.155077 -0.08908,-0.273688 -0.08908,-0.273688 0,-1.1e-5 0.171627,0.17145 0.515551,0.09545 0.228816,-0.0506 -0.244927,-0.89245 -0.369162,-1.05657 -0.07318,-0.0966 0.720216,0.632123 1.253886,0.0827 0.279929,-0.288168 0.547375,0.260964 0.547375,0.260964 0.578835,-0.476283 1.158778,-0.915492 1.737612,-1.502105 0.01108,-0.0052 0.531171,-0.399534 0.871979,-0.432812 0.415561,-0.04056 1.092149,-0.794215 1.4321,-0.502827 0.03597,-0.251931 0.79548,-0.499294 1.062937,-0.56011 0.494286,-0.1124 1.48038,0.221884 1.304791,0.375529 0,0 0.811738,0.872878 1.247518,0.935639 0.354086,0.05102 1.119854,0.747304 0.992921,-0.05092 -0.01046,-0.06607 0.126002,-0.01275 0.184581,-0.01275 0.311326,0 0.687409,-0.751057 0.687409,-0.751057 0.519942,0.444175 1.721448,0.38866 1.508472,0.171847 -0.45116,-0.459273 0.93014,0.524437 0.852888,0.623759 l 0.375529,0.846532 -0.661951,0.770148 0.216406,0.381896 c 0.431933,1.745652 -0.0063,1.439292 0.07643,2.144955 l -0.681041,1.508473 -0.585568,0.884713 c 0,1e-5 -0.306945,0.149473 0.203672,0.604668 0.510627,0.455195 1.85984,1.021568 1.705787,0.999288 -0.311315,-0.04506 -0.148888,0.359586 -0.833798,0.197305 -0.78995,-0.187163 -2.09404,-0.566477 -2.09404,-0.566477 -0.05478,-0.03649 -1.637862,0.192433 -1.909458,0.260964 0.01997,0.01045 0.04663,0.02666 0.05092,0.03178 -0.01276,-1.25e-4 -0.04088,-5.2e-5 -0.08908,-0.01275 -0.01119,-0.0031 0.0052,-0.01077 0.03816,-0.01913 -0.132568,-0.06963 -0.54102,-0.235496 -0.54102,-0.235496 l -0.80834,0.502827 -0.617392,-0.356438 -0.470993,0.852899 -0.01913,0.674674 -1.139321,0.668308 0.07643,0.617392 c 0.41049,0.302376 0.964766,0.512028 1.050204,1.031113 0.155067,0.110079 0.185271,0.633921 0.49646,0.305512 l 0.611025,0.458269 -0.757414,0.09545 c 0,-1e-5 -0.38107,0.16548 -0.630126,0.16548 -0.249056,1.1e-5 -0.903814,-0.668307 -0.903814,-0.668307 -0.804619,-0.415038 -1.485493,-0.26683 -2.17678,-0.171847 -0.143128,0.258727 -0.529927,0.305188 -0.24823,0.935628 -0.0021,0.500172 0.206421,0.784848 0.49646,0.992921 0.507104,-0.307216 1.051019,-0.147173 1.61667,0.248231 0.07538,0.682745 0.206421,1.38454 0.687409,2.183157 0.290572,1.037292 0.581417,1.568347 0.871989,1.432089 0.334274,0.705663 0.374996,1.407478 0.06367,2.113141 l 1.311158,-0.07643 0.929271,1.82035 1.12022,-0.43281 c 0.01955,0.52906 0.223003,0.46891 0.445546,0.49009 0.130717,0.0125 0.672803,-0.33736 1.107485,0.50283 0.192956,0.0381 0.465671,-0.0926 0.439168,0.43918 -0.304519,0.8717 -0.647105,1.74426 -1.183859,2.61595 -0.04924,0.51367 -0.249119,0.62558 0.0063,0.92291 0.137137,0.1596 0.130854,0.63574 0.08908,1.07566 0.680121,-0.67594 2.410018,-2.13051 2.698698,-2.17042 0.221539,-0.0306 2.649832,-0.70341 3.405208,-0.60466 0.650021,0.085 3.007838,1.99495 2.953295,2.04949 -0.163253,0.68447 0.433585,1.37138 1.005655,2.05585 0.295047,0.72946 0.497297,1.09061 0.700132,1.45119 0.841305,0.17654 1.267111,0.0631 1.960374,-0.31825 l 0.04454,-19.762902 9.260883,-3.055136 9.197234,7.402339 c 0,0 2.875563,3.812551 3.176068,3.812551 0.300504,1.1e-5 3.901671,-0.757414 3.901671,-0.757414 0.008,-0.0115 4.86755,0.251157 4.79274,0.400986 -0.20627,0.413104 1.65487,-0.992921 1.65487,-0.992921 0.78999,0.837656 1.50079,1.699985 2.41865,2.495027 l 0.95473,2.2659 1.0502,-0.846535 -0.40098,5.448325 h 1.90309 c 0,-1e-5 0.20641,2.00214 0.20367,2.40592 -0.003,0.52566 0.401,2.20224 0.401,2.20224 0,0 1.94123,0.28291 2.50138,0 0.5804,-0.29312 2.19932,-0.0596 2.05586,-0.0954 l 0.75105,0.84653 c -0.20202,0.32815 -0.50841,0.6025 -0.40098,1.10748 0.0357,0.2138 1.63374,1.73116 1.95401,0.99929 0.19674,-0.44958 -0.18103,-1.20296 -0.20367,-1.20296 -0.13966,-0.43692 0.70999,-0.75294 0.65558,-0.8529 -0.0733,-0.13454 0.27603,-1.09664 0.99928,-1.10111 0.39116,-0.002 -4.8e-4,-1.20296 0.35007,-1.20296 0.35058,-1e-5 0.90381,-0.54738 0.90381,-0.54738 l 1.20296,-0.8529 c 0.46364,-0.0691 0.90609,-0.15122 0.99928,-0.4519 0,1e-5 0.68208,-0.22228 0.8529,-0.59829 0.80631,-1.77488 0.98215,-0.90403 1.59758,-0.8529 -0.42509,-0.31322 0.73138,-1.24827 1.20296,-1.10112 0.19124,0.0597 -0.54738,-0.40099 -0.54738,-0.40099 0.0527,0.079 0.79567,-0.51187 0.64922,-0.85289 -0.19261,-0.44849 0.25584,-0.85396 0.50282,-0.75105 l 0.29915,-0.70014 0.64922,-0.24822 0.65557,0.0445 c 0.10089,-0.24671 1.09802,0.14101 1.64851,0.0509 0.28419,-0.0465 2.2843,0.30991 2.15769,0.60467 0.1012,-0.19107 0.55027,0.0792 0.64921,0.64922 0.0343,0.19738 0.9583,-0.13253 1.413,-0.0191 0.45471,0.11341 0.43918,0.6683 0.43918,0.6683 l 0.50283,0.0509 c 0.15438,-0.0464 -0.21208,-0.76982 -0.19732,-1.12021 0.0147,-0.35039 0.19578,-0.68336 0.3628,-1.20932 0.20202,-0.63615 0.0225,-1.04384 0.0954,-1.04384 l 0.92927,-0.381896 c 1.34714,-0.660352 2.32349,-0.599755 2.91512,0.203671 0.97189,0.797845 1.50341,0.798625 2.25316,1.196605 l 1.50211,0.15275 0.53465,-0.75742 2.62232,0.30551 1.60395,-0.40098 0.70013,0.35007 c 0,-0.22313 2.6528,0.0673 2.95331,0.30551 0.24822,0.19677 1.85217,-0.1273 1.85217,-0.1273 l 1.71852,0.66832 0.6874,-0.1464 c -0.0125,0.37871 -0.0122,0.7443 0.29915,0.7065 -1e-5,0 0.30249,0.49813 0.50283,0.5983 0.20033,0.10016 0.0177,0.48973 0.1973,0.40099 0.39598,-0.19565 1.97908,0.0258 1.9031,0.10183 -0.113,0.113 0.83257,1.82543 1.00565,1.5021 0.0974,-0.18206 -0.4519,-2.40373 -0.4519,-2.65415 0,-0.25041 0.40735,-0.91018 0.40735,-0.91018 0.64217,0.0308 0.86554,-0.2558 1.14567,-0.49645 1e-5,0 -0.98321,-0.29613 -0.78287,-0.496459 0.20033,-0.200347 1.13294,-0.700143 1.13294,-0.700143 l 0.50283,0.299156 c -0.0938,-1.886479 -1.08705,-3.810083 -1.64851,-5.696562 l 0.0445,-1.667596 c -1e-5,0 0.003,-0.404938 0,-0.852888 -0.003,-0.386549 0.62743,-0.357254 0.471,-0.668318 -0.2392,-0.475624 -1.15841,-0.490094 -1.15841,-0.490094 0,1.1e-5 -0.5189,0.410375 -0.71923,0.210039 -0.20034,-0.200326 -0.4901,-0.649217 -0.4901,-0.649217 0.4307,-0.343297 0.64834,-0.80673 1.74398,-0.751048 0.40237,-0.356981 1.1467,-0.602054 2.31045,-0.738323 0.83265,-0.09754 1.60596,-0.490293 2.29772,-0.814708 0.41969,-0.587554 1.23519,1.277786 1.30479,1.050204 0.1168,-0.381917 1.42496,-0.602797 1.9031,0.10183 -1e-5,0 0.89796,-0.951195 0.54738,-1.502115 -0.35059,-0.55092 -1.15372,-0.205658 -1.25388,-0.706499 -0.10015,-0.500821 0.50366,-1.252527 0.55375,-1.553021 0.0501,-0.300505 0.50281,-2.501393 0.50281,-2.501393 10e-6,0 0.69629,-1.700581 0.84654,-2.151333 0.15025,-0.450741 0.55374,-1.457547 0.55374,-1.457547 0.15189,-0.560768 -0.2167,-1.73045 0.64922,-1.45119 l 2.95966,1.406632 c 0.4663,-0.277055 1.42524,-0.194252 2.39955,-0.101831 1e-5,1e-5 0.38708,1.393876 0.60467,0.948373 0.35058,-0.717832 2.15132,-1.526329 2.15132,-1.400275 0.19393,0.08312 1.65878,-1.622681 1.0502,-1.654861 -0.3555,-0.01882 -0.81511,-1.94304 -0.75105,-2.450479 0.0502,-0.397515 0.71878,-2.614964 0.65558,-2.908747 -0.0809,-0.375999 0.93266,-0.595823 1.83945,-0.477359 0.52791,0.069 1.14973,-0.654978 1.56576,-0.821074 0.60157,-0.24017 0.583,-1.544667 0.44553,-1.801251 -0.47457,-0.885853 1.29761,-1.425618 2.10678,-0.757425 0.54065,0.446465 -0.45191,-1.050204 -0.45191,-1.050204 -1e-5,0 -0.60414,-0.403401 -0.85288,-0.299145 -0.28513,0.119499 -0.7278,-0.994887 -0.70015,-1.050204 -0.12742,-0.239845 -0.38449,-0.349349 -0.70013,-0.400986 0.0458,-0.127362 -0.0104,-0.303558 0.29915,-0.299146 0.27803,-0.100157 0.35614,-0.205355 0.40098,-0.305512 0.0453,-0.329047 -0.11334,-0.449383 -0.35006,-0.496461 -0.16695,-0.104026 -0.33588,-0.115976 -0.50282,0.24822 -0.0788,0.417767 -0.2764,0.693462 -0.73197,0.687409 -0.2668,-0.296438 -0.33098,1.02255 -0.46463,0.916548 -0.20327,-0.161246 -1.76338,-0.630189 -1.85854,-0.649217 -0.52662,-0.387124 -1.13043,-0.221445 -1.75035,0.04454 0.0924,-0.864096 -0.45354,-1.543204 -0.91017,-2.081306 0.0697,-0.167916 0.44618,-0.36659 0.15913,-0.668318 -0.73115,-0.261613 -1.11787,-0.815627 -2.35501,-0.655584 -0.0187,0.06566 -0.79865,-0.858785 -0.64922,-1.69941 0.13902,-0.782035 -0.46184,-0.819872 -0.70013,-0.935639 -0.33033,-0.160482 0.0509,-0.719233 0.0509,-0.719233 -0.75126,-0.371368 -1.50191,-0.840447 -2.25317,-0.948362 -0.52973,-0.140315 -0.62719,0.0552 -0.74469,0.235496 -0.18191,0.164633 -0.0788,0.453648 -0.96109,0.31188 -1.11491,-0.357369 -0.84204,0.599995 -1.20296,0.954729 0,-0.221633 -2.09413,-0.233938 -1.45119,0.146389 0.40568,0.239982 -1.26022,-0.519534 -1.85218,-0.445535 -0.0172,0.231817 -0.36818,0.19237 -0.9038,0 0.46122,-1.42246 -0.435,-1.073099 -1.15205,-0.954729 -0.0583,-0.486873 0.68237,-1.659765 -0.29914,-1.349359 l -0.71287,-0.451902 c -0.33259,-0.367291 -0.54485,0.09995 -0.78925,0.350071 -0.31931,0.04286 -0.83657,-0.0713 -0.35006,0.598291 l -0.15276,0.852899 c -0.63293,0.259124 -1.46805,0.471097 -1.20296,0.954729 -1e-5,0 -4.7532,-8.316179 -5.05371,-8.917178 -0.30049,-0.600999 -2.15769,-3.354293 -2.15769,-3.354293 l -1.40027,-2.004932 -4.41085,-3.004211 c 0.23082,0 -0.38091,-0.893589 -0.22278,-1.043847 0.24357,-0.231419 0.86921,0.37808 1.12659,0.140033 0.24604,-0.227561 0.52356,-0.988917 0.40099,-1.050204 0.0484,-0.353521 -0.0591,-0.588432 -0.19732,-0.801973 -0.30489,0.294525 -0.5319,0.639306 -1.05656,0.801973 h -0.99929 v 0.502828 c -0.99738,0.144727 -1.45432,0.525849 -2.05585,0.846521 l -0.54738,-0.197304 c -0.3655,0.03115 -0.60711,0.138914 -0.50282,0.451902 0.12687,0.139677 0.4073,0.267707 0,0.451902 -0.19931,-0.10732 -1.1511,0.983543 -1.15204,0.948372 -0.0127,-0.47232 -1.25388,-0.24823 -1.25388,-0.24823 -0.0843,0.256563 0.0254,0.537235 -0.40098,0.751048 -0.33107,-0.139897 -0.53322,-0.120587 -0.39463,0.350071 -0.16423,-0.09734 0.0207,0.485232 0,0.801973 -0.0323,0.494328 -0.99928,-0.636493 -0.99928,-0.636493 -0.25245,-0.265858 -0.50498,-0.161988 -0.75743,-0.16548 -0.64053,-0.284676 -0.86782,0.04935 -1.25387,0.146389 0,-0.07653 -0.65176,0.984787 -0.70013,0.751058 -0.0916,-0.442252 -0.56693,-0.472393 -0.64922,-0.598302 -0.24289,-0.371577 0.0223,-0.269035 0.14002,-0.649216 0.059,-0.190269 0.30939,-1.366861 1.01201,-0.95473 l 0.35007,0.101831 c 0.009,-0.520016 0.20892,-0.810892 0.45191,-1.050204 -0.2624,0.07747 -0.7829,-0.694225 -0.75105,0.350071 -0.61428,0.14041 -1.19495,-0.02269 -1.89674,-0.05729 l -0.15912,-0.547387 c -0.31633,-0.296364 -0.85654,-0.212045 -1.29843,-0.299145 l -0.40099,0.350071 c 0.75984,0.193949 0.71913,0.463528 0.49646,0.751048 -0.45175,-0.178737 -0.34153,0.01903 -0.40099,0.10183 -0.25427,-0.0021 -0.72032,0.110498 -0.49646,-0.152756 -0.13883,-0.293646 -0.0399,-0.442482 0.0509,-0.598302 0.33116,0.0436 0.008,-0.329172 -0.30552,-0.700132 l 0.15276,-0.350071 c -0.47371,-0.249161 -0.65044,-0.55966 -0.90381,-0.852889 l -0.24823,0.152757 c 0.095,0.333887 -0.14966,0.66539 0.4519,0.999277 -0.0105,0.190154 -0.022,0.376 -0.40099,0.197315 -1.43309,-0.965184 -1.15775,-0.276301 -1.25387,0.05092 -0.0628,0.334127 -0.46958,0.287342 -0.90382,0.203671 -0.27446,-0.679745 -0.68344,-0.552645 -1.14567,-0.152756 -0.2271,0.106462 -0.36217,-0.50426 -0.67468,-0.910181 0,0 0.97072,0.04569 0.77015,-0.241863 -0.35048,-0.502473 0.005,-1.397055 0.19731,-1.654862 -0.29833,-0.154387 -1.10021,-1.110643 -0.94837,-2.202248 0.0504,-0.362053 -0.96192,-1.049179 -0.59829,-1.101119 -0.14639,-0.284153 -0.41623,-0.286233 -0.75106,-0.146399 -0.33616,-0.310301 -1.0803,0.590951 -1.413,0.738334 -0.79646,0.35281 -1.68482,-0.957364 -1.61031,-0.80834 -0.40735,-0.117931 -0.8982,-0.561156 -1.13294,-0.03178 -0.37462,-0.743217 -0.61701,-0.4176 -0.8529,-0.05091 -0.15953,-0.395592 -0.39816,-0.491798 -0.66194,-0.496461 z m 7.96881,4.098973 c 0.0763,0.03952 0.11533,0.03231 0.10183,-0.04454 -0.009,-0.05133 -0.0481,-0.0276 -0.10183,0.04454 z"
     style="fill:#00aad4"
     v-on:click="onRepublicClick()" />
  <!-- РАЙОНЫ -->
  <path
     id="region191934"
     class="region"
     d="m 507.52121,141.29249 6.24408,-1.76514 9.84433,-0.39657 8.84123,12.39484 0.87868,-2.97819 h 11.6328 l -3.62359,-5.31873 3.04039,-0.29549 6.13521,5.78529 3.33588,-0.62985 4.09014,-5.97191 h 2.75268 l 1.63295,5.43537 2.51162,-6.25962 -2.21614,-4.5567 9.05896,-4.68111 30.42723,-2.00619 9.85211,-15.56742 6.87392,-5.97969 15.19417,8.88789 10.59082,0.69983 v 4.73555 l 7.52711,12.68254 5.43538,0.4199 1.67182,7.93923 -2.65159,6.69508 2.65159,6.82727 7.79926,0.46656 -0.4199,2.31722 -11.14291,5.43538 v 4.98437 h 7.51933 l 8.50687,-4.28454 2.92375,-7.80703 9.29224,3.78688 3.23479,-4.43228 11.37619,2.63604 v 2.27834 l -6.94391,10.30312 3.70912,5.15544 9.70436,-0.48211 11.14291,-7.15386 2.76046,9.3078 7.90812,10.18647 1.67183,-1.55519 5.0388,-9.10562 8.50687,-0.36547 3.11038,10.06984 4.40895,3.96572 0.18662,5.94082 3.25034,0.18662 v 2.21614 l -6.64842,9.42443 v 3.32032 l 11.6328,-4.06681 h 7.03722 l 4.51781,7.69817 0.71539,5.84751 -1.85067,13.43681 1.43854,7.6904 2.66715,2.26279 h 11.89718 l 12.93137,-8.21138 11.69501,-12.82252 2.25502,1.74959 2.46497,-0.41213 5.02325,-1.33746 3.79466,-2.9704 5.13211,-2.2628 6.4618,-0.6143 3.99683,1.95176 4.30787,-0.71538 2.66714,-5.33429 5.13212,-5.95637 8.80236,-4.30787 5.94858,4.00461 7.08388,13.23464 6.25185,0.30326 4.41673,1.43855 3.07927,-1.43855 5.43538,-0.30326 5.94858,-6.25963 12.41039,-4.92216 13.03247,-2.77601 9.4322,2.46497 4.82108,-2.46497 0.92534,-8.40579 0.51321,-7.28605 -2.62049,-6.39959 -31.64805,-16.40722 -3.1337,3.1337 -11.11181,2.27835 -3.12592,-19.36985 -5.98747,-5.41205 h -11.95938 l -4.84441,-3.1337 h -4.26899 l -5.13211,3.1337 h -9.96875 l -0.85535,-3.1337 -29.05089,-17.37143 3.70135,-4.84441 -1.99064,-11.39174 -4.84441,-5.97969 3.1337,-5.97969 -1.42299,-4.276767 -8.25804,0.855353 6.54733,-10.536389 -11.39174,-7.978107 -5.12434,-3.989054 -1.423,7.410464 2.846,8.54575 -8.25805,3.413635 -1.43077,-5.412049 2.27835,-9.968746 h -3.98128 l -9.4011,9.401102 -4.27676,-3.133701 -8.54575,1.710706 -13.67009,1.990639 -3.70135,-3.701345 -1.7107,-6.267401 -21.11944,-10.53639 -9.96874,-1.998414 -14.80538,-3.133701 v -7.970332 h -6.84282 l -9.96875,-5.979692 -3.70134,1.702929 -25.91718,17.37921 -5.9797,1.422996 -6.2674,-1.422996 -27.34795,-27.915599 -6.54734,-0.855353 -9.68881,5.699759 -21.64042,3.989054 v -3.989054 l -5.41205,-4.844406 -10.8241,1.143062 -29.3386,-17.0915 -4.55669,-0.855353 -9.40111,19.369849 -8.25804,-6.835045 -9.96874,-1.430772 -1.14307,8.265817 -4.55669,6.267402 -10.8241,1.702929 -9.4011,-2.845991 -3.70135,5.12434 0.85535,4.556696 13.10245,57.254195 z"
     style="fill:#00aad4;stroke-width:0.777593" />
  <path
     id="region191950"
     class="region"
     d="m 378.72843,151.74334 -1.73403,6.94391 -3.47584,10.41975 v 13.24241 l 4.82108,28.0789 4.50226,18.55337 0.42768,26.49261 11.695,19.29986 20.69954,5.94082 5.78529,13.25796 4.71999,7.42602 4.22233,11.57836 15.3808,-0.66095 32.26234,-10.91741 30.44278,-2.81489 8.43689,5.29541 4.96882,-4.63446 18.19568,1.65628 6.29073,6.78839 4.79775,0.90978 1.98287,-10.0154 7.93922,-3.80243 9.92987,-14.06666 10.41975,3.31254 2.48052,-1.98286 -1.4852,-5.4587 -4.47116,-3.64692 1.49298,-3.30477 -1.49298,-13.569 h -4.1368 l -3.30477,7.44934 -17.86909,-33.42096 6.62509,-2.65159 -2.98596,-7.93923 -3.14147,-1.65627 0.82424,-9.7588 -6.11965,-2.48052 -14.17553,-21.28273 -20.92504,-1.97509 -4.96882,-41.99781 -10.26423,2.37166 h -5.13211 l -13.02469,-7.90035 -7.1072,2.37166 -9.47109,8.28915 -9.07451,-2.76046 -2.37166,2.76046 -9.47109,-2.76046 -1.97509,4.33897 -7.1072,-1.57851 -9.47109,-5.13212 h -18.55337 l -12.62812,9.08229 -16.18171,-5.13212 z"
     style="fill:#00aad4;stroke-width:0.777593" />
  <path
     id="region191936"
     class="region"
     d="m 378.32409,153.80396 -4.80553,15.20973 v 13.67009 l 9.24558,46.14239 0.51321,26.66367 11.61725,19.13657 21.02612,5.8164 5.63755,13.84116 4.61113,6.83504 4.6189,11.8583 14.86759,-0.58319 12.47259,15.04643 v 7.86147 l 4.44784,19.13657 12.98581,18.63113 h 5.46648 l 10.25645,14.1833 -3.75577,3.24257 -24.26869,5.64532 -5.13212,-3.59248 -5.97969,6.83505 -5.97969,1.19749 -0.51321,-9.57217 5.63755,-4.26899 -10.25646,-10.08538 -2.55828,-11.10404 -8.88789,-4.27676 -11.56281,-1.74958 -2.10728,-5.80085 -6.32961,-3.68579 -8.43689,1.84289 -8.16473,5.80085 -5.53646,8.69349 -7.64374,-2.10727 -27.9467,-1.8429 -8.16473,3.95017 h -4.7511 l -1.04975,-6.05745 -5.80085,-4.22233 -10.80854,1.05753 -5.53647,4.47893 -6.85059,10.54417 -8.70127,2.10728 -51.39892,1.58629 -19.50204,-11.60169 -14.7665,-11.8583 1.58629,-8.17251 3.95018,-2.63604 -3.16481,-7.90812 -3.42141,-25.09294 H 208.21 l 0.52876,-22.62019 9.75102,-4.74332 2.90043,-10.54416 -4.48672,-4.21456 2.63604,-2.10728 2.37944,-9.23003 -8.43689,-22.66684 15.81625,-6.06523 9.22226,7.12275 8.96565,-14.76649 3.95017,-1.04975 3.69357,3.42141 8.17251,-10.54417 6.32183,0.79315 4.47894,-3.16481 -4.47894,-4.47893 c -5.0077,1.67182 -7.11498,1.67182 -6.32183,0 0.78536,-1.67183 2.37165,-5.00771 4.74331,-10.01541 l -4.74331,-5.80084 v -9.48664 l 10.80077,5.80085 19.50981,-10.54417 v -7.90812 l 4.47894,-5.0077 3.42919,7.11497 10.27978,-5.53646 -3.95795,-15.55187 4.48671,-7.11497 7.11498,-0.79315 1.31413,7.90812 -7.11498,7.90813 5.00771,2.90042 3.69356,8.17251 10.80855,-4.22233 4.74332,2.10727 1.04975,-5.0077 4.7511,-3.95017 6.05745,6.06523 3.1648,-4.7511 3.42919,3.42919 6.32183,1.32191 13.18021,-6.06523 z"
     style="fill:#00aad4;stroke-width:0.777593" />
  <path
     id="region191942"
     class="region"
     d="m 352.03366,362.27673 -8.32803,3.91129 h -4.65001 l -1.08863,-5.82417 -5.90971,-4.41673 -10.74634,1.16639 -5.66865,4.49449 -6.99056,10.48973 -8.65462,2.16949 -51.53888,1.57851 1.33746,5.99524 7.82259,7.74483 0.47433,3.75578 -4.64223,6.42292 4.64223,9.26891 19.9686,11.77276 21.76483,-2.12283 6.41515,9.61106 h 8.5613 l 12.84584,9.27669 1.78069,7.48822 1.78069,10.57527 -3.56138,7.26272 1.78069,5.70753 v 4.34675 l -5.34984,7.42602 -13.19576,12.48037 -6.42292,7.84591 12.83806,6.78062 16.76491,1.78069 13.19576,-1.78069 1.07308,8.91899 -6.42292,5.70754 -2.85377,7.48822 -2.13838,9.62661 7.496,4.99992 5.33429,14.26106 h 11.07293 l 13.55345,5.35762 -6.78061,7.13053 3.21146,3.21146 10.0154,-1.78846 7.1072,3.56915 1.78069,-3.56915 h 6.78061 l 2.13839,-4.27677 13.84893,4.27677 6.12744,-5.69976 3.91907,4.27676 27.46459,-4.99215 -6.40737,-8.91899 -1.08085,-7.13053 2.85377,-10.70746 v -15.33414 l 4.63445,-1.78069 1.78847,-4.64223 -10.4042,-5.70754 -6.06523,-11.05738 -4.22233,-12.83806 12.49592,-12.48815 -2.20836,-2.42609 -6.06523,-2.20836 -9.37,-15.10864 h -4.30786 l -7.83037,8.93454 -4.08236,-4.52559 -14.11332,-1.98286 4.19123,-6.94391 9.26113,-0.66873 3.42141,-8.15695 v -15.55187 l -8.82568,-8.05587 -12.79141,-14.55654 -8.49132,-25.80832 -1.54741,-13.8956 z"
     style="fill:#00aad4;stroke-width:0.777593" />
  <path
     id="region191968"
     class="region"
     d="m 443.46308,475.36212 -2.27058,-2.51163 -5.74641,-2.03729 -9.5644,-15.31081 -4.19123,0.24105 -7.77593,8.84901 -4.42451,-4.54892 -13.99667,-2.14616 4.06681,-6.81949 9.44776,-0.59875 3.35142,-8.37468 v -15.43522 l -21.41492,-22.61242 -8.84901,-25.83942 -1.19749,-13.75563 6.57844,2.0373 5.2643,-8.85679 8.37468,-5.622 8.37468,-1.91288 6.4618,3.70912 2.15394,5.50536 11.60169,1.67183 8.61573,4.54892 2.86932,11.00294 10.04651,10.28756 -5.50536,3.82576 0.48211,9.92209 5.55979,-1.18972 5.80084,9.69659 2.63605,0.23328 1.91287,-1.67182 4.19123,-0.95644 0.95644,6.4618 12.44149,7.77593 -2.03729,3.22701 0.48211,5.02325 5.38094,2.51163 6.69508,8.49909 -3.11037,4.3001 6.22075,7.3016 v 6.1041 l 4.07458,-1.43854 -1.79624,26.32153 -3.95017,14.8287 -7.06055,11.01072 -6.45402,1.55519 -5.50536,-4.06681 -3.46807,-10.52861 -5.14767,-2.99374 2.27835,13.52235 -8.74015,5.38094 -4.4245,-0.4821 -5.49759,-10.64526 -7.3016,-4.78219 -3.95017,-5.98747 -5.85528,-1.67183 z"
     style="fill:#00aad4;stroke-width:0.777593" />
  <path
     id="region191952"
     class="region"
     d="m 472.34289,505.57162 -2.92375,-9.89099 -5.29541,-3.20368 2.09173,13.51457 -8.36691,5.49758 -4.73554,-0.62207 -5.57535,-10.59082 -7.1072,-4.59558 -3.90352,-6.13521 -5.4276,-1.53186 4.17568,12.26265 6.27518,11.57059 10.22535,5.56756 -1.58629,4.46339 -4.74332,1.81179 v 15.46633 l -3.06372,10.59082 1.11974,7.24717 6.6873,9.05897 6.82727,-0.55987 9.19893,2.51162 6.82726,-2.51162 14.63431,-12.95471 16.29836,1.8118 -0.83203,-13.10245 -2.65159,-5.99525 -14.62653,-7.93922 -4.74332,3.76355 -2.78379,-0.8398 0.41991,-8.919 -2.93153,-0.55209 2.23169,-11.29065 z"
     style="fill:#00aad4;stroke-width:0.777593" />
  <path
     id="region191962"
     class="region"
     d="m 495.54627,482.75703 -3.78688,14.62653 -7.16163,11.23622 -6.69508,1.28303 -2.15393,10.89409 2.85377,0.52098 -0.23328,8.79458 2.73713,0.99532 4.77442,-3.78688 14.61875,7.80704 2.62049,6.11188 0.85536,10.48196 6.65619,-5.52869 13.39794,7.86147 11.06515,-9.89876 19.22211,-8.74015 10.48973,-2.62049 13.10245,1.16639 16.30613,0.8709 9.90654,-6.82726 2.03729,-5.11657 -13.98113,0.87868 -8.73237,-9.90654 -4.66556,0.87868 -11.06515,9.02786 -2.0373,-3.49917 -9.31556,4.66556 h -13.98113 v -12.52703 h -7.28605 l -2.62049,-3.78688 -13.68564,-0.8709 -9.02786,-14.26884 -0.8709,-5.46648 3.78687,-10.26423 6.11189,-2.9082 v -21.2594 l -14.81315,1.15862 -6.55512,1.46187 z"
     style="fill:#00aad4;stroke-width:0.777593" />
  <path
     id="region191958"
     class="region"
     d="m 555.10992,535.36122 10.55972,-2.59716 29.35414,1.94398 10.03873,-6.76506 1.874,-5.07769 -13.94224,0.90979 -6.99057,-8.15696 7.41824,-6.6873 10.9874,7.11498 9.64993,-7.11498 -3.26589,-3.5847 0.55209,-2.42609 15.26415,-6.8506 2.13839,1.99841 5.56756,-4.27676 h 9.41666 l 5.27986,-5.56757 8.84901,-0.45878 2.56606,-4.10569 7.84591,-1.0031 5.13989,-7.69817 2.56606,2.2628 v 3.43696 l 10.5986,15.69961 h 4.70444 l 5.56757,6.13521 8.13362,-0.45878 9.70437,-9.91432 h 8.24249 l 4.51781,-4.35452 1.26748,-3.72467 5.14767,-4.12124 3.41363,1.81956 2.53496,-4.199 6.73395,-4.199 1.58629,3.88019 h 5.15545 l 14.26883,-6.18187 18.31233,-0.24105 2.61271,-1.66405 5.15544,-9.82878 11.09626,-1.89733 4.35452,1.89733 -1.66405,21.71818 -9.11339,3.41363 -2.13838,4.51782 -9.27669,9.11339 4.99215,3.96573 14.03556,6.89725 v 5.06991 l -26.55481,11.41507 -2.30168,19.49426 2.85377,12.37151 6.6562,1.98287 1.18971,3.40585 -4.44005,5.7853 4.20678,9.27669 7.84591,11.49283 -0.47433,7.92367 -3.72467,-2.37943 -4.99993,4.68111 -4.67333,-0.71539 v -4.59557 l -6.6562,-6.18187 -7.29383,-1.58629 -5.38872,-9.99208 -2.50385,-1.58629 -21.56266,3.96573 -18.22679,1.66405 h -8.64683 l 1.11195,-4.67334 -7.76815,-8.88011 -11.73388,-1.96731 -3.30478,-2.86155 -1.0964,-8.82568 1.75736,-8.96565 h -2.64382 l -5.28763,4.57225 H 663.3198 l -10.79299,-0.97199 -11.44617,4.75887 -13.10245,-8.35913 h -9.50997 l -3.39808,3.60026 h -4.27676 l -14.33105,3.94239 -23.96542,1.423 -3.39809,3.60026 -5.77751,-3.87242 -13.64677,0.95644 -5.36539,4.00461 -8.42134,-2.51163 -13.64676,3.87242 -10.39642,-0.20995 -7.26272,-4.82108 0.54431,-2.98596 6.31406,-4.89106 13.51457,7.54265 10.93296,-9.64993 z"
     style="fill:#00aad4;stroke-width:0.777593" />
  <path
     id="region191932"
     class="region"
     d="m 562.77699,136.72802 1.95176,4.48671 -2.20059,6.36849 -2.01397,-5.55202 h -2.55828 l -4.16012,5.95637 -3.42141,0.48988 -5.95637,-5.62978 -2.86154,0.32659 3.42919,5.30319 h -11.50838 l -1.05753,2.85377 -8.73237,-12.31708 -10.19425,0.40435 -5.95637,1.46965 5.2021,41.36019 21.0339,1.99841 14.02001,21.30606 6.21297,2.54273 -0.90979,9.65771 3.13371,1.6796 2.94707,7.93145 -6.43847,2.72158 17.75246,33.28099 3.3592,-7.16941 3.95795,-0.13219 2.90042,-9.01231 14.11332,4.09792 -0.62985,5.29541 8.69349,8.9501 1.01087,3.90352 4.28454,14.23773 5.80085,3.15703 24.57195,1.75736 2.65159,-4.91439 h 11.33731 l 9.96097,7.93923 13.35905,1.26747 8.43689,-3.28144 10.71524,-7.6904 11.97493,-1.63294 5.41983,4.02793 11.33731,-13.85671 11.4695,-2.14616 -1.63295,-9.44776 -6.93613,-7.56598 -3.7791,-6.4307 h -3.27367 l -1.64072,3.28145 -5.92526,3.14925 -15.12419,3.40586 -3.14925,-6.55511 v -4.16013 l 2.27057,-4.16012 -2.90043,-11.59392 -3.90351,-3.39808 -0.50544,-7.947 6.92836,1.39189 3.53027,-4.16013 -9.95319,-9.19893 -9.83656,-1.64072 2.02174,-5.29541 -2.39498,-16.63272 -7.30938,-0.50543 -1.01087,-3.14926 -4.03571,-1.71848 -8.18806,4.23789 -8.82568,-2.51941 -3.27367,2.51941 -2.04507,9.36999 -13.71675,-0.86312 -8.53019,-4.1057 -4.54115,6.25963 -10.36532,5.40427 -9.07451,-8.10252 3.67801,-3.56138 -6.37626,-15.01532 -4.7511,1.83512 -3.99683,14.26106 -6.36848,0.97199 -10.15537,-2.05285 -9.61106,-8.63906 -10.80077,-1.08085 v -10.3731 l 24.95297,-16.0884 -3.99683,-15.87846 z"
     style="fill:#00aad4;stroke-width:0.777593" />
  <path
     id="region191960"
     class="region"
     d="m 574.74415,148.11198 -24.85966,16.24393 v 10.29533 l 10.70746,1.30636 9.79768,8.56908 9.96097,1.92065 6.02635,-0.83202 4.18345,-14.47879 4.76665,-1.59407 6.36849,14.98423 -3.6858,3.42918 9.20671,8.20361 10.2098,-5.18655 4.60335,-6.44624 8.62351,4.0046 13.64676,1.01865 2.09173,-9.5955 3.34365,-2.37166 8.45244,2.37166 8.51464,-3.99683 4.04349,1.62517 0.97977,3.07149 7.3016,0.46656 2.46497,16.64827 -2.0995,5.30319 9.81322,1.62517 9.99985,9.11339 -3.67024,4.23788 -6.78839,-1.39967 0.45878,8.04809 3.95018,3.41364 2.83821,11.49283 -2.19281,4.08236 -0.0544,4.21456 3.12592,6.63287 15.16307,-3.40586 6.07301,-3.30477 1.33746,-3.25812 3.3592,0.0778 3.82576,6.48513 7.02944,7.62042 1.0031,4.96104 5.68421,-1.0342 3.22701,2.4572 h 4.13679 l 2.7138,-2.846 2.44942,-8.00921 h 10.97962 l 8.00921,-4.12902 0.52099,-3.09482 -2.97041,-2.84599 -1.0342,-6.8506 1.93621,-13.56122 -0.90201,-6.32961 -4.65001,-7.36381 h -7.23939 l -11.10403,4.0046 v -3.3592 l 6.45402,-9.68881 v -1.80402 l -3.22701,-0.38879 v -5.68421 l -4.7822,-4.3934 -2.9704,-9.55663 -8.54575,0.3888 -5.03103,8.91122 -1.8118,1.54741 -7.62041,-10.45863 -2.84599,-8.7868 -11.23622,6.97501 -9.68882,0.3888 -3.48361,-5.42761 6.58621,-9.94541 v -2.58161 l -11.23622,-2.44942 -3.35921,4.38562 -9.16782,-3.74022 -2.97041,7.74483 -8.398,4.26121 h -7.496 v -4.77442 l 11.36841,-5.8164 v -2.06062 l -7.73705,-0.6454 -2.7138,-6.594 2.7138,-6.58621 -1.55519,-7.77593 -5.55202,-0.48989 -7.59708,-12.97025 v -4.66556 l -10.51306,-0.81648 -15.11642,-8.73237 -6.93613,5.82417 -10.00763,15.59075 -30.10841,1.59407 -1.79624,0.88645 z"
     style="fill:#00aad4;stroke-width:0.777593" />
  <path
     id="region191948"
     class="region"
     d="m 546.26868,307.43307 -6.15853,-6.58621 -18.17236,-1.77292 -5.03103,4.67334 -8.39023,-5.20988 -30.47388,2.846 -32.28567,10.89408 12.42594,15.13196 v 7.90813 l 4.29231,19.0277 11.28288,4.5256 1.63295,-1.33746 -0.59097,-4.67334 h 3.86463 l 21.01835,23.24227 5.12434,0.59874 23.05564,-3.34365 6.16632,-4.09014 8.9812,4.09014 2.82266,0.21773 5.27209,-8.91122 11.95938,-7.13053 5.41983,1.18972 h 4.16012 l 1.6485,-5.12434 10.0154,-5.04659 16.54718,-1.53963 1.04976,-10.76189 -4.65001,-4.07459 -0.44323,-7.01389 -5.48203,-5.60645 -7.83814,0.31881 -5.10102,-3.95795 -14.4088,-16.18171 -2.93153,-0.1944 -7.90034,9.30779 -1.85068,-0.51321 z"
     style="fill:#00aad4;stroke-width:0.777593" />
  <path
     id="region191964"
     class="region"
     d="m 706.86503,280.13177 -11.85052,1.59407 -10.78522,7.67484 -8.35913,3.25034 -13.37461,-1.28303 -10.02317,-7.93922 -11.28288,-0.0389 -2.63604,4.99215 -24.67304,-1.78069 -5.76974,-3.06372 -5.17877,-18.10237 -8.7557,-9.19893 0.62207,-5.13989 -14.12109,-4.19901 -2.84599,9.09007 1.57074,13.42904 -1.423,3.35142 4.44783,3.68579 1.49298,5.47426 -2.51162,2.08395 -10.43531,-3.39808 -9.99985,14.15997 -7.69817,3.76355 -2.00619,9.88321 1.89733,0.6143 8.06364,-9.37 h 2.48052 l 14.63431,16.23615 5.17099,3.92685 7.93923,-0.38102 5.41205,5.66088 0.43545,6.92058 4.60336,4.22233 v 4.88328 l 7.37936,-5.16321 10.59082,-7.12276 3.74022,-4.26121 10.94851,-1.83512 8.11808,-5.55202 11.82719,-8.16473 8.35913,-2.07617 3.7169,-4.9766 5.46648,-0.8709 4.0046,2.02952 20.38072,-5.94082 7.39491,-1.20527 8.35136,-8.16473 0.4821,-3.38253 z"
     style="fill:#00aad4;stroke-width:0.777593" />
  <path
     id="region191956"
     class="region"
     d="m 729.15863,295.77695 2.60494,-5.90194 4.36229,-1.37634 1.2286,7.045 -1.91288,3.45251 0.68428,5.05436 17.01375,1.76514 5.97191,8.42133 -0.99532,24.28424 5.51314,4.98437 3.37475,31.71803 4.1368,5.5909 11.15069,25.31066 -5.77752,5.18655 -8.19583,0.52099 -5.90971,5.97191 -16.88155,-2.36388 -9.05119,3.74022 -9.32334,-2.82266 -20.20965,-13.05579 -11.08848,-1.18194 -11.94384,14.8287 -18.9655,8.99676 -8.22693,-0.59098 -2.27835,-12.09935 2.27835,-2.53495 -1.01087,-12.16156 h -2.48053 l -2.1306,2.63604 -3.75578,-2.02952 -10.53639,-22.91567 -7.60486,-12.46482 9.32334,-4.76665 11.88163,-0.62207 5.63755,-1.12751 2.58939,-2.53496 -2.92375,-10.03095 1.01087,-2.41832 6.76506,-1.01864 1.46187,-10.64526 6.92836,0.78537 2.98596,-2.19281 0.84757,-8.45244 45.24038,-24.01208 z"
     style="fill:#00aad4;stroke-width:0.777593" />
  <path
     id="region191946"
     class="region"
     d="m 703.89462,295.90136 -7.44157,1.29081 -20.31073,5.82417 -4.19123,-1.85067 -5.04658,0.73871 -3.9735,4.89106 -8.21916,2.30946 -20.13189,13.57678 -10.89409,1.85067 -3.78688,4.24566 -18.45228,12.49592 -0.73872,5.69976 -16.2517,1.38412 -10.16314,5.17099 -1.66405,5.171 h -4.33897 l -5.35762,-1.1975 -12.00604,7.20052 -5.07769,8.77125 -3.04816,-0.27216 -8.77125,-3.9735 -6.25185,4.24566 -22.9079,3.22701 -5.171,-0.82425 -20.96391,-23.08674 h -3.88019 l 0.37324,4.71221 -1.66405,1.1975 -10.71523,-4.24566 12.74475,18.46784 5.63755,0.27993 10.05428,13.84894 -3.93462,3.3281 -24.03541,5.62977 -5.17099,-3.41363 -6.36849,6.83504 5.62977,9.78213 h 2.95486 l 2.12283,-1.74959 3.81798,-0.86313 0.92534,6.51624 12.37151,7.90034 -1.89733,3.28922 0.40435,4.82108 5.44315,2.5194 6.57066,8.67017 -2.76823,4.31564 1.8429,2.7138 11.80386,-0.76981 6.53956,-8.468 15.53632,-1.79624 7.69817,3.84909 14.62653,2.05285 6.67175,-2.05285 10.52084,-1.28303 37.47222,-11.80386 15.65295,3.72467 9.23781,-0.90201 18.47562,-1.53964 13.24241,-3.03261 -2.23169,-12.03714 2.23169,-2.58939 -0.97977,-12.16933 h -2.56605 l -2.11506,2.63604 -3.73245,-2.0684 -10.45085,-22.88457 -7.62819,-12.48037 9.16005,-4.7822 12.0838,-0.57542 5.64533,-1.15084 2.61271,-2.4883 -3.00929,-10.13981 0.97977,-2.36389 6.77284,-0.95644 1.44632,-10.72301 7.06055,0.79315 2.97041,-2.34056 0.8709,-8.24249 45.03043,-24.01986 -1.79624,-2.09172 h -8.18028 l -2.44165,-3.30477 z"
     style="fill:#00aad4;stroke-width:0.777593" />
  <path
     id="region191940"
     class="region"
     d="m 642.84577,427.71898 -27.23909,3.07927 -15.6063,-4.14457 -38.61528,12.43371 -8.98898,0.79315 -6.8817,2.11505 -14.541,-2.11505 -8.2036,-3.96573 -14.81316,2.00619 -6.60954,8.84124 h -11.36841 l 3.43696,4.75887 v 5.88638 l 4.0046,-1.12751 6.55512,-1.58629 14.89868,-1.11196 -0.16329,21.08056 -6.0419,3.18813 -3.75578,10.22535 0.89424,5.37317 9.06673,14.29216 13.72452,0.81648 2.37166,3.84131 h 7.51156 v 12.57368 h 14.05111 l 9.30779,-4.73554 1.95953,3.59248 3.66247,-3.19591 7.38713,-5.94859 4.5567,-0.93311 2.04507,2.19281 8.02476,-6.95946 10.94074,6.95946 9.42443,-7.16163 -2.99373,-3.65469 0.49766,-2.27057 15.34191,-6.79617 2.16949,1.81957 5.60645,-3.91907 9.45553,-0.20995 5.3965,-5.67643 8.54575,-0.34992 2.9393,-4.12902 7.63597,-0.90978 4.41673,-7.00612 -10.30311,-17.02929 2.52717,-1.24415 -2.52717,-12.48037 -5.71531,-7.00612 -2.55051,-12.12268 z"
     style="fill:#00aad4;stroke-width:0.777593" />
  <path
     id="region191966"
     class="region"
     d="m 776.51406,411.12514 -8.04809,0.57542 -6.09633,6.03412 -16.87378,-2.2939 -9.05118,3.73245 -9.47887,-3.01706 -20.24852,-12.9236 -10.76967,-1.22083 -11.99049,14.9298 -19.09769,8.85678 -8.18806,-0.59874 -2.37166,0.74649 2.53496,11.67945 5.72308,7.1072 2.30168,12.67477 -2.30168,1.25193 10.29534,17.02151 0.65318,-0.79314 2.58161,2.37166 v 3.44474 l 10.41197,15.65295 4.8133,0.13997 5.45093,5.96414 8.40578,-0.64541 9.68882,-9.6266 8.11807,-0.28771 4.44783,-4.16013 1.15084,-3.66246 5.171,-4.02016 3.66246,1.57852 2.44165,-4.02016 6.67175,-4.37785 1.72625,4.02016 h 5.02326 l 14.36214,-6.17409 18.18791,-0.29549 2.67492,-1.75736 5.30319,-9.61105 10.60637,-2.01397 3.39031,-15.37302 -7.57376,-7.77593 -17.9313,-28.31217 z"
     style="fill:#00aad4;stroke-width:0.777593" />
  <!-- ГОРОДА -->
  <path
     id="region191910"
     class="city"
     d="m 585.72533,302.35782 c 0,5.71346 -4.76435,10.34599 -10.629,10.34599 -5.86465,0 -10.618,-4.63253 -10.618,-10.34599 0,-5.70244 4.75335,-10.34601 10.618,-10.34601 5.86465,0 10.629,4.64357 10.629,10.34601 z"
     style="fill:#ffffff;stroke-width:1.10165" />
  <path
     id="region191916"
     class="city"
     d="m 496.99575,453.41467 c 0,5.71162 -4.76408,10.346 -10.62349,10.346 -5.87005,0 -10.62351,-4.63438 -10.62351,-10.346 0,-5.71162 4.75346,-10.346 10.62351,-10.346 5.85941,0 10.62349,4.63438 10.62349,10.346 z"
     style="fill:#ffffff;stroke-width:1.09238" />
  <path
     id="region191926"
     class="city"
     d="m 645.70269,318.94547 c 0,5.70242 -4.75335,10.34599 -10.618,10.34599 -5.86465,0 -10.629,-4.64357 -10.629,-10.34599 0,-5.71348 4.76435,-10.34601 10.629,-10.34601 5.86465,0 10.618,4.63253 10.618,10.34601 z"
     style="fill:#ffffff;stroke-width:1.10165" />
  <!-- ЗНАЧЕНИЯ ПО РАЙОНАМ И ГОРОДАМ -->
  <text
     id="textValue191936"
     x="306.39325"
     y="294.41641">{{ value('191936') }}</text>
  <text
     id="textValue191942"
     x="373.95847"
     y="485.61404">{{ value('191942') }}</text>
  <text
     id="textValue191968"
     x="436.63504"
     y="416.04718">{{ value('191968') }}</text>
  <text
     id="textValue191946"
     x="569.27234"
     y="406.93665">{{ value('191946') }}</text>
  <text
     id="textValue191940"
     x="576.30841"
     y="477.39996">{{ value('191940') }}</text>
  <text
     id="textValue191958"
     x="700.7533"
     y="523.25867">{{ value('191958') }}</text>
  <text
     id="textValue191966"
     x="728.98767"
     y="448.09048">{{ value('191966') }}</text>
  <text
     id="textValue191956"
     x="704.46069"
     y="364.45618">{{ value('191956') }}</text>
  <text
     id="textValue191950"
     x="469.06534"
     y="236.39966">{{ value('191950') }}</text>
  <text
     id="textValue191948"
     x="522.76886"
     y="337.42911">{{ value('191948') }}</text>
  <text
     id="textValue191932"
     x="627.40228"
     y="238.69646">{{ value('191932') }}</text>
  <text
     id="textValue191934"
     x="745.37872"
     y="133.65317">{{ value('191934') }}</text>
  <text
     id="textValue191960"
     x="613.12671"
     y="147.71979">{{ value('191960') }}</text>
  <text
     id="textValue191964"
     x="594.01581"
     y="280.66016">{{ value('191964') }}</text>
  <text
     id="textValue191952"
     x="464.59106"
     y="540.58063">{{ value('191952') }}</text>
  <text
     id="textValue191962"
     x="512.91217"
     y="525.40796">{{ value('191962') }}</text>
  <text
     id="text40"
     x="587.72186"
     y="304.44214">{{ value('191910') }}</text>
  <text
     id="text42"
     x="500.24814"
     y="456.17545">{{ value('191916') }}</text>
  <text
     id="text44"
     x="649.6095"
     y="322.93942">{{ value('191926') }}</text>
  <!-- РЕГИОН И ЗНАЧЕНИЯ ПО РЕГИОНУ -->
  <text
     id="textTitle"
     class="text title"
     x="157.95792"
     y="578.61676">{{ titleName }}
  </text>
  <text
     id="textValue1975"
     class="text titleValue"
     x="157.95792"
     y="603.18011">{{ titleValue }}
  </text>
</svg>
