<?xml version="1.0" encoding="UTF-8" standalone="no"?>
<svg
   xmlns:dc="http://purl.org/dc/elements/1.1/"
   xmlns:cc="http://creativecommons.org/ns#"
   xmlns:rdf="http://www.w3.org/1999/02/22-rdf-syntax-ns#"
   xmlns:svg="http://www.w3.org/2000/svg"
   xmlns="http://www.w3.org/2000/svg"
   xmlns:sodipodi="http://sodipodi.sourceforge.net/DTD/sodipodi-0.dtd"
   xmlns:inkscape="http://www.inkscape.org/namespaces/inkscape"
   id="svgRepublic"
   preserveAspectRatio="xMidYMid meet"
   viewBox="0 0 950 650"
   version="1.1"
   sodipodi:docname="zz.svg"
   inkscape:version="1.0.1 (0767f8302a, 2020-10-17)">
  <sodipodi:namedview
     pagecolor="#ffffff"
     bordercolor="#666666"
     borderopacity="1"
     objecttolerance="10"
     gridtolerance="10"
     guidetolerance="10"
     inkscape:pageopacity="0"
     inkscape:pageshadow="2"
     inkscape:window-width="1848"
     inkscape:window-height="1016"
     id="namedview45"
     showgrid="false"
     inkscape:zoom="1.3384615"
     inkscape:cx="630.88714"
     inkscape:cy="325"
     inkscape:window-x="72"
     inkscape:window-y="27"
     inkscape:window-maximized="1"
     inkscape:current-layer="svgRepublic"
     inkscape:document-rotation="0" />
  <metadata
     id="metadata47">
    <rdf:RDF>
      <cc:Work
         rdf:about="">
        <dc:format>image/svg+xml</dc:format>
        <dc:type
           rdf:resource="http://purl.org/dc/dcmitype/StillImage" />
        <dc:title />
      </cc:Work>
    </rdf:RDF>
  </metadata>
  <defs
     id="defs45" />
  <!--        <title id="title">{{ $t('republic') }}</title>-->
  <path
     id="region1927"
     class="region"
     v-on:click="onAreaClick('1927')"
     d="m 109.03,177.35 -2.87,1.21 -2.72,-3.76 -2.57,3.76 0.46,5.13 -3.48,1.21 -5.44,4.08 -4.08,0.46 -4.07,5.13 -7.1,-1.51 -3.18,4.83 2.42,1.82 v 4.53 h -5.29 l -8,8.31 -3.93,-2.12 h -2.11 l 4.22,17.83 2.42,1.51 -1.06,4.98 -8.3,4.99 -4.84,-1.36 -13.44,-22.06 -3.17,0.46 -4.69,4.83 -0.45,4.83 1.36,1.06 v 3.02 l -4.53,5.14 -5.14,1.51 -1.06,1.96 v 7.56 h -1.96 v 9.36 l 5.74,4.99 -1.21,5.74 -4.83,3.32 -2.87,8.46 -3.32,9.21 13.89,5.89 6.2,1.97 h 12.23 l 2.27,1.81 8.31,1.66 h 8.45 l 7.86,3.93 6.95,1.96 2.42,-4.38 h 11.17 l 2.72,-6.19 23.27,-15.86 8.3,-1.96 7.56,3.32 -1.36,3.02 9.51,0.45 3.33,2.72 4.83,-0.75 0.45,-6.2 3.48,-1.96 -0.61,-8.01 3.78,-3.02 11.33,1.06 6.19,-6.19 1.36,-9.82 3.63,-4.53 9.06,0.9 6.04,-5.74 -1.66,-12.08 -1.81,-7.56 4.53,-7.85 -3.32,-2.42 2.26,-9.06 -7.7,-3.17 v -3.93 l -5.74,-4.08 -5.29,-1.21 -1.36,-6.8 -7.25,-3.62 -15.91,1.62 -5.92,-9.7 -12.49,4.94 -0.23,4.39 -2.01,0.93 -2.24,-3.12 -1.86,1.86 -4.62,0.33 -1.67,-2.19 3.11,-2.89 -3.23,-2.88 -3.6,1.44 -6.12,-3.95 z"
     style="fill:#00aad4" />
  <path
     id="region1923"
     class="region"
     v-on:click="onAreaClick('1923')"
     d="m 29.09,296.06 13.34,-1.01 2.67,2.04 7.62,1.44 8.56,0.5 14.9,5.96 2.68,-4.4 h 10.9 l 2.89,-6.64 23.04,-15.59 8.64,-2.05 7.2,3.29 -1.44,2.88 10.09,1.03 3.08,2.88 5.15,-1.24 v -6.17 l 3.49,-1.85 -0.61,-8.23 3.9,-3.09 10.91,1.44 6.59,-6.38 8.43,1.65 v 13.79 l 11.73,4.52 3.7,-6.58 5.77,4.11 -0.62,4.12 0.62,10.7 -0.62,7.41 4.73,3.49 -1.44,10.7 -1.65,9.67 v 7.97 l 6.59,10.55 5.35,5.56 18.52,7.2 -0.62,4.53 3.29,4.11 v 4.53 h -5.55 l -8.23,-10.29 h -4.12 l -4.11,-3.91 -4.53,4.94 -11.32,0.62 -5.76,2.45 -13.17,1.66 -4.73,9.26 -4.94,4.53 -7.61,1.23 -1.65,2.88 -4.73,-8.64 2.26,-7.61 3.09,-10.29 -10.08,-16.25 -6.18,-2.89 -4.11,-1.02 -2.47,2.67 -5.97,-0.62 -3.29,3.5 h -11.52 l -4.53,-2.88 -24.9,16.46 -1.85,7 -13.27,1.01 -17,-9.84 -1.4,-3.87 3.24,-3.69 3.24,3.94 3.43,0.51 2.6,-2.54 -8.32,-14.8 -12.19,-20.69 -16.63,-1.66 -1.08,4.26 -4.89,-3.94 0.13,-7.3 -0.13,-4.06 -1.9,-5.08 z"
     style="fill:#00aad4" />
  <path
     id="region1947"
     class="region"
     v-on:click="onAreaClick('1947')"
     d="m 162.06,379.32 7.91,-1.44 5.28,-4.31 4.56,-9.84 12.95,-1.43 5.99,-2.16 11.27,-0.96 4.56,-4.56 4.31,3.84 h 3.6 l 8.87,10.31 h 5.11 l 4.73,17.27 1.44,15.58 -16.07,7.2 v 128.54 l -10.07,2.15 -8.16,-6.47 -6.47,-12.23 0.72,-3.84 -3.12,-4.08 -15.11,-12.47 -23.98,6.72 -5.51,5.04 -8.16,5.75 -2.16,-10.79 2.88,-2.88 4.56,-11.99 -2.88,-8.87 -13.19,-1.68 -2.16,1.68 -6.23,-12.23 -4.08,1.44 h -3.84 l -0.72,-11.99 -9.11,-17.75 -3.84,-9.83 h -5.75 l -4.68,-1.68 -1.32,-7.43 4.32,-2.4 h 10.79 l 3.6,5.03 h 5.03 l 8.88,-1.2 -4.08,-4.55 h -3.84 l -5.99,-11.51 5.03,-2.4 v -6.48 l 3.36,-3.59 h 3.84 l 4.25,-3.84 7.5,2.16 h 11.51 l 7.43,2.88 h 21.11 v 4.31 l -3.12,4.56 -3.84,1.2 -12.23,24.94 1.2,3.6 3.12,-2.64 5.04,-7.44 3.59,-10.79 3.9,-6.47 h 5.22 l 3.35,-4.32 9.6,-1.92 -2.64,-7.91 -6.96,-12.88 -4.79,1.13 -3.12,-1.13 -3.84,2.33 2.4,6.95 -1.44,3.6 -7.91,-2.16 -5.52,-2.64 1.44,-8.08 z"
     style="fill:#00aad4" />
  <path
     id="region1915"
     class="region"
     v-on:click="onAreaClick('1915')"
     d="m 242.64,401.55 -1.47,-15.54 -4.7,-17.18 v -4.6 l -3.27,-4.14 0.5,-4.47 -18.44,-7.13 -5.4,-5.66 -6.63,-10.6 0.13,-8.18 2.99,-20.01 -4.64,-3.55 0.55,-7.64 -0.55,-10.81 0.55,-3.67 -5.71,-4 -3.79,6.37 -11.65,-4.44 v -13.76 l -8.57,-1.67 1.48,-9.64 3.5,-4.6 9.12,0.84 5.77,-5.74 -1.6,-11.82 -1.73,-7.85 4.43,-7.51 3.04,-2.83 0.17,-9.25 -4.08,-4.32 3.91,-1.96 7.31,4.24 15.49,12.7 8.79,-6.84 0.98,-4.56 13.52,-6.51 10.91,-1.31 3.91,6.52 h 8.79 v -7.82 l 9.45,3.58 5.21,-2.28 3.59,2.28 1.62,7.82 6.84,4.56 10.75,1.31 9.45,3.25 3.26,-7.81 4.88,-1.31 3.59,5.87 h 11.72 l 13.68,-5.87 4.89,-18.24 h 5.21 l 0.98,5.21 2.6,1.63 h 4.89 v 5.54 l 5.86,3.58 -5.86,2.28 v 5.87 h 5.86 v 6.18 l 9.78,14.79 v 5.74 h -6.84 l -5.54,10.42 v 12.7 l 9.77,12.38 5.54,-1.3 1.3,3.58 v 4.56 l 14.66,7.17 11.4,21.17 -30.29,24.76 -6.84,-3.26 -8.8,-10.75 -6.51,-10.75 -14.01,2.28 -9.77,25.08 -9.77,-1.3 v 7.82 h -5.87 l -11.4,9.44 -11.73,18.89 -5.86,2.94 1.96,23.77 -11.4,-8.79 -40.72,13.68 z"
     style="fill:#00aad4" />
  <path
     id="region1943"
     class="region"
     v-on:click="onAreaClick('1943')"
     d="M 377.56,328.02 362.04,307 l -13.54,2.71 -10.19,24.68 -9.23,-1.27 v 7.64 l -6.06,0.48 -11.94,10.03 -11.46,18.31 -5.42,3.03 1.28,23.89 20.54,11.46 10.03,7.33 13.53,14.01 23.01,30.89 h 9.24 l 6.84,-1.91 6.37,-1.59 4.46,-1.28 10.99,1.28 10.83,1.59 10.19,-0.64 7.16,-4.62 h 4.3 l 2.07,7.17 9.56,6.53 5.89,16.08 3.18,-1.75 h 2.55 v 20.38 l 2.87,0.64 37.9,-30.1 -4.78,-6.05 5.89,-11.62 3.03,-12.26 -13.06,-11.15 0.79,-27.55 -6.84,-3.98 -0.64,-3.5 3.5,-13.86 -2.86,-6.84 -1.23,-7.33 -33.49,-1.43 -13.85,-9.87 -29.78,-13.7 -15.6,-7.96 -2.23,1.43 -8.28,0.8 7.01,-4.78 z"
     style="fill:#00aad4" />
  <path
     id="region1951"
     class="region"
     v-on:click="onAreaClick('1951')"
     d="m 481.69,373.94 3.18,7.99 -3.49,14.03 0.86,3.41 6.66,4.26 -0.62,27.37 12.85,11.16 -2.77,11.71 -6.2,11.86 4.73,6.12 -37.76,30.22 -3.02,-1.07 -2.32,-0.54 v 14.49 l 11.47,2.79 5.89,25.43 25.04,-1.55 6.51,4.65 v 3.72 l -3.02,4.96 15.35,8.22 -2.02,-11.4 3.64,-2.94 6.98,-11.63 19.3,-14.11 16.75,-10.54 6.66,-10.48 -15.11,-15.34 -5.04,-15.89 -10.08,-2.71 -3.87,-6.59 3.87,-3.1 5.43,-21.32 -2.33,-22.48 -13.95,-40.7 h -42.25 z"
     style="fill:#00aad4" />
  <path
     id="region1931"
     class="region"
     v-on:click="onAreaClick('1931')"
     d="m 525.17,373.94 14.12,40.74 2.26,22.41 -5.59,21.44 -3.73,3.02 3.94,6.48 10.03,2.62 5.06,16.06 15.08,15.27 v -0.67 l 3.44,-8.9 6.85,-7.88 11.64,-1.03 9.93,3.43 13.7,6.85 13.36,3.42 2.05,-20.21 15.41,-6.5 12.33,7.53 4.45,1.03 15.07,5.48 4.11,-4.45 -13.36,-13.7 2.74,-5.14 -8.56,-6.16 5.82,-6.85 1.03,-10.28 -5.82,-6.16 h -5.48 l -5.82,-4.8 v -7.53 l -9.25,-6.85 -2.4,-8.9 h -7.19 l -1.02,-6.51 h 8.21 l -3.08,-10.62 3.08,-13.81 -111.64,1.17 z"
     style="fill:#00aad4" />
  <path
     id="region1919"
     class="region"
     v-on:click="onAreaClick('1919')"
     d="m 634.78,386.45 2.83,10.79 h -8.08 l 1.33,6.27 6.75,0.24 2.35,8.8 9.13,6.93 0.36,7.66 5.61,4.52 5.54,0.18 5.79,6.21 -1.05,10.3 -5.58,6.64 8.2,6.26 -2.62,5.13 13.34,13.64 13.97,1.81 5.94,-0.78 3.88,-2.58 8.01,2.58 13.43,0.78 h 14.47 l 4.91,3.1 11.37,2.07 7.75,9.56 h 5.69 l 9.04,8.53 h 3.36 l -3.36,-13.96 2.59,-7.23 6.2,-1.3 -2.07,-3.1 -0.77,-2.84 2.84,-1.81 5.68,-1.55 v -4.74 l -3.1,-0.68 2.33,-5.43 -8.53,-18.61 0.78,-11.11 -0.78,-11.62 -5.17,-4.97 h -3.61 l -2.07,-5.89 3.87,-3.61 h 7.76 l 6.2,-4.14 17.83,-4.13 5.42,-3.1 6.98,7.23 6.2,-2.58 4.91,2.58 0.78,-8.01 -9.05,-6.98 v -4.13 l -13.69,-23.77 1.29,-3.88 -5.17,1.29 -26.61,-10.85 v -3.62 l -7.5,-1.03 -9.04,3.62 -8.27,-9.31 h -8.79 l -2.06,-2.32 -10.34,-4.91 -2.58,3.62 -3.1,-2.85 -3.62,2.85 -4.91,-1.04 -3.1,2.33 2.32,18.09 -8.26,2.32 -3.88,-3.87 -10.85,1.55 -9.56,-4.14 -14.99,0.78 -10.34,6.46 h -4.65 l -16.54,18.07 z"
     style="fill:#00aad4" />
  <path
     id="region1963"
     class="region"
     v-on:click="onAreaClick('1963')"
     d="m 822.22,387.23 v -3.83 l -13.7,-24.04 1.15,-3.54 -4.59,1.34 -26.92,-11.4 v -3.11 l -7.66,-1.11 -8.72,3.55 -8.71,-9.48 h -8.21 l -2.4,-2.3 -10.34,-4.41 -2.4,3.16 -3.25,-2.58 -3.26,2.58 -5.37,-0.76 -2.77,2.49 -4.7,-1.25 -2.49,3.47 -7.95,-6.25 2.21,-5.94 3.73,-0.76 -0.29,-14.75 2.59,-0.58 4.98,-6.75 -7.85,-4.55 -1.82,-3.16 -2.59,-3.16 0.86,-4.06 7.67,-0.33 2.2,-11.8 -10.73,-0.67 0.29,-5.94 5.46,-0.67 -2.68,-2.58 -7.86,-6.52 -0.77,-5.65 9.97,-2.87 4.12,-4.41 -0.87,-3.07 -0.38,-4.31 2.2,-2.68 11.59,-9.86 16.93,7.47 7.47,-9.39 v -3.74 l -2.1,-1.53 v -9.58 l -10.64,-6.8 -2.1,-4.02 -0.39,-4.98 15.23,-5.37 -1.82,-4.78 8.24,-1.25 0.29,-3.54 5.55,-3.93 16.38,31.99 9.1,-5.36 v -9.01 l 9.77,-3.44 7.09,3.44 -3.45,7.95 7.95,0.77 1.54,6.61 7.66,-1.34 19.35,0.38 2.58,-4.31 4.41,0.96 3.93,-3.35 6.62,0.55 10.17,4.27 8.7,11.32 2.54,10.91 6.73,0.98 8.86,5.01 1.64,8.94 3.36,7.06 14.93,2.46 7.38,-2.46 7.8,-8.78 h 2.46 l 1.48,1.47 0.24,3.86 -3.69,4.27 5,0.32 1.07,4.6 4.18,6.89 h 5.66 l -0.24,4.1 -10.26,-0.25 -2.37,3.78 0.65,9.43 -5.17,8.45 -4.67,0.33 -3.61,2.38 -9.6,0.49 -5.74,12.06 v 2.79 l 1.72,0.82 -0.82,7.63 1.89,1.39 -0.33,8.12 1.56,0.99 -0.74,8.04 -1.97,5.25 -8.2,0.24 -4.19,4.93 -6.48,3.2 -0.57,-5.91 h -11.49 l -3.03,1.31 -8.78,-2.95 -11.15,-6.73 h -4.02 l -2.63,12.55 -3.45,12.14 -5.74,13.05 -4.92,21.74 z"
     style="fill:#00aad4" />
  <path
     id="region1955"
     class="region"
     v-on:click="onAreaClick('1955')"
     d="m 692.82,82.43 -5.01,-2.13 -0.32,3.36 -12.64,6.07 -4.02,-0.65 -1.88,1.64 0.74,3.44 -8.04,5.5 -6.16,-0.58 -3.93,6.32 -3.78,-1.48 -1.8,2.88 2.46,1.23 -3.04,4.43 -2.46,-4.68 h -2.05 l -2.21,1.23 -1.3,-3.44 -2.36,-0.5 -2.7,2.71 -2.62,-1.31 -3,4.57 -1.39,4.02 2.73,2.2 -1.81,1.52 -2.84,-1.66 -0.71,5.67 h 3.55 l 3.47,-2.13 2.62,1.42 -4.67,5.5 v 6.74 h 3.01 l 6.72,-3.58 -0.42,4.13 -2.7,2.54 v 4.72 l 2.7,2.7 1.18,20.17 v 2.36 l -5.82,2.96 v 5.4 l 9.03,1.43 1.18,2.45 -9.28,2.87 -3.55,4.56 7.51,3.88 0.42,10.38 -2.61,3.63 v 6.41 l 12.4,-1.52 3.72,1.52 -1.02,2.62 4.14,1.01 3.63,2.7 0.34,3.63 4.05,3.29 -8.02,5.32 3.97,3.46 10.21,-7.09 5.99,-0.93 9.87,-1.77 3.88,1.77 2.7,-4.05 h 3.38 l 2.62,2.28 3.28,-11.73 7.17,-1.78 3.55,3.89 h 4.39 l 2.02,2.11 2.79,1.6 -1.52,5.91 3.54,1.26 16.8,7.18 7.51,-9.79 v -3.29 l -1.94,-2.03 -0.43,-9.11 -10.71,-7.01 -1.78,-3.96 -0.33,-4.65 15.19,-5.65 -1.69,-4.81 7.93,-1.1 0.42,-3.46 5.49,-4.13 -18.22,-32.24 -14.69,-22.61 -31.81,-25.07 -0.84,-4.64 5.82,0.34 4.22,-10.3 z"
     style="fill:#00aad4" />
  <path
     id="region1935"
     class="region"
     v-on:click="onAreaClick('1935')"
     d="m 416.31,291.12 -1.19,-2.29 v -2.19 l 5.97,-1.29 -1.79,-5.68 6.27,-0.39 v -9.16 l 17.31,4.38 5.97,-2.29 0.9,-3.98 h 7.46 l 16.79,-20.84 18.08,-17.48 -1.96,-1.45 0.34,-3.49 12.1,-6.74 -4.77,-4.86 0.34,-3.41 4.43,1.28 8.61,-6.14 h 5.71 l 0.94,8.27 -2.81,11.09 8.68,3.15 9.21,-7.84 3.24,6.48 5.71,-1.28 h 6.82 l -0.51,7.33 9.55,-3.58 -0.86,-4.26 3.41,-1.45 2.31,1.7 1.79,-8.52 h 4.6 l 0.43,-2.82 12.85,-8.27 4.1,4.52 -0.26,6.14 8.7,2.47 0.85,-4.52 2.39,-1.19 1.19,1.45 2.05,0.34 v -6.48 h 3.92 l 4.26,-6.14 1.96,1.2 6.14,-1.2 0.34,-3.49 h 4.8 l 4.24,-3.16 -1.45,-3.07 -3.75,0.94 -3.84,-2.64 v -2.81 l 11.93,-0.34 7.34,3.49 0.85,10.23 -2.9,3.75 0.6,6.4 12.19,-1.37 3.07,1.62 -0.69,2.73 4.19,1.11 3.41,2.47 0.34,3.92 4.01,3.24 -7.76,5.46 4.01,3.19 9.97,-6.94 16.2,-2.9 3.5,1.87 2.81,-3.92 h 3.67 l 2.38,1.79 3.33,-11.42 7.24,-1.88 3.33,4.01 h 4.43 l 2.05,1.96 2.81,1.88 -1.53,5.71 3.15,0.94 -13.47,12.87 0.17,4.6 0.94,2.39 -4.35,4.6 -9.77,2.9 0.65,5.46 10.66,9.29 -5.12,0.68 -0.51,6.14 10.74,0.34 -2.3,11.85 -7.67,0.6 -0.77,3.75 2.22,3.41 2.21,3.07 8.02,4.52 -5.12,6.73 -2.9,0.51 0.43,15.01 -3.75,0.68 -2.39,5.71 8.19,6.31 2.55,-3.33 4.44,1.2 2.13,17.73 -8.53,2.3 -3.41,-3.92 -10.91,1.62 -9.55,-4.35 -15.07,0.94 -10.25,6.57 -4.55,-0.08 -17.05,18.21 -155.74,0.79 -1.69,-5.85 -32.73,-1.12 -14.07,-10.02 -45.89,-21.48 -1.69,1.24 -7.87,0.56 6.52,-4.61 30.23,-25.28 -5.06,-9.99 z"
     style="fill:#00aad4" />
  <path
     id="region1939"
     class="region"
     v-on:click="onAreaClick('1939')"
     d="m 355.39,185.58 h 4.99 l 1.32,5.43 2.62,1.57 h 4.56 v 5.26 l 6.13,4.03 -6.13,1.75 v 6.3 h 5.86 v 6.04 l 9.81,14.72 -0.26,5.86 h -6.84 l -5.42,10.6 v 12.35 l 9.98,12.34 5.52,-1.05 1.14,3.5 v 4.82 l 14.72,7.09 6.14,10.86 6.65,-5.69 -0.87,-2.72 v -2.1 l 5.95,-1.49 -1.75,-5.6 6.04,-0.35 0.35,-9.02 17.17,4.2 5.69,-2.19 1.4,-3.76 h 6.82 l 34.86,-38.62 -1.66,-1.84 0.26,-3.15 11.82,-6.74 -4.38,-4.29 -17.77,6.48 -4.29,-4.47 3.15,-2.54 -1.31,-2.97 -4.38,-0.44 -0.62,1.57 -4.99,-0.43 -2.01,-1.84 -4.2,-0.88 -0.71,-4.55 h -1.67 l -1.22,2.19 h -1.49 l -1.31,-6.04 -2.54,-0.71 -2.97,5.43 h -4.73 l -0.35,-9.89 -3.68,-7.79 2.28,-1.49 -0.79,-2.63 1.93,-7.97 h -4.73 v -3.76 l 4.2,-0.27 6.48,-5.34 4.02,-9.02 v -15.41 l 2.46,-9.19 4.11,0.7 v -2.72 l -5.16,-1.84 v -2.01 l 7.88,-1.05 v -2.01 l -3.5,-1.93 V 110.1 l -3.6,-0.26 v -4.47 l 1.14,-1.05 0.35,-3.94 h -2.45 l -0.35,-4.38 -2.28,-1.14 0.35,-1.92 5.08,-2.02 1.22,-3.5 -3.41,-2.72 3.06,-2.62 -2.1,-2.45 -1.92,-8.76 -0.88,-1.84 -3.5,-0.44 -1.32,3.24 -6.48,-1.22 v 2.62 l -6.48,0.53 0.53,6.48 -2.45,1.57 -3.94,-3.76 -11.56,4.03 -9.9,-0.27 v 3.94 l -1.83,0.71 -3.86,-2.02 -25.94,5.96 -4.46,1.22 h -9.55 l -3.06,1.58 h -6.74 l -1.76,-2.8 h -4.2 l -4.03,3.15 -2.93,2.45 4.86,3.68 -7.97,5.69 9.63,2.1 -2.54,6.57 1.23,4.46 10.77,1.06 9.2,3.76 v 5.08 l -2.46,1.05 -2.01,-1.05 -5.78,1.05 -2.8,-1.84 h -7.8 l -7.44,7.71 h -3.94 l 0.44,5.16 2.28,3.42 3.76,2.1 1.66,5.08 -8.14,6.39 h -5.43 l -1.84,3.68 -7.26,2.63 -0.53,2.36 4.47,0.96 6.65,4.12 -3.33,3.85 12.22,0.79 2.1,6.13 5.69,1.14 5.17,0.44 2.8,3.94 z"
     style="fill:#00aad4" />
  <path
     id="region1959"
     class="region"
     v-on:click="onAreaClick('1959')"
     d="m 456.95,79.28 2.39,2.86 -3.09,2.55 3.09,2.77 -1.08,3.47 -5.09,1.85 -0.31,1.93 2.08,1.31 0.47,4.01 2.31,0.31 -0.23,3.7 -1.08,1.46 v 4.32 l 3.31,0.39 v 10.02 l 3.63,2.39 v 2.23 l -7.64,0.85 0.17,2.01 4.92,1.85 v 2.54 l -4.16,-0.31 -2.39,8.64 -0.31,7.02 5.78,4.24 1.39,-1.62 h 5.71 l 0.23,2.77 h 3.31 l 12.88,2.93 0.93,-7.78 h 5.47 l 3.32,2.46 3.39,2.39 3.86,-2.39 0.54,-4.01 v -2.23 l 3.93,-1.62 7.48,-7.1 3.77,-0.38 -2.54,-5.55 5.24,-2.7 -2.23,-5.71 -0.47,-2.23 -3.16,-0.93 -1.46,-3.16 0.23,-3.47 3.08,-2.54 h 2.55 v -3.93 l 2.77,0.23 3.01,1.08 1.7,-2.47 5.29,6.09 3.08,-4.09 8.4,-0.23 0.54,4.32 4.63,-0.39 0.93,2.7 -2.39,1.7 -0.24,2.16 5.94,0.31 1.77,3.7 3.78,0.23 2.7,-6.4 9.65,-0.23 0.68,2.7 5.86,0.84 4.25,-3.54 4.67,7.55 -1.31,6.79 3.16,2.93 10.56,0.23 2.49,-3.16 11.93,-0.62 0.62,9.64 5.55,0.31 5.24,1.15 4.01,3.32 h 7.86 l 0.23,-4.47 2.55,-2.47 0.23,-3.93 -6.55,3.47 -3.09,-0.23 0.23,-6.79 4.24,-5.24 -2.54,-1.31 -3.39,2.16 -3.09,-0.31 v -5.48 l 3.09,1.55 1.69,-1.78 -2.31,-2.08 -6.78,-6.01 0.23,-3.09 5.09,-8.01 h 5.86 l 1.46,-5.79 -3.55,-1.46 -8.4,3.93 -3.78,-0.62 -3.54,-4.35 -6.69,-0.97 -2.77,9.26 -3.63,-1.7 1.7,-8.56 -1.7,-3.17 -7.15,-5.01 -2.48,5.01 -3.94,1.03 -0.43,4.11 -4.45,0.13 -1.12,-2.79 -3.94,0.35 -2.18,2.74 -3.68,-3.3 1.11,-3.9 2.1,-4.62 V 72.6 l 2.65,-1.07 -0.64,-2.94 h -4.28 l -2.57,-7.13 0.64,-6.85 -4.92,-7.49 -7.71,1.28 -6.17,4.5 -6.68,-2.79 v -2.99 l -3.64,-2.14 -7.92,-1.07 -2.79,1.71 -7.06,-3.64 -4.93,3.64 -2.78,5.14 -10.71,0.85 3.86,4.5 -5.57,4.07 -2.57,-1.71 h -2.79 l -0.85,3.85 h -11.78 l -5.99,3.64 h -6.21 l -15.64,5.57 z"
     style="fill:#00aad4" />
  <path
     id="region1911"
     class="region"
     v-on:click="onAreaClick('1911')"
     d="m 454.23,156.42 -4.23,8.97 -6.46,5.47 h -4.22 v 3.77 h 4.49 l -1.71,8.19 0.9,2.57 -2.06,1.35 3.41,8.07 0.36,9.68 h 4.84 l 3.31,-5.56 2.16,1.08 1.25,5.56 h 1.53 l 1.17,-2.06 1.79,0.54 0.47,4.12 4.46,0.81 2.06,2.06 h 4.77 l 0.9,-1.34 4.31,0.53 1.25,3.14 -3.23,2.25 4.49,4.39 17.58,-6.64 0.35,-3.49 4.58,1.16 8.61,-5.92 h 5.56 l 0.81,8.25 -2.69,10.95 8.87,3.13 9.16,-7.44 3.22,6.37 5.66,-1.26 h 6.82 l -0.44,7 9.32,-3.59 -0.8,-3.86 3.4,-1.88 2.52,1.88 1.52,-8.52 h 4.75 l 0.45,-2.78 12.92,-8.25 3.94,4.76 v 5.91 l 8.61,2.34 0.9,-4.76 2.24,-0.89 0.99,1.43 2.42,0.27 v -6.28 l 3.86,-0.36 4.03,-6.09 2.16,1.34 6,-1.08 0.27,-3.49 h 5.2 l 3.95,-3.23 -1.52,-2.96 -3.86,0.72 -3.5,-2.69 v -2.7 l 12.02,-0.24 3.41,-4.69 8.88,-3.14 -1.17,-2.06 -8.61,-1.7 0.27,-5.3 5.29,-2.96 -1.52,-22.87 -2.87,-2.78 h -7.36 l -4.21,-3.31 -5.2,-1.08 -5.47,-0.45 -0.63,-9.59 -11.84,0.62 -2.69,2.87 h -10.67 l -2.87,-2.87 1.16,-6.72 -4.57,-7.36 -4.4,3.23 -5.56,-0.9 -0.72,-2.33 h -9.59 l -2.96,6.46 -3.68,-0.54 -1.97,-3.59 -5.48,-0.35 v -1.98 l 2.33,-1.97 -0.99,-2.24 h -4.48 l -0.72,-3.77 h -8.16 l -3.14,3.77 -5.38,-5.92 -1.8,2.51 -2.78,-0.9 -2.78,-0.54 -0.27,4.13 h -2.42 l -3.14,2.69 v 3.41 l 1.44,3.14 2.96,0.98 2.78,7.81 -5.2,2.42 2.42,5.56 -3.5,0.72 -7.53,7.35 -4.04,1.26 -0.54,6.54 -3.67,1.98 -7,-4.85 h -5.29 l -0.99,7.63 -13.27,-2.78 h -2.78 l -0.63,-2.52 h -5.29 l -1.7,1.44 -5.3,-3.77 z"
     style="fill:#00aad4" />
  <path
     id="region1971"
     class="city"
     v-on:click="onAreaClick('1971')"
     d="m 589.57564,193.85577 c 0,5.78 -4.96,10.48 -11.05,10.48 -6.1,0 -11.05,-4.7 -11.05,-10.48 0,-5.78 4.95,-10.48 11.05,-10.48 6.09,0 11.05,4.7 11.05,10.48 z"
     style="fill:#ffffff" />
  <path
     id="region1975"
     class="city"
     v-on:click="onAreaClick('1975')"
     d="m 720.41,466.02 c 0,5.78 -4.95,10.48 -11.04,10.48 -6.1,0 -11.05,-4.7 -11.05,-10.48 0,-5.79 4.95,-10.48 11.05,-10.48 6.09,0 11.04,4.69 11.04,10.48 z"
     style="fill:#ffffff" />
  <path
     id="region1979"
     class="city"
     v-on:click="onAreaClick('1979')"
     d="m 545.99231,507.63717 c 0,5.78 -4.96,10.48 -11.05,10.48 -6.1,0 -11.05,-4.7 -11.05,-10.48 0,-5.78 4.95,-10.48 11.05,-10.48 6.09,0 11.05,4.7 11.05,10.48 z"
     style="fill:#ffffff" />
  <text
     class="text title"
     x="172.37131"
     y="60.436592"
     id="textTitle">{{ $t('republic') }}</text>
  <text
     class="text titleValue"
     x="172.37131"
     y="85"
     id="textValue19">{{ value('19') }}</text>
  <text
     class="text value"
     x="514.14215"
     y="454.23099"
     id="textValue1951">{{ value('1951') }}</text>
  <text
     class="text value"
     x="533.35986"
     y="489.57434"
     id="textValue1979">{{ value('1979') }}</text>
  <text
     class="text value"
     x="578.29663"
     y="421.22375"
     id="textValue1931">{{ value('1931') }}</text>
  <text
     class="text value"
     x="708.44604"
     y="447.32721"
     id="textValue1975">{{ value('1975') }}</text>
  <text
     class="text value"
     x="718.62421"
     y="393.01685"
     id="textValue1919">{{ value('1919') }}</text>
  <text
     class="text value"
     x="809.2851"
     y="281.00537"
     id="textValue1963">{{ value('1963') }}</text>
  <text
     class="text value"
     x="681.56097"
     y="167.82147"
     id="textValue1955">{{ value('1955') }}</text>
  <text
     class="text value"
     x="577.50354"
     y="177.3387"
     id="textValue1971">{{ value('1971') }}</text>
  <text
     class="text value"
     x="543.15869"
     y="156.45364"
     id="textValue1911">{{ value('1911') }}</text>
  <text
     class="text value"
     x="510.80084"
     y="87.562347"
     id="textValue1959">{{ value('1959') }}</text>
  <text
     class="text value"
     x="398.56674"
     y="168.94789"
     id="textValue1939">{{ value('1939') }}</text>
  <text
     class="text value"
     x="556.45752"
     y="299.98813"
     id="textValue1935">{{ value('1935') }}</text>
  <text
     class="text value"
     x="389.52075"
     y="399.88467"
     id="textValue1943">{{ value('1943') }}</text>
  <text
     class="text value"
     x="283.34259"
     y="282.18927"
     id="textValue1915">{{ value('1915') }}</text>
  <text
     class="text value"
     x="115.17018"
     y="237.27548"
     id="textValue1927">{{ value('1927') }}</text>
  <text
     class="text value"
     x="129.27362"
     y="318.33295"
     id="textValue1923">{{ value('1923') }}</text>
  <text
     class="text value"
     x="166.82535"
     y="464.37894"
     id="textValue1947">{{ value('1947') }}</text>
  <text
     v-if="transport === true"
     class="text titleSmall"
     x="293.95"
     y="609.34235"
     id="textTransportTitle">{{ $t('regions.1970') + ':' }}</text>
  <text
     v-if="transport === true"
     class="text virtualValue"
     x="318.65976"
     y="609.88141"
     id="textValue1970">{{ value('1970') }}</text>
  <text
     v-if="army === true"
     class="text titleSmall"
     x="748.8092"
     y="609.34235"
     id="textArmyTitle">{{ $t('regions.1972') + ':' }}</text>
  <text
     v-if="army === true"
     class="text virtualValue"
     x="770.04761"
     y="609.88141"
     id="textValue1972">{{ value('1972') }}</text>
  <text
     class="text titleCity"
     x="751.9035"
     y="80.152252"
     id="textTitle1971">{{ $t('regions.1971') }}</text>
  <text
     class="text titleCity"
     x="553.93024"
     y="555.27435"
     id="textTitle1979">{{ $t('regions.1979') }}</text>
  <text
     class="text titleCity"
     x="732.73236"
     y="531.75842"
     id="textTitle1975">{{ $t('regions.1975') }}</text>
  <path
     class="pathLine"
     d="M 590.43235,185.21925 C 746.81787,85.028729 746.62702,84.746925 746.62702,84.746925 v 0"
     id="path915" />
  <path
     class="pathLine"
     d="m 542.93,523.09 c 14.1131,16.51139 14.09587,16.55783 14.09587,16.55783 v 0"
     id="path915-3"
     style="stroke-width:0.121953" />
  <path
     class="pathLine"
     d="m 717.88118,482.64745 c 14.28008,32.75821 14.26265,32.85035 14.26265,32.85035 v 0"
     id="path915-3-6"
     style="stroke-width:0.172788" />
</svg>
