<?xml version="1.0" encoding="UTF-8" standalone="no"?>
<svg
   xmlns:dc="http://purl.org/dc/elements/1.1/"
   xmlns:cc="http://creativecommons.org/ns#"
   xmlns:rdf="http://www.w3.org/1999/02/22-rdf-syntax-ns#"
   xmlns:svg="http://www.w3.org/2000/svg"
   xmlns="http://www.w3.org/2000/svg"
   id="svgRepublic"
   preserveAspectRatio="xMidYMid meet"
   viewBox="0 0 950 650"
   version="1.1">
  <metadata
     id="metadata47">
    <rdf:RDF>
      <cc:Work
         rdf:about="">
        <dc:format>image/svg+xml</dc:format>
        <dc:type
           rdf:resource="http://purl.org/dc/dcmitype/StillImage" />
        <dc:title></dc:title>
      </cc:Work>
    </rdf:RDF>
  </metadata>
  <defs
     id="defs45" />
  <!--        <title id="title">{{ $t('republic') }}</title>-->
  <!-- РЕСПУБЛИКА -->
  <path
     id="republic"
     class="region"
     d="m 122.17233,32.860886 c -0.15828,-0.0031 -0.32616,0.02614 -0.4901,0.04454 0.15994,0.26477 0.31417,0.527616 0.19731,0.700132 -0.29879,-0.399397 -0.6073,-0.687639 -0.99929,-0.24823 l -0.1973,0.700132 c -0.56361,0.06012 -1.5007,-0.388713 -1.60395,0.299156 -10e-6,0 0.84788,-0.04977 0.54738,0.400986 -0.30049,0.450742 -0.80197,0.700133 -0.80197,0.700133 -0.0387,-0.08709 -1.27351,-0.555897 -1.29844,0.305512 -0.004,0.160796 -0.91119,-0.419397 -1.50847,0.146389 -0.35392,0.335268 -1.71842,0.450491 -1.84581,0.553743 -0.95772,0.235423 -1.82522,0.189119 -2.90875,0.801974 -0.23211,-1.045029 -0.74757,-0.339272 -1.20296,0 -0.61387,-0.244969 -1.12487,-0.06754 -1.59758,0.299156 -0.25012,0.400662 -0.12328,0.802286 0.0445,1.202959 l -0.59829,0.101831 c -0.33079,-0.586216 -0.73449,-0.749113 -1.25388,-0.203672 -0.75815,0.05541 -1.56638,0.103504 -2.10041,0.203672 -0.22199,0.09106 -0.89554,-0.148836 -0.35006,0.49646 l -0.8529,0.203682 c -0.0456,-0.690555 -0.88224,-0.310666 -1.55302,-0.152756 -0.42699,0.09169 -0.79927,0.230781 -0.8529,0.649217 l -1.247509,-0.09545 c -0.355017,-0.263725 -1.497516,0.559326 -0.751058,1.298434 0.33763,0.334305 -0.865623,-0.751058 -0.865623,-0.751058 -0.465378,0.05363 -1.056853,-0.534391 -1.393908,0.203671 l -0.795606,-0.05092 c -0.512718,-0.436303 -0.766416,-0.07862 -1.107485,0 -0.243359,-0.124946 -0.342544,-0.279783 -0.350072,-0.451902 l -0.598301,0.451902 c -0.278947,0.12456 -1.137711,0.04057 -0.203672,0.598302 l 0.426444,0.140022 c -0.110999,0.0094 -0.367123,0.576513 -0.572833,0.814707 -0.294619,0.341143 -0.751058,-0.10183 -0.751058,-0.10183 0.209411,0.272903 0.316448,0.750315 0.789239,0.49646 0.02018,-0.114533 0.134084,0.60401 0.464636,0.356428 0.381185,-0.285481 1.470228,-0.272412 1.400275,-0.05092 -0.06712,0.120774 -0.124622,0.396397 -0.350072,0.547376 -0.445388,0.285418 -0.661177,-0.0073 -0.929271,-0.16548 -0.195402,0.149024 -0.395237,0.289359 -0.222763,0.668307 0,0 -0.241413,0.659755 0.400987,0.553743 0.296595,-0.04893 0.774163,0.09911 1.183859,0.362795 0.365189,0.235057 0.770148,0.184581 0.770148,0.184581 0.350584,0.05457 0.69962,0.115453 1.050204,0.400986 -0.05583,0.239187 0.0162,0.539765 -0.299146,0.649217 l -1.406631,-0.09545 c -0.08186,-0.143326 -1.225731,-0.331671 -1.20296,0.1464 0.01192,0.250133 -0.668318,-0.413721 -0.668318,-0.413721 -0.500831,0.500831 -1.174878,1.290624 -1.502105,1.502106 -0.144466,0.122886 -0.267729,0.253415 -0.133666,0.515561 0.221016,0.215956 0.635197,0.115861 0.604669,0.751058 0.528536,0.269945 0.627596,0.755919 0.903803,1.152034 -0.956935,0.123755 -1.335454,0.50519 -1.903091,0.801973 -0.59297,0.139531 -1.211544,0.259543 -1.253875,0.903814 -0.409529,-0.09723 -0.908342,-0.304174 -1.005656,0 l 0.356439,0.700133 c 1.385721,0.0042 1.98327,0.235966 1.247508,0.852898 l 0.502827,0.350061 h 1.502106 c -0.04234,0.328158 -0.239125,0.664868 0.299156,0.948373 l 1.30479,-0.10183 c 0.275716,0.29443 0.409476,0.48359 0.852899,0.903814 l 0.197304,0.350061 -0.400976,0.299156 -0.700142,2.004933 c -0.167948,-0.152684 -2.447624,0.986888 -2.507761,1.13931 0.03178,0.01725 0.03408,0.02049 0,0.01275 -0.0094,-0.0021 -0.0031,-0.0042 0,-0.01275 -0.222375,-0.120806 -1.848381,-0.760781 -1.998566,-0.585568 0.0063,-0.610669 0.02488,-1.249714 -0.751058,-0.203682 -0.05039,0.317202 -0.07235,0.637539 -0.35006,0.95473 l -0.751058,0.400986 c 0,0 -0.986617,0.207059 -0.7065,0.05092 1.361582,-0.758952 -0.664135,-0.89452 -0.948362,-0.801973 l -1.20296,-0.400987 c -0.322073,-1.1e-5 -1.333112,-1.243922 -0.751058,-1.355716 0.692281,-0.132976 -0.288837,-0.776317 -0.801973,-0.801973 0.04861,-0.255486 -0.653639,-0.395853 -0.611025,0 0.01537,0.142782 0.102981,0.369099 -0.03816,0.350061 -0.314734,-0.04245 -1.924221,-0.563717 -1.852177,-0.09545 0.270907,0.924358 0.0828,1.103993 -0.400986,0.801973 -0.349193,0.683561 -0.931865,-0.316376 -1.406632,-0.553743 -1.405366,-0.4838 -2.190507,-0.481876 -1.852176,0.400986 0,1.1e-5 -0.561229,-1.391628 -0.751058,-0.700132 -0.221895,0.808299 -0.637466,1.124632 -0.700132,0.999288 h -0.400987 l -0.197315,1.050204 c -0.529801,0.232861 -1.107067,0.43462 -1.457557,0.801973 0.102249,-0.322627 -1.43787,-0.724994 -1.546664,-0.591935 0.05029,0.07172 0.07381,0.119395 0.04454,0.09545 -0.05217,-0.04266 -0.06012,-0.07643 -0.04454,-0.09545 -0.285962,-0.407604 -1.651171,-2.080417 -1.858533,-2.011299 -0.31258,0.0666 -0.738261,0.02635 -0.840165,0.324603 l 0.64285,0.528285 c -0.276772,0.588871 -0.137545,1.052807 0.05092,1.502116 -0.03649,0.0804 -1.088238,0.941295 -1.005645,-0.101831 0.02854,-0.360035 -0.245637,-0.527752 -0.04454,-0.751058 0.514411,-0.571234 0.122071,-0.699755 -0.356428,-0.751047 -0.268178,-0.02875 -0.649217,-0.751058 -0.649217,-0.751058 L 68.04553,55.946323 c 0.05363,-0.536377 -0.549393,-0.241884 -1.005644,-0.553742 -0.732731,-0.500821 -0.41646,-0.837416 -0.407354,-0.846522 -0.210133,-0.524166 -0.793076,-0.424332 -0.961096,-0.400986 -0.490763,-0.09221 -1.013873,-0.207269 -1.139311,-0.02551 -0.100158,0.05687 -0.820928,0.139938 -0.999288,-0.114565 -0.16618,-0.237127 -0.250426,1.061808 -0.859255,0.22914 -0.05604,-0.07664 -0.464877,-1.457516 -0.54102,-1.444834 -0.02415,-0.88694 -0.794142,0.04851 -1.202959,0.101831 -0.290353,-0.154847 -1.384206,0.700393 -0.700133,1.152044 0.304279,0.200891 -1.201611,0.05092 -1.502105,0.05092 -0.300505,0 -1.175641,-0.20132 -0.751058,-0.254598 1.215035,-0.152422 0.45392,-0.879715 -0.203671,-0.999277 l -0.795617,0.152756 c -0.894677,-1.058212 -0.602923,-0.338487 -0.400987,0.24823 -0.135265,0.138548 0.06189,0.388608 -0.451901,0.400987 -0.200337,-1.050151 -0.404333,-0.244456 -0.604659,0.598301 -0.50841,-0.0084 -0.712667,0.397139 -0.846531,0.903804 -0.105344,-0.123179 -1.39693,0.384091 -1.654862,0.948373 -0.177921,0.389214 -0.942006,-0.339617 -0.942006,-0.1464 -0.962048,0.21213 -0.857917,0.893694 -0.572833,1.559398 -0.82213,0.235298 -1.528201,0.527637 -1.788528,1.043837 -0.911446,0.274461 -0.971697,0.0528 -0.954729,0.420077 -0.19904,-0.04977 0.577894,2.571681 0.903804,2.851465 0.361331,0.310196 -1.783812,1.306442 -2.119498,1.13931 -0.385524,-0.191941 -0.591548,-1.364833 -0.986554,-1.508472 0,0 -0.700456,-1.39808 -1.101119,-1.648505 -0.400673,-0.250416 -0.502827,-0.305513 -0.502827,-0.305513 -0.313939,0.32245 -0.266014,1.042634 -0.999288,0.903814 -0.350814,0.519022 -0.150917,1.090225 0,1.654862 l -1.406632,0.999288 -0.350071,2.552309 c 1.151564,0.667837 1.225908,1.514755 -0.451902,2.654149 l -0.897447,2.40592 2.304078,0.649217 c 0.07266,0.918189 -0.108929,1.837801 0.299146,2.755991 l 0.553753,0.451901 c 0.351797,-0.06367 0.190122,-0.417683 0.248231,-0.649206 l 0.700132,0.101831 c 0.173018,0.379114 1.153759,0.106127 1.750335,0.146389 l 1.457557,1.954017 c 0.484009,0.584439 0.797875,1.335214 1.196593,2.004933 l 0.655584,1.591223 c 0.0052,0.244027 -0.190164,0.26064 -0.515551,0.127299 l -0.534652,0.133655 c -0.309183,-0.310552 -0.66445,-0.827797 -0.655584,0.451912 0.241727,0.381739 0.447845,0.407835 0.642849,0.369162 l 2.0113,1.005645 c -0.03826,-0.155077 -0.08908,-0.273688 -0.08908,-0.273688 0,-1.1e-5 0.171627,0.17145 0.515551,0.09545 0.228816,-0.0506 -0.244927,-0.89245 -0.369162,-1.05657 -0.07318,-0.0966 0.720216,0.632123 1.253886,0.0827 0.279929,-0.288168 0.547375,0.260964 0.547375,0.260964 0.578835,-0.476283 1.158778,-0.915492 1.737612,-1.502105 0.01108,-0.0052 0.531171,-0.399534 0.871979,-0.432812 0.415561,-0.04056 1.092149,-0.794215 1.4321,-0.502827 0.03597,-0.251931 0.79548,-0.499294 1.062937,-0.56011 0.494286,-0.1124 1.48038,0.221884 1.304791,0.375529 0,0 0.811738,0.872878 1.247518,0.935639 0.354086,0.05102 1.119854,0.747304 0.992921,-0.05092 -0.01046,-0.06607 0.126002,-0.01275 0.184581,-0.01275 0.311326,0 0.687409,-0.751057 0.687409,-0.751057 0.519942,0.444175 1.721448,0.38866 1.508472,0.171847 -0.45116,-0.459273 0.93014,0.524437 0.852888,0.623759 l 0.375529,0.846532 -0.661951,0.770148 0.216406,0.381896 c 0.431933,1.745652 -0.0063,1.439292 0.07643,2.144955 l -0.681041,1.508473 -0.585568,0.884713 c 0,1e-5 -0.306945,0.149473 0.203672,0.604668 0.510627,0.455195 1.85984,1.021568 1.705787,0.999288 -0.311315,-0.04506 -0.148888,0.359586 -0.833798,0.197305 -0.78995,-0.187163 -2.09404,-0.566477 -2.09404,-0.566477 -0.05478,-0.03649 -1.637862,0.192433 -1.909458,0.260964 0.01997,0.01045 0.04663,0.02666 0.05092,0.03178 -0.01276,-1.25e-4 -0.04088,-5.2e-5 -0.08908,-0.01275 -0.01119,-0.0031 0.0052,-0.01077 0.03816,-0.01913 -0.132568,-0.06963 -0.54102,-0.235496 -0.54102,-0.235496 l -0.80834,0.502827 -0.617392,-0.356438 -0.470993,0.852899 -0.01913,0.674674 -1.139321,0.668308 0.07643,0.617392 c 0.41049,0.302376 0.964766,0.512028 1.050204,1.031113 0.155067,0.110079 0.185271,0.633921 0.49646,0.305512 l 0.611025,0.458269 -0.757414,0.09545 c 0,-1e-5 -0.38107,0.16548 -0.630126,0.16548 -0.249056,1.1e-5 -0.903814,-0.668307 -0.903814,-0.668307 -0.804619,-0.415038 -1.485493,-0.26683 -2.17678,-0.171847 -0.143128,0.258727 -0.529927,0.305188 -0.24823,0.935628 -0.0021,0.500172 0.206421,0.784848 0.49646,0.992921 0.507104,-0.307216 1.051019,-0.147173 1.61667,0.248231 0.07538,0.682745 0.206421,1.38454 0.687409,2.183157 0.290572,1.037292 0.581417,1.568347 0.871989,1.432089 0.334274,0.705663 0.374996,1.407478 0.06367,2.113141 l 1.311158,-0.07643 0.929271,1.82035 1.12022,-0.43281 c 0.01955,0.52906 0.223003,0.46891 0.445546,0.49009 0.130717,0.0125 0.672803,-0.33736 1.107485,0.50283 0.192956,0.0381 0.465671,-0.0926 0.439168,0.43918 -0.304519,0.8717 -0.647105,1.74426 -1.183859,2.61595 -0.04924,0.51367 -0.249119,0.62558 0.0063,0.92291 0.137137,0.1596 0.130854,0.63574 0.08908,1.07566 0.680121,-0.67594 2.410018,-2.13051 2.698698,-2.17042 0.221539,-0.0306 2.649832,-0.70341 3.405208,-0.60466 0.650021,0.085 3.007838,1.99495 2.953295,2.04949 -0.163253,0.68447 0.433585,1.37138 1.005655,2.05585 0.295047,0.72946 0.497297,1.09061 0.700132,1.45119 0.841305,0.17654 1.267111,0.0631 1.960374,-0.31825 l 0.04454,-19.762902 9.260883,-3.055136 9.197234,7.402339 c 0,0 2.875563,3.812551 3.176068,3.812551 0.300504,1.1e-5 3.901671,-0.757414 3.901671,-0.757414 0.008,-0.0115 4.86755,0.251157 4.79274,0.400986 -0.20627,0.413104 1.65487,-0.992921 1.65487,-0.992921 0.78999,0.837656 1.50079,1.699985 2.41865,2.495027 l 0.95473,2.2659 1.0502,-0.846535 -0.40098,5.448325 h 1.90309 c 0,-1e-5 0.20641,2.00214 0.20367,2.40592 -0.003,0.52566 0.401,2.20224 0.401,2.20224 0,0 1.94123,0.28291 2.50138,0 0.5804,-0.29312 2.19932,-0.0596 2.05586,-0.0954 l 0.75105,0.84653 c -0.20202,0.32815 -0.50841,0.6025 -0.40098,1.10748 0.0357,0.2138 1.63374,1.73116 1.95401,0.99929 0.19674,-0.44958 -0.18103,-1.20296 -0.20367,-1.20296 -0.13966,-0.43692 0.70999,-0.75294 0.65558,-0.8529 -0.0733,-0.13454 0.27603,-1.09664 0.99928,-1.10111 0.39116,-0.002 -4.8e-4,-1.20296 0.35007,-1.20296 0.35058,-1e-5 0.90381,-0.54738 0.90381,-0.54738 l 1.20296,-0.8529 c 0.46364,-0.0691 0.90609,-0.15122 0.99928,-0.4519 0,1e-5 0.68208,-0.22228 0.8529,-0.59829 0.80631,-1.77488 0.98215,-0.90403 1.59758,-0.8529 -0.42509,-0.31322 0.73138,-1.24827 1.20296,-1.10112 0.19124,0.0597 -0.54738,-0.40099 -0.54738,-0.40099 0.0527,0.079 0.79567,-0.51187 0.64922,-0.85289 -0.19261,-0.44849 0.25584,-0.85396 0.50282,-0.75105 l 0.29915,-0.70014 0.64922,-0.24822 0.65557,0.0445 c 0.10089,-0.24671 1.09802,0.14101 1.64851,0.0509 0.28419,-0.0465 2.2843,0.30991 2.15769,0.60467 0.1012,-0.19107 0.55027,0.0792 0.64921,0.64922 0.0343,0.19738 0.9583,-0.13253 1.413,-0.0191 0.45471,0.11341 0.43918,0.6683 0.43918,0.6683 l 0.50283,0.0509 c 0.15438,-0.0464 -0.21208,-0.76982 -0.19732,-1.12021 0.0147,-0.35039 0.19578,-0.68336 0.3628,-1.20932 0.20202,-0.63615 0.0225,-1.04384 0.0954,-1.04384 l 0.92927,-0.381896 c 1.34714,-0.660352 2.32349,-0.599755 2.91512,0.203671 0.97189,0.797845 1.50341,0.798625 2.25316,1.196605 l 1.50211,0.15275 0.53465,-0.75742 2.62232,0.30551 1.60395,-0.40098 0.70013,0.35007 c 0,-0.22313 2.6528,0.0673 2.95331,0.30551 0.24822,0.19677 1.85217,-0.1273 1.85217,-0.1273 l 1.71852,0.66832 0.6874,-0.1464 c -0.0125,0.37871 -0.0122,0.7443 0.29915,0.7065 -1e-5,0 0.30249,0.49813 0.50283,0.5983 0.20033,0.10016 0.0177,0.48973 0.1973,0.40099 0.39598,-0.19565 1.97908,0.0258 1.9031,0.10183 -0.113,0.113 0.83257,1.82543 1.00565,1.5021 0.0974,-0.18206 -0.4519,-2.40373 -0.4519,-2.65415 0,-0.25041 0.40735,-0.91018 0.40735,-0.91018 0.64217,0.0308 0.86554,-0.2558 1.14567,-0.49645 1e-5,0 -0.98321,-0.29613 -0.78287,-0.496459 0.20033,-0.200347 1.13294,-0.700143 1.13294,-0.700143 l 0.50283,0.299156 c -0.0938,-1.886479 -1.08705,-3.810083 -1.64851,-5.696562 l 0.0445,-1.667596 c -1e-5,0 0.003,-0.404938 0,-0.852888 -0.003,-0.386549 0.62743,-0.357254 0.471,-0.668318 -0.2392,-0.475624 -1.15841,-0.490094 -1.15841,-0.490094 0,1.1e-5 -0.5189,0.410375 -0.71923,0.210039 -0.20034,-0.200326 -0.4901,-0.649217 -0.4901,-0.649217 0.4307,-0.343297 0.64834,-0.80673 1.74398,-0.751048 0.40237,-0.356981 1.1467,-0.602054 2.31045,-0.738323 0.83265,-0.09754 1.60596,-0.490293 2.29772,-0.814708 0.41969,-0.587554 1.23519,1.277786 1.30479,1.050204 0.1168,-0.381917 1.42496,-0.602797 1.9031,0.10183 -1e-5,0 0.89796,-0.951195 0.54738,-1.502115 -0.35059,-0.55092 -1.15372,-0.205658 -1.25388,-0.706499 -0.10015,-0.500821 0.50366,-1.252527 0.55375,-1.553021 0.0501,-0.300505 0.50281,-2.501393 0.50281,-2.501393 10e-6,0 0.69629,-1.700581 0.84654,-2.151333 0.15025,-0.450741 0.55374,-1.457547 0.55374,-1.457547 0.15189,-0.560768 -0.2167,-1.73045 0.64922,-1.45119 l 2.95966,1.406632 c 0.4663,-0.277055 1.42524,-0.194252 2.39955,-0.101831 1e-5,1e-5 0.38708,1.393876 0.60467,0.948373 0.35058,-0.717832 2.15132,-1.526329 2.15132,-1.400275 0.19393,0.08312 1.65878,-1.622681 1.0502,-1.654861 -0.3555,-0.01882 -0.81511,-1.94304 -0.75105,-2.450479 0.0502,-0.397515 0.71878,-2.614964 0.65558,-2.908747 -0.0809,-0.375999 0.93266,-0.595823 1.83945,-0.477359 0.52791,0.069 1.14973,-0.654978 1.56576,-0.821074 0.60157,-0.24017 0.583,-1.544667 0.44553,-1.801251 -0.47457,-0.885853 1.29761,-1.425618 2.10678,-0.757425 0.54065,0.446465 -0.45191,-1.050204 -0.45191,-1.050204 -1e-5,0 -0.60414,-0.403401 -0.85288,-0.299145 -0.28513,0.119499 -0.7278,-0.994887 -0.70015,-1.050204 -0.12742,-0.239845 -0.38449,-0.349349 -0.70013,-0.400986 0.0458,-0.127362 -0.0104,-0.303558 0.29915,-0.299146 0.27803,-0.100157 0.35614,-0.205355 0.40098,-0.305512 0.0453,-0.329047 -0.11334,-0.449383 -0.35006,-0.496461 -0.16695,-0.104026 -0.33588,-0.115976 -0.50282,0.24822 -0.0788,0.417767 -0.2764,0.693462 -0.73197,0.687409 -0.2668,-0.296438 -0.33098,1.02255 -0.46463,0.916548 -0.20327,-0.161246 -1.76338,-0.630189 -1.85854,-0.649217 -0.52662,-0.387124 -1.13043,-0.221445 -1.75035,0.04454 0.0924,-0.864096 -0.45354,-1.543204 -0.91017,-2.081306 0.0697,-0.167916 0.44618,-0.36659 0.15913,-0.668318 -0.73115,-0.261613 -1.11787,-0.815627 -2.35501,-0.655584 -0.0187,0.06566 -0.79865,-0.858785 -0.64922,-1.69941 0.13902,-0.782035 -0.46184,-0.819872 -0.70013,-0.935639 -0.33033,-0.160482 0.0509,-0.719233 0.0509,-0.719233 -0.75126,-0.371368 -1.50191,-0.840447 -2.25317,-0.948362 -0.52973,-0.140315 -0.62719,0.0552 -0.74469,0.235496 -0.18191,0.164633 -0.0788,0.453648 -0.96109,0.31188 -1.11491,-0.357369 -0.84204,0.599995 -1.20296,0.954729 0,-0.221633 -2.09413,-0.233938 -1.45119,0.146389 0.40568,0.239982 -1.26022,-0.519534 -1.85218,-0.445535 -0.0172,0.231817 -0.36818,0.19237 -0.9038,0 0.46122,-1.42246 -0.435,-1.073099 -1.15205,-0.954729 -0.0583,-0.486873 0.68237,-1.659765 -0.29914,-1.349359 l -0.71287,-0.451902 c -0.33259,-0.367291 -0.54485,0.09995 -0.78925,0.350071 -0.31931,0.04286 -0.83657,-0.0713 -0.35006,0.598291 l -0.15276,0.852899 c -0.63293,0.259124 -1.46805,0.471097 -1.20296,0.954729 -1e-5,0 -4.7532,-8.316179 -5.05371,-8.917178 -0.30049,-0.600999 -2.15769,-3.354293 -2.15769,-3.354293 l -1.40027,-2.004932 -4.41085,-3.004211 c 0.23082,0 -0.38091,-0.893589 -0.22278,-1.043847 0.24357,-0.231419 0.86921,0.37808 1.12659,0.140033 0.24604,-0.227561 0.52356,-0.988917 0.40099,-1.050204 0.0484,-0.353521 -0.0591,-0.588432 -0.19732,-0.801973 -0.30489,0.294525 -0.5319,0.639306 -1.05656,0.801973 h -0.99929 v 0.502828 c -0.99738,0.144727 -1.45432,0.525849 -2.05585,0.846521 l -0.54738,-0.197304 c -0.3655,0.03115 -0.60711,0.138914 -0.50282,0.451902 0.12687,0.139677 0.4073,0.267707 0,0.451902 -0.19931,-0.10732 -1.1511,0.983543 -1.15204,0.948372 -0.0127,-0.47232 -1.25388,-0.24823 -1.25388,-0.24823 -0.0843,0.256563 0.0254,0.537235 -0.40098,0.751048 -0.33107,-0.139897 -0.53322,-0.120587 -0.39463,0.350071 -0.16423,-0.09734 0.0207,0.485232 0,0.801973 -0.0323,0.494328 -0.99928,-0.636493 -0.99928,-0.636493 -0.25245,-0.265858 -0.50498,-0.161988 -0.75743,-0.16548 -0.64053,-0.284676 -0.86782,0.04935 -1.25387,0.146389 0,-0.07653 -0.65176,0.984787 -0.70013,0.751058 -0.0916,-0.442252 -0.56693,-0.472393 -0.64922,-0.598302 -0.24289,-0.371577 0.0223,-0.269035 0.14002,-0.649216 0.059,-0.190269 0.30939,-1.366861 1.01201,-0.95473 l 0.35007,0.101831 c 0.009,-0.520016 0.20892,-0.810892 0.45191,-1.050204 -0.2624,0.07747 -0.7829,-0.694225 -0.75105,0.350071 -0.61428,0.14041 -1.19495,-0.02269 -1.89674,-0.05729 l -0.15912,-0.547387 c -0.31633,-0.296364 -0.85654,-0.212045 -1.29843,-0.299145 l -0.40099,0.350071 c 0.75984,0.193949 0.71913,0.463528 0.49646,0.751048 -0.45175,-0.178737 -0.34153,0.01903 -0.40099,0.10183 -0.25427,-0.0021 -0.72032,0.110498 -0.49646,-0.152756 -0.13883,-0.293646 -0.0399,-0.442482 0.0509,-0.598302 0.33116,0.0436 0.008,-0.329172 -0.30552,-0.700132 l 0.15276,-0.350071 c -0.47371,-0.249161 -0.65044,-0.55966 -0.90381,-0.852889 l -0.24823,0.152757 c 0.095,0.333887 -0.14966,0.66539 0.4519,0.999277 -0.0105,0.190154 -0.022,0.376 -0.40099,0.197315 -1.43309,-0.965184 -1.15775,-0.276301 -1.25387,0.05092 -0.0628,0.334127 -0.46958,0.287342 -0.90382,0.203671 -0.27446,-0.679745 -0.68344,-0.552645 -1.14567,-0.152756 -0.2271,0.106462 -0.36217,-0.50426 -0.67468,-0.910181 0,0 0.97072,0.04569 0.77015,-0.241863 -0.35048,-0.502473 0.005,-1.397055 0.19731,-1.654862 -0.29833,-0.154387 -1.10021,-1.110643 -0.94837,-2.202248 0.0504,-0.362053 -0.96192,-1.049179 -0.59829,-1.101119 -0.14639,-0.284153 -0.41623,-0.286233 -0.75106,-0.146399 -0.33616,-0.310301 -1.0803,0.590951 -1.413,0.738334 -0.79646,0.35281 -1.68482,-0.957364 -1.61031,-0.80834 -0.40735,-0.117931 -0.8982,-0.561156 -1.13294,-0.03178 -0.37462,-0.743217 -0.61701,-0.4176 -0.8529,-0.05091 -0.15953,-0.395592 -0.39816,-0.491798 -0.66194,-0.496461 z m 7.96881,4.098973 c 0.0763,0.03952 0.11533,0.03231 0.10183,-0.04454 -0.009,-0.05133 -0.0481,-0.0276 -0.10183,0.04454 z"
     style="fill:#00aad4"
     v-on:click="onRepublicClick()" />
  <!-- РАЙОНЫ -->
  <path
     id="region196346"
     class="region"
     d="M 833.37543,324.86186 V 328.72 l -2.76727,3.56937 -3.07207,-3.26457 -4.45971,3.76188 -2.57477,-2.95176 -3.56135,0.67377 -0.29678,3.56136 -2.18173,2.47851 -4.4517,-1.88495 -1.80474,0.98659 0.6096,7.33928 h -3.36083 l -6.87405,4.27523 v 5.18963 l -4.43565,2.59883 -4.12283,-1.2192 -6.41686,2.75122 -1.37963,5.68694 -8.55046,1.18712 -5.35005,2.75123 -11.422,-1.82078 4.66826,9.76164 7.63606,3.81803 -2.54268,13.16257 3.39291,5.9356 -0.85023,7.21896 3.81803,8.91141 -0.84222,2.9678 v 9.33652 l 8.4863,6.79385 5.51849,6.36873 2.54268,6.36071 18.24794,-4.24315 6.36873,7.21896 v 11.02898 l 18.24793,-5.9356 3.81803,-10.18675 9.33653,-17.40573 24.19155,-4.24314 -4.66827,-8.06118 4.66827,-8.06118 v -14.00479 l -2.11756,-11.4621 -9.34455,-5.5185 V 358.8712 l -15.27212,-35.64564 z"
     style="fill:#00aad4;stroke-width:0.802107" />
  <path
     id="region196358"
     class="region"
     d="m 761.65904,373.97488 7.53179,3.91428 -2.47049,13.00215 3.49718,6.11206 -1.02669,7.15479 3.81802,9.16809 -0.87429,2.79133 v 9.24829 l 8.55046,6.63343 5.67892,6.92218 2.47851,6.00778 -19.65162,9.98624 -25.20221,-0.97055 -18.65701,-4.6041 -10.66,-4.84472 -7.03448,1.21118 -8.47827,-5.81528 -7.56387,4.6041 -8.23764,2.66299 -5.09338,4.12283 -1.21118,6.77781 h -5.08536 l -2.663,2.67101 -7.75637,-4.36346 -20.59811,-2.42236 -6.05591,6.78582 -13.33102,-6.78582 -9.69747,-5.81528 h -8.71891 v -5.57464 l -2.42236,-3.63355 -9.69747,-1.45983 v -3.87418 l -3.87418,-5.08536 v -7.997 l -3.63354,-4.85275 -9.93811,-7.02646 3.39291,-7.99701 3.39291,-2.90363 v -6.30456 l -4.12283,-3.14426 0.72992,-7.997 -1.70047,-6.30456 -15.50472,-3.15229 6.54519,-13.08236 -4.36346,-7.99701 3.39291,-16.47528 5.81528,1.69245 2.42236,-2.91165 8.23764,1.2192 16.96456,-4.12283 20.83874,1.9411 6.05591,10.90064 1.70047,9.9381 3.87418,5.81528 9.69747,-3.63355 h 11.14929 l 19.86819,-8.23764 h 16.62768 l 24.72094,4.35545 40.47432,11.63857 3.11218,2.76727 z"
     style="fill:#00aad4;stroke-width:0.802107" />
  <path
     id="region196364"
     class="region"
     d="m 683.13276,447.17516 -4.949,3.93033 -1.1791,6.99437 h -4.95702 l -2.98384,2.63091 -7.39542,-4.28325 -20.70239,-2.51861 -6.04788,6.71363 -23.14079,-12.52891 h -8.54244 l -0.0963,-5.49443 -2.3983,-3.64959 -9.41673,-0.92242 -4.02658,11.34981 -14.97534,-8.39004 -2.86352,-2.95977 -2.32611,2.95977 h -2.71112 l -6.41686,5.67892 -10.61188,-2.22184 -9.37663,-2.22183 -8.63869,7.89273 -4.94098,-11.34982 -4.93296,4.44368 H 509.1397 l -3.95439,-2.22184 -6.41686,-0.73794 -3.44906,-3.45708 -0.99461,-5.92757 -4.43565,1.4839 -3.95439,2.47049 2.22184,7.40345 3.95439,2.22183 -2.22184,5.6709 -3.95439,1.9812 -1.72453,6.16821 -1.72453,8.14138 -4.44367,3.70574 1.72453,5.18161 -5.67892,6.41686 7.40345,8.39004 v 7.40344 l 5.92757,6.41686 0.73794,14.8069 13.57967,2.95977 0.98659,4.20304 2.46247,3.20843 49.85898,15.29618 18.18376,-4.44367 6.66551,4.44367 7.40345,2.22184 6.90614,3.20843 1.73255,-8.6387 7.89274,0.74596 v 13.07435 l 28.76355,21.72106 12.75351,23.85466 7.26709,4.11481 7.40344,9.18413 -0.82617,8.36597 5.62277,8.77505 7.40345,0.4171 2.08548,-26.74225 6.14414,-22.61942 -4.11481,-17.83084 10.97283,-48.67185 -2.74321,-13.02622 5.63079,-57.30253 z"
     style="fill:#00aad4;stroke-width:0.802107" />
  <path
     id="region196334"
     class="region"
     d="m 566.34597,357.66804 -6.57727,13.0583 15.47264,3.24854 1.78068,6.16018 -0.81013,8.02909 4.21908,3.24051 -0.24063,6.24842 -3.16832,2.67903 -3.40094,8.26973 10.21885,7.29917 3.40093,4.53993 -0.24063,8.02909 4.05064,5.18963 0.48929,4.05866 -4.2993,11.51826 -14.97534,-8.30181 -2.80737,-2.98384 -2.14163,2.98384 h -2.83143 l -6.40884,5.62277 -20.08476,-4.37148 -8.6788,7.79648 -4.86879,-11.12523 -4.94098,4.33138 h -10.31509 l -4.01054,-2.25392 -6.44894,-0.46522 -3.51323,-3.85814 -0.90638,-5.72704 -4.52388,1.49192 -3.82606,2.22986 2.17372,7.57991 3.88219,2.22986 -2.02131,5.56662 -4.0346,2.08548 -3.58541,14.33365 -4.44368,3.60146 1.85287,5.2137 -5.69496,6.49706 7.51574,8.46223 -0.16042,7.22699 5.95966,6.53717 0.72992,14.8069 -34.97989,18.36023 -2.71113,-3.09614 -27.05507,-23.38142 -29.18867,6.95427 -4.949,-6.95427 -11.59847,-0.97055 -21.26386,-10.0504 -6.76176,13.14654 -10.43541,-7.1548 -9.47289,9.08787 h -17.5902 l -8.50234,6.76177 -11.59847,-1.54807 -3.67365,11.98348 -11.01293,-3.48114 -17.3977,-12.17599 2.71112,-3.47312 0.57752,-16.62768 12.7535,1.93308 -5.60673,-18.36023 -3.66563,-7.33928 2.12559,-21.84138 5.5987,0.57752 v -10.62792 l 2.90363,-2.51862 -1.35556,-5.21369 9.47289,-7.53981 -3.48115,-2.89561 -8.69484,1.54005 -7.73231,-7.14677 -0.96253,-5.02921 6.37675,-3.28062 -0.58554,-3.28864 -10.43541,1.74057 -12.561,-9.47288 v -3.28864 h 4.82869 l -1.34754,-7.72429 2.12558,-2.90363 15.84964,-1.15503 7.92482,-13.23477 v -4.16294 l 22.9964,-13.72405 8.88735,-13.13851 7.92482,3.28062 17.97522,-5.2137 3.67365,7.33928 v 10.24291 l 8.30983,3.28864 8.73494,-4.01856 12.17599,10.2028 -0.77805,5.90351 4.4517,3.76188 12.94601,-1.16305 1.93307,3.09613 13.53155,5.99174 1.15503,3.28062 7.53981,0.97055 7.92482,-0.97055 -1.93308,-5.79122 3.86616,-7.92481 13.91655,-5.41423 h 5.83132 l -2.12558,4.82869 0.97055,5.79923 h 5.99174 l 1.35556,-5.79923 4.05866,-0.66575 1.34754,-4.16294 5.99174,-1.74057 1.93308,3.28864 12.95403,0.77002 11.79097,-7.3473 15.64911,-0.68179 v 5.711 l 6.18424,1.54807 3.28864,3.28062 7.66815,-0.66575 6.65748,-9.87394 6.22435,3.97043 13.63582,-10.2028 20.50988,-3.32874 z"
     style="fill:#00aad4;stroke-width:0.802107" />
  <path
     id="region196332"
     class="region"
     d="m 367.64802,363.18654 -0.66575,5.8634 4.4918,3.66563 12.97809,-1.00264 1.99724,2.91165 13.18664,6.16018 1.3315,3.32875 7.6521,0.74596 7.74034,-1.08285 -1.91704,-5.82329 3.86616,-7.74034 13.98072,-5.31797 h 5.65486 l -2.07746,4.9089 1.16305,5.4062 h 5.99174 l 1.3315,-5.4062 4.07471,-0.75398 1.36358,-4.15492 5.72704,-1.70848 2.08548,3.28061 12.88986,0.83419 11.71879,-7.22698 -3.34479,-19.47516 -0.59356,-9.11194 v -9.30444 l -4.949,-23.96696 v -22.37878 l -1.98121,-12.87382 -10.69208,-11.87921 1.18712,-8.7189 -5.94362,-7.72429 -4.16293,-4.15491 -8.30983,2.17371 -22.57129,-8.71089 -3.76991,3.76188 -8.71088,-0.59355 -1.18712,-4.94901 -2.96779,-0.99461 -2.97582,4.16294 -6.53717,-5.74309 -3.36083,0.78607 -2.97582,-1.97319 -8.91141,2.76727 1.78068,9.31247 -14.45397,4.15491 -3.36885,5.94361 -7.13073,1.78068 -4.74848,7.72429 4.74848,10.49958 -9.898,13.46738 -14.46199,13.26685 6.9302,8.51838 8.51838,3.76188 h 4.949 l 7.53178,8.11732 -2.57476,2.57477 v 3.16832 l 7.52377,4.75649 -1.38765,2.57477 -6.13612,0.79408 -2.57476,-3.36885 -4.95702,3.96241 3.9624,6.13612 v 5.55058 l -3.9624,9.50497 1.78869,2.37424 3.76189,1.38764 v 6.33665 z"
     style="fill:#00aad4;stroke-width:0.802107" />
  <path
     id="region196344"
     class="region"
     d="m 461.98383,242.02024 -1.49994,8.71089 11.14126,12.56099 1.41171,12.35245 v 22.48306 l 5.06932,23.70227 0.81013,19.04202 3.56937,18.43242 h 15.32025 v 5.87142 l 6.42487,1.41973 3.03999,3.03999 7.70023,-0.81013 6.9302,-9.52101 6.07195,3.64156 13.56363,-10.12259 20.66228,-2.83946 3.24051,-16.40309 -3.85011,-2.02933 v -6.48102 l 3.24853,-2.63091 1.21118,-5.06932 3.85012,-3.84209 1.01065,-4.25919 h 5.0613 l 6.2805,-14.58231 3.44906,-2.22985 v -4.05064 l 2.63091,-4.05065 v -9.52101 l 8.50233,-1.82078 2.63893,-11.75087 1.62026,-7.49168 -2.22986,-4.86077 5.6709,0.40908 2.02933,-4.45972 3.84209,2.63091 3.85012,-9.52101 -6.68155,-2.02131 -4.05064,5.47037 -1.62026,-5.47037 -8.10128,-4.05064 -4.86077,6.07195 -10.13061,-9.72153 1.41973,-4.86077 h -3.64959 l -2.63091,-3.24051 -5.87143,-0.81013 -1.21118,-3.85012 -7.70022,-0.60158 0.40907,-3.03998 c -2.97582,-2.02933 -5.26984,-3.17635 -6.8901,-3.44104 -1.62026,-0.27272 -1.4839,-2.83946 0.40105,-7.70023 -2.96779,-4.99713 -5.26182,-8.23764 -6.88207,-9.72154 -1.62026,-1.4839 -3.5774,-1.08284 -5.87143,1.21118 l -6.07997,-5.87142 c -3.10415,0 -5.74309,0 -7.90075,0 -2.15767,0 -3.91429,-1.68442 -5.26183,-5.06129 l 0.81013,-13.1706 -12.97007,-1.41171 -11.12522,-0.98659 -7.66013,5.74308 -4.95702,-2.5908 -2.7031,1.01867 -5.5185,10.36323 2.8154,7.54782 -3.71375,6.19227 4.84472,3.72178 -1.13097,3.93834 -9.68945,-1.57213 -6.75374,2.02131 -1.35556,-4.38752 -14.085,2.02131 -5.6308,5.8634 4.49982,18.74524 5.06932,6.19227 z"
     style="fill:#00aad4;stroke-width:0.802107" />
  <path
     id="region196350"
     class="region"
     d="m 610.6303,247.2179 -4.17897,-2.42237 -1.88496,4.30732 -5.77517,-0.40105 2.27799,5.10942 -4.36346,19.14629 -8.38202,1.79672 v 9.64935 l -2.76727,3.97043 v 3.96241 l -3.28864,2.39028 -6.5853,14.51814 h -4.71639 l -1.12295,4.11481 -3.89022,4.1148 -0.97055,4.94098 -3.44104,2.61487 v 6.51311 l 3.89022,1.86891 5.53454,1.49994 2.54268,-3.07207 8.44619,1.22723 16.83622,-3.92231 20.83072,1.95714 6.23238,10.96481 1.62827,9.69747 3.79397,5.88747 9.93008,-3.5774 h 10.84449 l 20.07674,-8.54244 16.73195,0.34491 4.62014,-12.80965 5.65486,-5.18964 -0.57752,-7.73231 -12.23213,-12.92996 -0.93045,-2.79134 4.55597,-2.08548 0.40105,-10.78834 -4.35544,-4.35544 0.78607,-16.04214 3.76188,-10.89261 11.98348,-10.70011 23.07662,-13.06632 1.68442,-13.92458 -11.88722,-9.05579 -17.13301,-8.31785 -16.08225,-3.25655 v 6.56925 l -5.65485,7.03448 1.8288,7.02646 -3.36083,8.24566 -8.39806,-1.3716 -9.01568,-1.68443 -2.75123,3.05603 1.52401,3.51323 -9.62529,5.04525 4.58805,4.58003 -2.14162,4.43565 h -6.56926 l -4.58003,-2.75122 -4.28325,0.6096 -1.524,-3.36083 h -4.74046 l -7.33126,3.36083 -2.44642,-6.41686 -3.44906,-1.3716 z"
     style="fill:#00aad4;stroke-width:0.802107" />
  <path
     id="region196352"
     class="region"
     d="m 725.32359,236.598 -22.92422,12.87382 -11.70274,10.71615 -4.05064,10.79636 -0.7219,16.0261 4.41159,4.49982 -0.44918,10.71615 -4.41159,2.15767 0.81013,2.7031 12.24818,12.87382 0.62564,7.92481 -5.75913,5.12547 -4.59607,12.78558 24.31186,4.32336 40.59464,11.71879 3.19239,2.31006 11.55836,1.80474 5.28588,-2.78331 8.47827,-1.25128 1.25129,-5.27787 6.80989,-2.64695 3.6175,0.83419 4.44368,-2.63893 0.41709,-4.86077 6.95427,-4.31534 h 3.05603 l -0.55346,-7.64408 2.08548,-0.69783 4.17096,1.81276 2.50257,-2.91967 v -3.05603 l 3.75386,-0.67377 2.30205,2.85551 4.36346,-3.76189 3.24052,3.29666 2.77529,-3.69771 v -3.63355 l 8.7189,-1.66838 0.31282,-24.31988 3.67365,-20.37352 30.28756,-11.01293 c 2.07746,-4.28325 3.7298,-7.09865 4.95703,-8.44619 1.2192,-1.34754 7.03447,-3.60948 17.42978,-6.78583 l -1.64432,-9.72955 8.0692,-12.27224 -3.48114,-18.92973 -5.51048,-6.79384 -8.99162,-1.65235 -3.85814,6.60937 -4.40356,-1.65234 -3.67365,5.31797 h -9.72154 l -0.92242,5.1415 -15.04753,-0.9144 -0.55346,-7.89273 h -4.95702 l -2.93571,7.89273 -11.3819,2.77529 -4.05064,10.09853 -8.16545,2.2459 0.31282,-5.4062 -0.51335,-5.51048 -7.3473,-1.42775 -8.87932,8.06118 -8.2617,-5.51048 -5.30995,4.38753 v 3.56937 l -3.28864,3.07207 -8.2216,3.1202 -10.48354,0.85023 -3.12019,3.68167 -9.06381,-5.95163 -2.83946,3.68167 -3.68167,-2.26194 h -2.5507 l -1.13098,10.76428 -2.83945,0.85825 -2.83144,-3.1202 -3.97043,3.1202 -6.25644,-1.98923 1.43577,-5.95163 -3.40093,-5.1014 z"
     style="fill:#00aad4;stroke-width:0.802107" />
  <path
     id="region196354"
     class="region"
     d="m 727.28875,222.45685 -1.43577,13.45134 3.19239,4.40357 -1.75662,5.99174 6.27248,1.95714 3.91428,-2.8154 2.92769,2.8154 2.69508,-0.85826 0.85024,-10.63594 h 3.30468 l 3.30468,2.31809 2.92769,-3.66563 8.82318,5.87143 3.40895,-3.79397 10.26697,-0.72992 8.55046,-3.18436 3.05603,-3.05603 v -3.66563 l 5.13349,-4.0346 8.67879,5.2538 8.68682,-7.94086 7.47564,1.70849 0.47324,5.50246 -0.47324,5.13348 8.29379,-2.31809 4.15491,-10.02634 11.13325,-2.93571 2.92769,-7.66814 h 5.01317 l 0.37699,7.66814 15.28014,0.97857 0.79408,-4.90889 h 9.84186 l 3.60146,-5.43829 4.34742,1.70047 3.93834,-6.62541 9.02371,1.89298 4.90889,-11.51024 -1.51598,-3.20843 1.51598,-3.01592 h 6.79385 l 4.52388,-3.40093 5.4784,-6.22435 10.00227,3.39291 -0.94649,-14.53418 -20.18101,2.45445 -8.30181,-13.96469 -6.98635,-1.88495 v -5.28588 l -7.54783,-6.60937 -7.74033,4.53191 -5.09338,-3.96241 2.26996,-9.62528 -12.11983,6.60936 -11.88723,9.05579 -0.94649,14.91117 -8.11732,-5.85539 -6.97833,6.60937 -3.97043,-6.60937 -6.03185,3.20843 -5.85538,-1.50796 -6.41685,3.40094 -5.28589,-5.10141 -5.28589,3.20843 -7.54782,-2.45445 -6.03987,6.80187 -2.45445,14.14917 h -14.30157 l -7.92481,-5.47037 -5.47839,4.53191 -4.2993,-2.45445 -3.14426,9.64133 -2.83144,1.57212 2.2058,4.62014 -0.52939,5.34203 -8.70286,-0.52137 -2.71915,7.96493 c -2.38225,0.0722 -4.09074,0.0722 -5.1415,0 -1.05076,-0.0642 -1.92506,1.46785 -2.62289,4.62013 l -4.92494,-1.89297 -7.86065,7.97295 z"
     style="fill:#00aad4;stroke-width:0.802107" />
  <path
     id="region196348"
     class="region"
     d="m 784.69555,177.86772 -14.36573,0.33689 -7.86065,-5.67892 -5.53454,4.84473 -4.36346,-2.59883 -3.1603,9.56112 -2.87155,1.57213 2.03735,4.74045 -0.46522,5.19765 -8.44619,-0.56147 -2.69507,7.98898 -6.03185,0.28074 -1.68442,4.45169 -5.37412,-1.76463 -7.62002,7.61199 -17.8148,-8.72692 -15.81755,-3.32874 -8.25368,-7.24303 -4.3795,2.58278 -4.13085,-3.3528 h -3.86616 l -6.44894,-5.15755 -13.92458,2.31809 -9.03173,-4.6442 -2.06141,-3.86616 -6.19227,-9.54507 1.80474,-4.12283 h 6.44894 l 4.90088,-5.67892 18.05543,-4.12283 v -4.38753 l -11.13325,-5.71902 v -13.10643 c 8.45421,-4.13085 14.30959,-6.44894 17.58219,-6.96229 3.26457,-0.52137 8.85526,-2.23788 16.76404,-5.15755 l 7.997,1.28338 14.64648,-20.37352 8.76703,12.38453 6.08799,-3.6175 1.90902,-2.83144 h 11.08512 l 28.11385,10.05842 2.58278,11.27763 17.14103,17.04477 2.86352,11.46211 6.87406,4.01054 z"
     style="fill:#00aad4;stroke-width:0.802107" />
  <path
     id="region196362"
     class="region"
     d="m 632.53585,186.32193 9.19214,4.65222 13.83635,-2.26996 6.37675,4.97306 4.00252,0.32085 4.21106,3.13623 4.21908,-2.38225 7.78044,6.48904 v 7.35532 l -5.51048,6.80989 1.62026,6.91417 -3.35281,8.43014 -17.29343,-3.02394 -2.80737,3.02394 1.29139,3.56938 -9.37663,4.86879 4.43565,4.75649 -2.26996,4.32336 h -6.1682 l -4.7565,-2.7031 -4.21106,0.6497 -1.62026,-3.24853 h -4.65222 l -7.24302,3.24853 -2.59081,-6.38477 -3.78594,-2.26996 -6.59332,-1.62026 -3.89022,5.30193 -1.51599,-5.30193 -7.997,-3.89022 -4.97307,6.05591 -9.99425,-9.84185 1.40369,-5.07734 -3.89022,0.32084 -2.59883,-3.45708 -5.83934,-0.86627 -1.07482,-3.77793 -7.78846,-0.6497 0.43314,-3.03197 -5.51048,-3.12822 -2.48653,-0.762 v -2.26996 l 1.73255,-4.86077 -6.48905,-9.29642 -1.94912,-1.08284 h -2.33413 l -1.98922,1.62025 -6.37675,-5.62277 h -8.10931 l -2.7031,-1.08284 -2.37423,-4.21107 0.75398,-12.97007 -17.95918,-2.36621 1.50796,-5.35808 3.89824,-3.60146 9.57716,0.89836 v -6.08799 l -4.16294,-4.42763 15.01545,-1.49994 10.21884,5.92757 h 2.7031 l 7.21094,2.18173 10.81241,-2.18173 2.40632,-4.42763 13.81228,-1.49994 5.10942,8.1093 1.80474,5.62277 10.51563,3.99449 30.15922,10.81241 z"
     style="fill:#00aad4;stroke-width:0.802107" />
  <path
     id="region196324"
     class="region"
     d="m 679.49119,70.208914 10.25093,7.764396 6.76176,13.6278 4.95703,13.09039 -14.63846,20.30935 -8.01305,-1.30744 -12.76954,4.44368 -5.63079,1.05076 -16.00204,6.27247 -4.31533,0.84222 -4.09075,-4.93296 -1.58817,-5.68694 1.58817,-6.80989 4.09075,-7.4997 V 98.64361 l -1.82079,-10.45146 14.5422,-2.49455 h 10.00228 l 14.5422,-13.860408 z"
     style="fill:#00aad4;stroke-width:0.802107" />
  <path
     id="region196368"
     class="region"
     d="m 611.52866,68.15552 3.81803,4.949 -3.11217,3.81803 -0.70586,10.4675 1.98121,2.26996 -0.42512,4.66826 -6.50509,-0.99461 -16.73997,16.13037 3.5774,2.82342 -0.46523,6.08799 -3.11217,4.24315 v 5.37412 l -6.93021,3.53729 -1.9812,-3.53729 -4.38753,1.55608 -4.52388,-2.83143 -2.26194,4.25116 -6.79385,0.56148 -0.64168,4.81264 3.47312,1.65234 -2.83144,8.95152 -2.3983,4.38752 -10.75625,2.40632 -6.93021,-2.40632 h -3.25655 v -15.69723 l -4.09877,-5.26183 2.68706,-8.03711 -7.07459,-10.0504 -0.98659,-4.949 -4.10679,-3.24853 v -8.0692 l 17.15707,-6.36071 18.67306,1.9812 3.11217,-4.25116 6.51311,-2.11757 12.02359,0.56148 9.898,-13.43529 -0.85024,-6.505092 18.11158,-7.355321 z"
     style="fill:#00aad4;stroke-width:0.802107" />
  <path
     id="region196340"
     class="region"
     d="m 662.77528,85.64145 h -10.11457 l -14.43792,2.75925 1.82078,10.18676 v 12.7535 l -4.17898,7.41949 -1.45181,6.74572 1.65234,5.99174 3.97845,4.80463 4.31534,-0.8743 v 13.49144 l 11.12522,5.72704 v 4.45972 l -17.95918,4.11481 -4.78858,5.73506 h -6.54519 l -2.22184,5.12547 -40.33796,-14.77481 -1.75661,-5.53454 -5.05328,-8.15743 -13.74811,1.62025 2.62289,-9.36861 -3.37687,-1.5641 0.75398,-4.80463 6.38477,-0.56147 2.60685,-4.31534 4.30731,2.99988 4.49982,-1.68442 2.06142,3.93834 6.93822,-3.93834 v -5.0613 l 2.99988,-4.30731 0.93045,-6.40884 -3.93033,-2.5908 17.0528,-16.11433 5.99976,1.12295 0.56147,-4.86879 -1.87693,-2.06142 0.56148,-10.49958 2.99988,-4.12283 -3.56136,-4.307315 -1.1069,-9.184125 3.56135,-10.122591 20.34946,-3.36885 12.6412,2.061415 8.43015,4.86879 11.80702,4.12283 12.36849,13.11445 z"
     style="fill:#00aad4;stroke-width:0.802107" />
  <path
     id="region196338"
     class="region"
     d="m 471.21608,56.027662 -0.85826,-4.916916 -17.64635,-1.820783 -0.96253,12.833712 -10.80438,2.141626 v 6.096014 l 3.96241,4.596075 1.60421,14.87106 -6.7377,4.91692 3.95439,16.7881 3.45708,4.38753 h 3.52927 l 2.67102,-5.45433 5.99174,2.35017 -0.64169,5.77517 -1.92506,4.70837 0.85024,4.38753 6.31258,-5.35006 23.16485,17.75063 21.81731,8.02107 5.77517,-1.17108 15.18389,-1.32347 9.62529,5.49443 0.21656,-15.29618 -4.38752,-5.5586 2.88758,-8.23764 -6.94624,-9.62529 -0.96253,-5.02921 -4.30732,-3.3127 v -7.85263 l -13.0583,1.81276 v -9.56913 l -5.60673,-0.33689 0.49731,-11.8792 -4.45972,-0.98659 -18.97785,10.06644 -0.82617,-12.7134 4.4517,-3.793964 0.82617,-7.924818 -4.4517,-6.104034 z"
     style="fill:#00aad4;stroke-width:0.802107" />
  <path
     id="region196336"
     class="region"
     d="m 416.27174,103.89741 -13.44331,21.4323 3.13624,7.16282 -2.61487,2.76727 -10.08249,-3.60949 c -3.48916,4.98109 -5.60672,7.88472 -6.35268,8.71891 -0.74596,0.82617 -0.49731,3.23249 0.74596,7.21896 l -1.62026,2.49455 -3.48917,-0.87429 -21.04728,13.82832 h -6.35269 l -7.84461,-4.11481 -1.68442,2.71915 -5.18964,-1.04274 -2.07745,-24.54448 -6.21633,-5.87944 h -6.56926 l -6.91416,-6.56926 -6.22435,-3.45708 h -6.91417 l -4.49982,-11.75087 -8.9836,-4.49982 -1.04274,-7.60397 15.21598,-13.82833 4.49179,1.37962 7.95691,-3.10415 9.3285,-7.9569 5.53454,-1.724532 v -6.914163 l -4.14689,-1.387645 v -6.914163 l 14.86304,-3.112175 5.87945,-9.336526 -2.07746,-6.21633 9.68143,-5.189633 -1.37962,-6.22435 2.76727,-6.914163 z"
     style="fill:#00aad4;stroke-width:0.802107" />
  <path
     id="region196328"
     class="region"
     d="m 347.17022,158.92998 7.83659,3.86615 6.64947,0.24063 20.99916,-13.89249 3.20843,0.73794 1.80474,-1.85287 -1.06681,-3.08009 v -4.36346 l 6.59332,-8.90339 10.24291,3.38489 2.5106,-2.65497 -3.11218,-7.17084 13.69999,-21.38417 11.422,5.96767 5.71101,-2.15767 6.10403,-13.07434 3.89022,16.49934 3.71376,4.70035 h 3.68167 l 2.33413,-5.33401 5.83934,2.286 -0.51335,5.58267 -1.90099,5.07733 0.89033,4.44368 6.34467,-5.58267 23.10068,17.76667 22.08201,7.99701 5.83934,-1.14701 3.93033,4.57201 -0.37699,5.95965 -9.39268,-0.75398 -4.187,3.80199 -1.65234,5.83934 -5.45433,-0.6096 -7.62001,5.68694 -5.45433,-2.79134 -2.65497,1.26733 -5.16557,10.15468 2.79133,7.74033 -3.81001,6.47301 4.70035,3.55333 -0.89034,3.55333 -9.64935,-1.77265 -6.84999,2.40632 -1.39567,-4.56399 -14.09302,2.15767 -5.58267,5.711 4.44368,18.52867 5.07733,6.36873 -8.12534,2.39028 -22.97235,-8.75901 -3.67365,3.80199 -9.01568,-0.63366 -0.93846,-4.69233 -2.83144,-1.31546 -3.01592,4.41961 -6.52916,-5.8634 -3.3127,0.89034 -2.96779,-1.99725 -8.72693,2.5507 1.50796,9.20819 -14.4299,4.05064 -3.36083,6.20831 -7.21094,1.67641 -4.70035,7.88471 4.70035,10.41135 -9.89801,13.58769 -14.36573,13.42727 6.97833,8.39004 8.55848,3.68969 h 5.03723 l 7.37939,7.71627 -2.68706,3.02395 0.50533,3.35281 7.05052,4.19502 -1.34754,2.8555 -6.20831,0.50532 -2.18173,-2.8555 -5.16557,3.6897 3.99449,6.54519 v 5.20567 l -3.99449,9.898 1.64432,2.18174 4.02658,1.33951 -0.50533,5.87945 -7.54783,3.85813 -9.06381,-3.36082 v -9.89801 l -4.02658,-7.52376 -17.61427,5.17359 -8.22962,-3.35281 -8.39004,13.09039 -23.04453,13.92458 -7.92482,-28.83575 -13.0583,-6.64947 -2.79935,-3.68969 8.39806,-4.19502 v -4.66024 l 10.25895,-10.25895 v -23.7905 l -18.65701,-6.99437 -4.19502,-10.86855 4.19502,-13.84437 -4.19502,-5.13348 V 230.1651 l 18.65701,-11.75889 10.72417,-13.89249 v -8.86328 l 6.52915,-2.34216 4.66024,5.60673 40.57057,10.73219 12.59309,-10.73219 6.99437,-24.83323 -4.66024,-12.93799 z"
     style="fill:#00aad4;stroke-width:0.802107" />
  <!-- ГОРОДА -->
  <path
     id="region196318"
     class="city"
     d="m 513.60662,408.13543 c 0,5.7074 -4.76748,10.346 -10.6235,10.346 -5.86611,0 -10.6235,-4.6386 -10.6235,-10.346 0,-5.7074 4.75739,-10.346 10.6235,-10.346 5.85602,0 10.6235,4.6386 10.6235,10.346 z"
     style="fill:#ffffff;stroke-width:1.03792" />
  <path
     id="region196320"
     class="city"
     d="m 729.88676,166.07556 c 0,5.70742 -4.75966,10.34601 -10.62854,10.34601 -5.8588,0 -10.61846,-4.63859 -10.61846,-10.34601 0,-5.7074 4.75966,-10.34599 10.61846,-10.34599 5.86888,0 10.62854,4.63859 10.62854,10.34599 z"
     style="fill:#ffffff;stroke-width:1.03816" />
  <path
     id="region196310"
     class="city"
     d="m 611.68827,163.84571 c 0,5.71073 -4.75938,10.346 -10.62659,10.346 -5.86103,0 -10.62041,-4.63527 -10.62041,-10.346 0,-5.71072 4.75938,-10.346 10.62041,-10.346 5.86721,0 10.62659,4.63528 10.62659,10.346 z"
     style="fill:#ffffff;stroke-width:0.649047" />
  <!-- ЗНАЧЕНИЯ ПО РАЙОНАМ И ГОРОДАМ -->
  <text
     id="textValue196346"
     class="text value"
     x="816.72687"
     y="394.47888">{{ value('196346') }}</text>
  <text
     id="textValue196358"
     class="text value"
     x="680.0899"
     y="400.44476">{{ value('196358') }}</text>
  <text
     id="textValue196364"
     class="text value"
     x="589.3125"
     y="494.09848">{{ value('196364') }}</text>
  <text
     id="textValue196334"
     class="text value"
     x="378.10828"
     y="439.90857">{{ value('196334') }}</text>
  <text
     id="textValue196332"
     class="text value"
     x="414.68253"
     y="301.92358">{{ value('196332') }}</text>
  <text
     id="textValue196344"
     class="text value"
     x="528.61475"
     y="262.6633">{{ value('196344') }}</text>
  <text
     id="textValue196350"
     class="text value"
     x="631.7345"
     y="293.54727">{{ value('196350') }}</text>
  <text
     id="textValue196324"
     class="text value"
     x="666.75427"
     y="109.25933">{{ value('196324') }}</text>
  <text
     id="textValue196362"
     class="text value"
     x="615.35046"
     y="208.35835">{{ value('196362') }}</text>
  <text
     id="textValue196348"
     class="text value"
     x="719.01764"
     y="137.52667">{{ value('196348') }}</text>
  <text
     id="textValue196354"
     class="text value"
     x="812.68195"
     y="192.54936">{{ value('196354') }}</text>
  <text
     id="textValue196352"
     class="text value"
     x="766.92383"
     y="293.18268">{{ value('196352') }}</text>
  <text
     id="textValue196368"
     class="text value"
     x="566.8327"
     y="110.07341">{{ value('196368') }}</text>
  <text
     id="textValue196340"
     class="text value"
     x="641.09253"
     y="68.965073">{{ value('196340') }}</text>
  <text
     id="textValue196338"
     class="text value"
     x="491.35092"
     y="107.42128">{{ value('196338') }}</text>
  <text
     id="textValue196336"
     class="text value"
     x="355.63379"
     y="100.55168">{{ value('196336') }}</text>
  <text
     id="textValue196328"
     class="text value"
     x="375.44528"
     y="191.38344">{{ value('196328') }}</text>
  <text
     id="textValue196318"
     class="text value"
     x="525.48358"
     y="411.08524">{{ value('196318') }}</text>
  <text
     id="textValue196320"
     class="text value"
     x="743.52167"
     y="167.90321">{{ value('196320') }}</text>
  <text
     id="textValue196310"
     class="text value"
     x="626.3642"
     y="167.3884">{{ value('196310') }}</text>
  <!-- РЕГИОН И ЗНАЧЕНИЯ ПО РЕГИОНУ -->
  <text
     id="textTitle"
     class="text title"
     x="157.95792"
     y="578.61676">{{ titleName }}
  </text>
  <text
     id="textValue1975"
     class="text titleValue"
     x="157.95792"
     y="603.18011">{{ titleValue }}
  </text>
</svg>
